<svg version="1.1" viewBox="0.0 0.0 391.79527559055117 383.254593175853" fill="none" stroke="none" stroke-linecap="square" stroke-miterlimit="10" xmlns:xlink="http://www.w3.org/1999/xlink" xmlns="http://www.w3.org/2000/svg"><clipPath id="p.0"><path d="m0 0l391.7953 0l0 383.2546l-391.7953 0l0 -383.2546z" clip-rule="nonzero"/></clipPath><g clip-path="url(#p.0)"><path fill="#000000" fill-opacity="0.0" d="m0 0l391.7953 0l0 383.2546l-391.7953 0z" fill-rule="evenodd"/><path fill="#ffffff" d="m9.606646 294.97424c0 -8.161224 6.6159763 -14.777191 14.777199 -14.777191l339.32748 0c3.919159 0 7.6777954 1.5568848 10.449066 4.328125c2.7712708 2.7712708 4.328125 6.529907 4.328125 10.449066l0 59.107025c0 8.161224 -6.615967 14.777191 -14.777191 14.777191l-339.32748 0c-8.161222 0 -14.777199 -6.615967 -14.777199 -14.777191z" fill-rule="evenodd"/><path stroke="#ffffff" stroke-width="1.0" stroke-linejoin="round" stroke-linecap="butt" d="m9.606646 294.97424c0 -8.161224 6.6159763 -14.777191 14.777199 -14.777191l339.32748 0c3.919159 0 7.6777954 1.5568848 10.449066 4.328125c2.7712708 2.7712708 4.328125 6.529907 4.328125 10.449066l0 59.107025c0 8.161224 -6.615967 14.777191 -14.777191 14.777191l-339.32748 0c-8.161222 0 -14.777199 -6.615967 -14.777199 -14.777191z" fill-rule="evenodd"/><path fill="#000000" fill-opacity="0.0" d="m74.2418 294.55927l239.59058 0l0 59.93698l-239.59058 0z" fill-rule="evenodd"/><path fill="#000000" d="m147.63432 327.10614l-6.03125 0l0 -3.796875l6.03125 0q1.390625 0 2.265625 -0.46875q0.890625 -0.46875 1.296875 -1.296875q0.40625 -0.828125 0.40625 -1.875q0 -1.046875 -0.40625 -1.953125q-0.40625 -0.921875 -1.296875 -1.46875q-0.875 -0.5625 -2.265625 -0.5625l-4.34375 0l0 19.875l-4.890625 0l0 -23.6875l9.234375 0q2.78125 0 4.765625 1.0q2.0 1.0 3.0625 2.765625q1.0625 1.75 1.0625 4.0q0 2.296875 -1.0625 3.984375q-1.0625 1.671875 -3.0625 2.578125q-1.984375 0.90625 -4.765625 0.90625zm21.286362 4.484375l0 -7.84375q0 -0.84375 -0.28125 -1.453125q-0.28125 -0.609375 -0.859375 -0.953125q-0.5625 -0.34375 -1.484375 -0.34375q-0.78125 0 -1.359375 0.265625q-0.5625 0.265625 -0.875 0.765625q-0.296875 0.5 -0.296875 1.15625l-4.6875 0q0 -1.109375 0.515625 -2.125q0.515625 -1.015625 1.5 -1.78125q1.0 -0.765625 2.375 -1.203125q1.390625 -0.453125 3.09375 -0.453125q2.046875 0 3.640625 0.6875q1.59375 0.6875 2.515625 2.0625q0.921875 1.359375 0.921875 3.40625l0 7.53125q0 1.453125 0.171875 2.375q0.1875 0.921875 0.53125 1.59375l0 0.28125l-4.734375 0q-0.34375 -0.71875 -0.515625 -1.796875q-0.171875 -1.078125 -0.171875 -2.171875zm0.609375 -6.75l0.046875 2.640625l-2.625 0q-0.9375 0 -1.625 0.21875q-0.671875 0.203125 -1.109375 0.59375q-0.4375 0.375 -0.640625 0.890625q-0.203125 0.5 -0.203125 1.109375q0 0.59375 0.265625 1.078125q0.28125 0.484375 0.796875 0.75q0.53125 0.265625 1.234375 0.265625q1.046875 0 1.828125 -0.421875q0.78125 -0.421875 1.203125 -1.03125q0.4375 -0.625 0.46875 -1.1875l1.234375 1.984375q-0.265625 0.671875 -0.71875 1.390625q-0.4375 0.71875 -1.125 1.34375q-0.6875 0.625 -1.65625 1.03125q-0.953125 0.390625 -2.265625 0.390625q-1.671875 0 -3.03125 -0.671875q-1.359375 -0.6875 -2.15625 -1.875q-0.78125 -1.203125 -0.78125 -2.734375q0 -1.375 0.515625 -2.453125q0.515625 -1.078125 1.53125 -1.8125q1.03125 -0.734375 2.546875 -1.109375q1.53125 -0.390625 3.5625 -0.390625l2.703125 0zm16.35138 -6.890625l0 3.328125l-10.265625 0l0 -3.328125l10.265625 0zm-7.71875 -4.34375l4.6875 0l0 16.640625q0 0.765625 0.203125 1.171875q0.203125 0.40625 0.609375 0.5625q0.40625 0.15625 1.03125 0.15625q0.4375 0 0.78125 -0.03125q0.359375 -0.046875 0.59375 -0.09375l0.015625 3.453125q-0.59375 0.1875 -1.296875 0.296875q-0.703125 0.125 -1.546875 0.125q-1.546875 0 -2.703125 -0.515625q-1.140625 -0.515625 -1.765625 -1.65625q-0.609375 -1.140625 -0.609375 -2.984375l0 -17.125zm18.465042 22.28125q-2.046875 0 -3.671875 -0.65625q-1.625 -0.671875 -2.765625 -1.84375q-1.125 -1.171875 -1.734375 -2.71875q-0.59375 -1.546875 -0.59375 -3.3125l0 -0.65625q0 -2.0 0.5625 -3.65625q0.578125 -1.65625 1.640625 -2.875q1.0625 -1.21875 2.59375 -1.875q1.53125 -0.671875 3.453125 -0.671875q1.875 0 3.3125 0.625q1.453125 0.609375 2.4375 1.75q0.984375 1.140625 1.484375 2.734375q0.515625 1.578125 0.515625 3.515625l0 1.953125l-14.0 0l0 -3.125l9.390625 0l0 -0.359375q0 -0.96875 -0.359375 -1.734375q-0.34375 -0.78125 -1.046875 -1.234375q-0.6875 -0.453125 -1.78125 -0.453125q-0.9375 0 -1.609375 0.40625q-0.65625 0.40625 -1.078125 1.140625q-0.40625 0.71875 -0.609375 1.703125q-0.203125 0.984375 -0.203125 2.15625l0 0.65625q0 1.0625 0.296875 1.953125q0.296875 0.890625 0.859375 1.546875q0.5625 0.65625 1.359375 1.015625q0.8125 0.34375 1.84375 0.34375q1.265625 0 2.359375 -0.484375q1.109375 -0.5 1.90625 -1.515625l2.28125 2.484375q-0.5625 0.796875 -1.515625 1.53125q-0.953125 0.71875 -2.28125 1.1875q-1.328125 0.46875 -3.046875 0.46875zm14.482864 -14.171875l0 13.84375l-4.6875 0l0 -17.609375l4.40625 0l0.28125 3.765625zm-0.671875 4.421875l-1.28125 0q0 -1.953125 0.5 -3.515625q0.515625 -1.578125 1.421875 -2.6875q0.921875 -1.125 2.171875 -1.71875q1.265625 -0.59375 2.828125 -0.59375q1.234375 0 2.25 0.359375q1.03125 0.359375 1.765625 1.140625q0.75 0.78125 1.140625 2.078125q0.40625 1.28125 0.40625 3.125l0 11.234375l-4.71875 0l0 -11.25q0 -1.171875 -0.328125 -1.8125q-0.3125 -0.65625 -0.953125 -0.921875q-0.625 -0.265625 -1.53125 -0.265625q-0.9375 0 -1.640625 0.375q-0.6875 0.375 -1.140625 1.03125q-0.4375 0.65625 -0.671875 1.53125q-0.21875 0.875 -0.21875 1.890625zm23.400726 -8.1875l0 3.328125l-10.265625 0l0 -3.328125l10.265625 0zm-7.71875 -4.34375l4.6875 0l0 16.640625q0 0.765625 0.203125 1.171875q0.203125 0.40625 0.609375 0.5625q0.40625 0.15625 1.03125 0.15625q0.4375 0 0.78125 -0.03125q0.359375 -0.046875 0.59375 -0.09375l0.015625 3.453125q-0.59375 0.1875 -1.296875 0.296875q-0.703125 0.125 -1.546875 0.125q-1.546875 0 -2.703125 -0.515625q-1.140625 -0.515625 -1.765625 -1.65625q-0.609375 -1.140625 -0.609375 -2.984375l0 -17.125zm19.886917 17.09375q0 -0.515625 -0.296875 -0.921875q-0.296875 -0.40625 -1.09375 -0.75q-0.78125 -0.359375 -2.25 -0.640625q-1.34375 -0.296875 -2.5 -0.734375q-1.140625 -0.453125 -1.984375 -1.09375q-0.828125 -0.640625 -1.296875 -1.5q-0.46875 -0.875 -0.46875 -2.0q0 -1.109375 0.46875 -2.078125q0.484375 -0.984375 1.390625 -1.734375q0.90625 -0.765625 2.203125 -1.1875q1.3125 -0.4375 2.96875 -0.4375q2.28125 0 3.9375 0.734375q1.65625 0.734375 2.53125 2.015625q0.890625 1.28125 0.890625 2.90625l-4.6875 0q0 -0.6875 -0.28125 -1.234375q-0.28125 -0.546875 -0.875 -0.859375q-0.59375 -0.3125 -1.53125 -0.3125q-0.78125 0 -1.359375 0.265625q-0.5625 0.265625 -0.875 0.71875q-0.296875 0.4375 -0.296875 0.984375q0 0.40625 0.171875 0.71875q0.171875 0.3125 0.5625 0.578125q0.390625 0.265625 1.015625 0.484375q0.625 0.21875 1.5625 0.390625q1.890625 0.390625 3.390625 1.015625q1.5 0.625 2.375 1.703125q0.890625 1.0625 0.890625 2.78125q0 1.171875 -0.53125 2.15625q-0.515625 0.96875 -1.5 1.703125q-0.96875 0.71875 -2.328125 1.125q-1.359375 0.390625 -3.046875 0.390625q-2.46875 0 -4.171875 -0.875q-1.6875 -0.890625 -2.5625 -2.25q-0.875 -1.359375 -0.875 -2.78125l4.453125 0q0.03125 0.953125 0.484375 1.546875q0.46875 0.578125 1.1875 0.84375q0.734375 0.265625 1.578125 0.265625q0.90625 0 1.5 -0.25q0.609375 -0.265625 0.921875 -0.6875q0.328125 -0.4375 0.328125 -1.0z" fill-rule="nonzero"/><path fill="#000000" fill-opacity="0.0" d="m29.112263 89.89814c0 -8.326477 6.749943 -15.076424 15.076416 -15.076424l60.30386 0c3.9985123 0 7.8332596 1.5884094 10.660637 4.4157867c2.8273773 2.8273697 4.415779 6.662117 4.415779 10.660637l0 166.69757c0 8.326477 -6.749939 15.076416 -15.076416 15.076416l-60.30386 0c-8.326473 0 -15.076416 -6.749939 -15.076416 -15.076416z" fill-rule="evenodd"/><path stroke="#ffffff" stroke-width="8.0" stroke-linejoin="round" stroke-linecap="butt" d="m29.112263 89.89814c0 -8.326477 6.749943 -15.076424 15.076416 -15.076424l60.30386 0c3.9985123 0 7.8332596 1.5884094 10.660637 4.4157867c2.8273773 2.8273697 4.415779 6.662117 4.415779 10.660637l0 166.69757c0 8.326477 -6.749939 15.076416 -15.076416 15.076416l-60.30386 0c-8.326473 0 -15.076416 -6.749939 -15.076416 -15.076416z" fill-rule="evenodd"/><path fill="#000000" fill-opacity="0.0" d="m53.052666 237.07901l0 -274.86615l48.755905 0l0 274.86615z" fill-rule="evenodd"/><path fill="#ffffff" d="m66.70704 220.96964l13.265625 0l0 2.71875l-13.265625 0l0 -2.71875zm0 -4.09375l2.140625 0l0 10.828125l-2.140625 0l0 -10.828125zm13.453125 -5.08078q0 1.15625 -0.375 2.0625q-0.375 0.90625 -1.03125 1.546875q-0.65625 0.625 -1.515625 0.96875q-0.875 0.34375 -1.859375 0.34375l-0.359375 0q-1.125 0 -2.046875 -0.3125q-0.9375 -0.328125 -1.609375 -0.921875q-0.6875 -0.609375 -1.046875 -1.453125q-0.375 -0.859375 -0.375 -1.9375q0 -1.046875 0.34375 -1.859375q0.34375 -0.8125 0.984375 -1.359375q0.625 -0.546875 1.515625 -0.828125q0.890625 -0.28125 1.984375 -0.28125l1.078125 0l0 7.828125l-1.734375 0l0 -5.25l-0.203125 0q-0.546875 0 -0.984375 0.203125q-0.4375 0.1875 -0.6875 0.578125q-0.25 0.390625 -0.25 1.0q0 0.515625 0.234375 0.890625q0.21875 0.375 0.625 0.609375q0.40625 0.234375 0.96875 0.34375q0.546875 0.109375 1.203125 0.109375l0.359375 0q0.59375 0 1.09375 -0.15625q0.5 -0.171875 0.875 -0.484375q0.359375 -0.328125 0.5625 -0.765625q0.1875 -0.453125 0.1875 -1.03125q0 -0.71875 -0.265625 -1.328125q-0.28125 -0.609375 -0.84375 -1.0625l1.375 -1.265625q0.453125 0.296875 0.859375 0.84375q0.40625 0.53125 0.671875 1.28125q0.265625 0.734375 0.265625 1.6875zm-2.0625 -9.606354q0 -0.484375 -0.171875 -0.859375q-0.1875 -0.375 -0.53125 -0.578125q-0.34375 -0.21875 -0.8125 -0.234375l0 -2.46875q1.046875 0.015625 1.859375 0.5625q0.796875 0.546875 1.265625 1.46875q0.453125 0.921875 0.453125 2.0625q0 1.140625 -0.375 2.0q-0.390625 0.84375 -1.0625 1.40625q-0.6875 0.5625 -1.59375 0.859375q-0.90625 0.28125 -1.953125 0.28125l-0.265625 0q-1.046875 0 -1.953125 -0.28125q-0.90625 -0.296875 -1.578125 -0.859375q-0.6875 -0.5625 -1.0625 -1.40625q-0.375 -0.84375 -0.375 -1.984375q0 -1.21875 0.46875 -2.125q0.453125 -0.921875 1.3125 -1.4375q0.859375 -0.53125 2.03125 -0.546875l0 2.46875q-0.484375 0.015625 -0.875 0.21875q-0.40625 0.1875 -0.640625 0.5625q-0.25 0.359375 -0.25 0.90625q0 0.5625 0.25 0.9375q0.234375 0.359375 0.65625 0.5625q0.40625 0.203125 0.9375 0.28125q0.515625 0.078125 1.078125 0.078125l0.265625 0q0.578125 0 1.109375 -0.078125q0.53125 -0.078125 0.9375 -0.28125q0.40625 -0.203125 0.640625 -0.5625q0.234375 -0.375 0.234375 -0.953125zm-12.125 -8.204208l14.0 0l0 2.625l-14.0 0l0 -2.625zm8.71875 0.375l0 0.71875q-1.015625 -0.015625 -1.890625 -0.28125q-0.875 -0.265625 -1.515625 -0.75q-0.640625 -0.5 -0.984375 -1.1875q-0.359375 -0.6875 -0.359375 -1.515625q0 -0.734375 0.203125 -1.328125q0.203125 -0.59375 0.65625 -1.03125q0.4375 -0.4375 1.171875 -0.671875q0.734375 -0.234375 1.765625 -0.234375l6.234375 0l0 2.640625l-6.25 0q-0.65625 0 -1.03125 0.1875q-0.375 0.1875 -0.53125 0.546875q-0.171875 0.34375 -0.171875 0.859375q0 0.5625 0.21875 0.953125q0.203125 0.390625 0.578125 0.640625q0.359375 0.234375 0.859375 0.34375q0.484375 0.109375 1.046875 0.109375zm-2.46875 -10.839218l7.75 0l0 2.625l-9.859375 0l0 -2.453125l2.109375 -0.171875zm2.46875 0.390625l0 0.703125q-1.09375 0 -1.96875 -0.28125q-0.875 -0.28125 -1.5 -0.78125q-0.625 -0.515625 -0.953125 -1.21875q-0.328125 -0.71875 -0.328125 -1.59375q0 -0.6875 0.203125 -1.25q0.1875 -0.578125 0.625 -0.984375q0.4375 -0.421875 1.15625 -0.640625q0.71875 -0.234375 1.765625 -0.234375l6.28125 0l0 2.640625l-6.296875 0q-0.65625 0 -1.015625 0.1875q-0.359375 0.171875 -0.515625 0.53125q-0.15625 0.34375 -0.15625 0.859375q0 0.53125 0.21875 0.921875q0.203125 0.375 0.578125 0.625q0.359375 0.25 0.859375 0.390625q0.484375 0.125 1.046875 0.125zm0.453125 -7.8483276l-0.1875 0q-1.09375 0 -2.0 -0.3125q-0.921875 -0.3125 -1.59375 -0.90625q-0.671875 -0.59375 -1.046875 -1.453125q-0.375 -0.875 -0.375 -1.984375q0 -1.125 0.375 -2.0q0.375 -0.875 1.046875 -1.46875q0.671875 -0.59375 1.59375 -0.90625q0.90625 -0.3125 2.0 -0.3125l0.1875 0q1.078125 0 2.0 0.3125q0.90625 0.3125 1.59375 0.90625q0.671875 0.59375 1.046875 1.46875q0.375 0.859375 0.375 1.96875q0 1.125 -0.375 2.0q-0.375 0.875 -1.046875 1.46875q-0.6875 0.59375 -1.59375 0.90625q-0.921875 0.3125 -2.0 0.3125zm-0.1875 -2.625l0.1875 0q0.625 0 1.15625 -0.109375q0.53125 -0.109375 0.9375 -0.34375q0.40625 -0.25 0.640625 -0.640625q0.21875 -0.390625 0.21875 -0.96875q0 -0.546875 -0.21875 -0.9375q-0.234375 -0.390625 -0.640625 -0.625q-0.40625 -0.234375 -0.9375 -0.34375q-0.53125 -0.125 -1.15625 -0.125l-0.1875 0q-0.609375 0 -1.140625 0.125q-0.53125 0.109375 -0.9375 0.359375q-0.421875 0.234375 -0.65625 0.625q-0.234375 0.390625 -0.234375 0.953125q0 0.546875 0.234375 0.9375q0.234375 0.390625 0.65625 0.640625q0.40625 0.234375 0.9375 0.34375q0.53125 0.109375 1.140625 0.109375zm-8.984375 -11.108704l14.0 0l0 2.640625l-14.0 0l0 -2.640625zm9.171875 -1.7342224l-0.1875 0q-1.09375 0 -2.0 -0.3125q-0.921875 -0.3125 -1.59375 -0.90625q-0.671875 -0.59375 -1.046875 -1.453125q-0.375 -0.875 -0.375 -1.984375q0 -1.125 0.375 -2.0q0.375 -0.875 1.046875 -1.46875q0.671875 -0.59375 1.59375 -0.90625q0.90625 -0.3125 2.0 -0.3125l0.1875 0q1.078125 0 2.0 0.3125q0.90625 0.3125 1.59375 0.90625q0.671875 0.59375 1.046875 1.46875q0.375 0.859375 0.375 1.96875q0 1.125 -0.375 2.0q-0.375 0.875 -1.046875 1.46875q-0.6875 0.59375 -1.59375 0.90625q-0.921875 0.3125 -2.0 0.3125zm-0.1875 -2.625l0.1875 0q0.625 0 1.15625 -0.109375q0.53125 -0.109375 0.9375 -0.34375q0.40625 -0.25 0.640625 -0.640625q0.21875 -0.390625 0.21875 -0.96875q0 -0.546875 -0.21875 -0.9375q-0.234375 -0.390625 -0.640625 -0.625q-0.40625 -0.234375 -0.9375 -0.34375q-0.53125 -0.125 -1.15625 -0.125l-0.1875 0q-0.609375 0 -1.140625 0.125q-0.53125 0.109375 -0.9375 0.359375q-0.421875 0.234375 -0.65625 0.625q-0.234375 0.390625 -0.234375 0.953125q0 0.546875 0.234375 0.9375q0.234375 0.390625 0.65625 0.640625q0.40625 0.234375 0.9375 0.34375q0.53125 0.109375 1.140625 0.109375zm-4.84375 -14.577454l0 -2.375l9.53125 0q1.34375 0 2.28125 0.609375q0.953125 0.59375 1.4375 1.65625q0.484375 1.0625 0.484375 2.46875q0 0.625 -0.171875 1.3125q-0.15625 0.6875 -0.5 1.3125q-0.34375 0.625 -0.875 1.046875l-1.546875 -1.15625q0.53125 -0.453125 0.828125 -1.046875q0.296875 -0.609375 0.296875 -1.34375q0 -0.71875 -0.265625 -1.203125q-0.25 -0.5 -0.75 -0.75q-0.5 -0.265625 -1.203125 -0.265625l-7.265625 0l-2.28125 -0.265625zm5.046875 6.640625l-0.1875 0q-1.125 0 -2.046875 -0.28125q-0.9375 -0.28125 -1.59375 -0.796875q-0.671875 -0.515625 -1.03125 -1.25q-0.359375 -0.734375 -0.359375 -1.671875q0 -0.984375 0.359375 -1.640625q0.359375 -0.671875 1.03125 -1.09375q0.671875 -0.421875 1.578125 -0.65625q0.90625 -0.25 1.984375 -0.390625l0.40625 0q1.03125 0.140625 1.921875 0.421875q0.875 0.265625 1.546875 0.71875q0.65625 0.4375 1.03125 1.09375q0.359375 0.65625 0.359375 1.578125q0 0.90625 -0.375 1.640625q-0.375 0.734375 -1.046875 1.25q-0.671875 0.515625 -1.578125 0.796875q-0.921875 0.28125 -2.0 0.28125zm-0.1875 -2.625l0.1875 0q0.609375 0 1.140625 -0.109375q0.53125 -0.125 0.9375 -0.375q0.40625 -0.25 0.625 -0.625q0.21875 -0.390625 0.21875 -0.90625q0 -0.71875 -0.296875 -1.171875q-0.3125 -0.453125 -0.84375 -0.671875q-0.546875 -0.234375 -1.234375 -0.28125l-1.203125 0q-0.578125 0.015625 -1.03125 0.15625q-0.453125 0.140625 -0.78125 0.390625q-0.328125 0.234375 -0.515625 0.625q-0.1875 0.390625 -0.1875 0.9375q0 0.515625 0.234375 0.890625q0.234375 0.375 0.640625 0.640625q0.390625 0.25 0.9375 0.375q0.546875 0.125 1.171875 0.125zm3.890625 -11.345612l-8.75 -2.625l0 -2.8125l11.34375 3.96875q0.375 0.125 0.796875 0.34375q0.4375 0.203125 0.8125 0.5625q0.390625 0.359375 0.640625 0.90625q0.25 0.546875 0.25 1.328125q0 0.375 -0.046875 0.609375q-0.046875 0.234375 -0.125 0.5625l-1.921875 0q0 -0.09375 0 -0.203125q0 -0.109375 0 -0.21875q0 -0.515625 -0.125 -0.84375q-0.109375 -0.328125 -0.359375 -0.53125q-0.234375 -0.203125 -0.609375 -0.3125l-1.90625 -0.734375zm-8.75 1.09375l7.140625 -2.140625l2.78125 -0.375l0.1875 1.78125l-10.109375 3.546875l0 -2.8125z" fill-rule="nonzero"/><path fill="#000000" fill-opacity="0.0" d="m140.87524 46.444016c0 -6.8536873 5.556015 -12.4096985 12.4096985 -12.4096985l49.6373 0c3.2912598 0 6.447708 1.3074455 8.774979 3.634716c2.3272705 2.3272705 3.6347198 5.4837265 3.6347198 8.774982l0 212.8499c0 6.8536987 -5.556015 12.4096985 -12.4096985 12.4096985l-49.6373 0c-6.8536835 0 -12.4096985 -5.5559998 -12.4096985 -12.4096985z" fill-rule="evenodd"/><path stroke="#ffffff" stroke-width="8.0" stroke-linejoin="round" stroke-linecap="butt" d="m140.87524 46.444016c0 -6.8536873 5.556015 -12.4096985 12.4096985 -12.4096985l49.6373 0c3.2912598 0 6.447708 1.3074455 8.774979 3.634716c2.3272705 2.3272705 3.6347198 5.4837265 3.6347198 8.774982l0 212.8499c0 6.8536987 -5.556015 12.4096985 -12.4096985 12.4096985l-49.6373 0c-6.8536835 0 -12.4096985 -5.5559998 -12.4096985 -12.4096985z" fill-rule="evenodd"/><path fill="#000000" fill-opacity="0.0" d="m155.94922 245.98541l0 -274.86615l48.755905 0l0 274.86615z" fill-rule="evenodd"/><path fill="#ffffff" d="m178.46297 228.11041l0 -2.71875q1.34375 0.078125 2.390625 0.734375q1.03125 0.640625 1.625 1.8125q0.578125 1.15625 0.578125 2.78125q0 1.28125 -0.4375 2.296875q-0.453125 1.015625 -1.28125 1.734375q-0.828125 0.703125 -2.0 1.078125q-1.171875 0.375 -2.640625 0.375l-0.921875 0q-1.453125 0 -2.625 -0.390625q-1.1875 -0.390625 -2.015625 -1.109375q-0.828125 -0.71875 -1.265625 -1.734375q-0.453125 -1.015625 -0.453125 -2.265625q0 -1.65625 0.609375 -2.796875q0.59375 -1.140625 1.65625 -1.765625q1.046875 -0.640625 2.390625 -0.765625l0 2.734375q-0.796875 0.03125 -1.359375 0.3125q-0.5625 0.265625 -0.84375 0.828125q-0.28125 0.546875 -0.28125 1.453125q0 0.6875 0.25 1.203125q0.25 0.5 0.78125 0.859375q0.515625 0.34375 1.3125 0.515625q0.78125 0.15625 1.828125 0.15625l0.9375 0q1.03125 0 1.8125 -0.15625q0.78125 -0.15625 1.3125 -0.46875q0.53125 -0.328125 0.796875 -0.84375q0.265625 -0.515625 0.265625 -1.25q0 -0.84375 -0.265625 -1.390625q-0.265625 -0.5625 -0.796875 -0.859375q-0.546875 -0.296875 -1.359375 -0.359375zm-0.421875 -3.925476l-0.1875 0q-1.09375 0 -2.0 -0.3125q-0.921875 -0.3125 -1.59375 -0.90625q-0.671875 -0.59375 -1.046875 -1.453125q-0.375 -0.875 -0.375 -1.984375q0 -1.125 0.375 -2.0q0.375 -0.875 1.046875 -1.46875q0.671875 -0.59375 1.59375 -0.90625q0.90625 -0.3125 2.0 -0.3125l0.1875 0q1.078125 0 2.0 0.3125q0.90625 0.3125 1.59375 0.90625q0.671875 0.59375 1.046875 1.46875q0.375 0.859375 0.375 1.96875q0 1.125 -0.375 2.0q-0.375 0.875 -1.046875 1.46875q-0.6875 0.59375 -1.59375 0.90625q-0.921875 0.3125 -2.0 0.3125zm-0.1875 -2.625l0.1875 0q0.625 0 1.15625 -0.109375q0.53125 -0.109375 0.9375 -0.34375q0.40625 -0.25 0.640625 -0.640625q0.21875 -0.390625 0.21875 -0.96875q0 -0.546875 -0.21875 -0.9375q-0.234375 -0.390625 -0.640625 -0.625q-0.40625 -0.234375 -0.9375 -0.34375q-0.53125 -0.125 -1.15625 -0.125l-0.1875 0q-0.609375 0 -1.140625 0.125q-0.53125 0.109375 -0.9375 0.359375q-0.421875 0.234375 -0.65625 0.625q-0.234375 0.390625 -0.234375 0.953125q0 0.546875 0.234375 0.9375q0.234375 0.390625 0.65625 0.640625q0.40625 0.234375 0.9375 0.34375q0.53125 0.109375 1.140625 0.109375zm-2.796875 -10.952454l7.8125 0l0 2.625l-9.859375 0l0 -2.46875l2.046875 -0.15625zm2.53125 0.359375l0 0.734375q-1.015625 0 -1.890625 -0.25q-0.875 -0.25 -1.515625 -0.734375q-0.640625 -0.5 -0.984375 -1.21875q-0.359375 -0.71875 -0.359375 -1.65625q0 -0.65625 0.203125 -1.203125q0.1875 -0.546875 0.609375 -0.9375q0.40625 -0.40625 1.0625 -0.625q0.65625 -0.21875 1.578125 -0.21875l6.578125 0l0 2.625l-6.28125 0q-0.671875 0 -1.03125 0.1875q-0.375 0.171875 -0.515625 0.515625q-0.15625 0.328125 -0.15625 0.78125q0 0.515625 0.21875 0.890625q0.203125 0.375 0.578125 0.625q0.359375 0.25 0.859375 0.375q0.484375 0.109375 1.046875 0.109375zm-0.296875 -5.859375l0.125 0.9375q-0.96875 0 -1.796875 -0.234375q-0.828125 -0.25 -1.453125 -0.71875q-0.640625 -0.484375 -0.984375 -1.1875q-0.34375 -0.71875 -0.34375 -1.65625q0 -0.703125 0.203125 -1.28125q0.203125 -0.59375 0.640625 -1.0q0.4375 -0.421875 1.15625 -0.640625q0.703125 -0.234375 1.734375 -0.234375l6.296875 0l0 2.640625l-6.296875 0q-0.6875 0 -1.046875 0.1875q-0.359375 0.171875 -0.5 0.5q-0.140625 0.328125 -0.140625 0.78125q0 0.484375 0.1875 0.84375q0.1875 0.34375 0.515625 0.59375q0.328125 0.234375 0.765625 0.359375q0.4375 0.109375 0.9375 0.109375zm-2.390625 -10.660248l11.765625 0l0 2.625l-13.65625 0l0 -2.4375l1.890625 -0.1875zm2.9375 -6.25l0.1875 0q1.078125 0 2.0 0.265625q0.90625 0.25 1.59375 0.734375q0.671875 0.46875 1.0625 1.1875q0.375 0.71875 0.375 1.640625q0 0.90625 -0.359375 1.578125q-0.375 0.65625 -1.03125 1.109375q-0.671875 0.453125 -1.53125 0.734375q-0.875 0.265625 -1.890625 0.40625l-0.5 0q-1.0625 -0.140625 -1.953125 -0.40625q-0.90625 -0.28125 -1.5625 -0.734375q-0.671875 -0.453125 -1.03125 -1.109375q-0.359375 -0.65625 -0.359375 -1.5625q0 -0.9375 0.359375 -1.640625q0.34375 -0.71875 1.015625 -1.203125q0.65625 -0.484375 1.578125 -0.734375q0.921875 -0.265625 2.046875 -0.265625zm0.1875 2.640625l-0.1875 0q-0.640625 0 -1.171875 0.109375q-0.53125 0.09375 -0.921875 0.328125q-0.40625 0.21875 -0.625 0.578125q-0.234375 0.359375 -0.234375 0.875q0 0.53125 0.171875 0.90625q0.171875 0.375 0.5 0.625q0.328125 0.234375 0.796875 0.359375q0.453125 0.109375 1.015625 0.140625l1.265625 0q0.6875 -0.046875 1.21875 -0.25q0.53125 -0.21875 0.84375 -0.65625q0.296875 -0.4375 0.296875 -1.15625q0 -0.515625 -0.21875 -0.859375q-0.234375 -0.359375 -0.640625 -0.578125q-0.421875 -0.234375 -0.953125 -0.328125q-0.546875 -0.09375 -1.15625 -0.09375zm2.625 -9.587891l-4.390625 0q-0.484375 0 -0.8125 0.15625q-0.34375 0.15625 -0.53125 0.484375q-0.203125 0.3125 -0.203125 0.828125q0 0.4375 0.15625 0.765625q0.140625 0.3125 0.421875 0.484375q0.28125 0.171875 0.65625 0.171875l0 2.625q-0.625 0 -1.1875 -0.28125q-0.578125 -0.296875 -1.0 -0.84375q-0.4375 -0.5625 -0.671875 -1.328125q-0.25 -0.78125 -0.25 -1.734375q0 -1.15625 0.375 -2.046875q0.375 -0.890625 1.140625 -1.40625q0.765625 -0.515625 1.921875 -0.515625l4.21875 0q0.8125 0 1.328125 -0.09375q0.515625 -0.109375 0.890625 -0.296875l0.15625 0l0 2.65625q-0.40625 0.1875 -1.0 0.28125q-0.609375 0.09375 -1.21875 0.09375zm-3.78125 -0.34375l1.484375 -0.015625l0 1.46875q0 0.515625 0.125 0.90625q0.109375 0.375 0.328125 0.625q0.203125 0.234375 0.5 0.359375q0.28125 0.109375 0.609375 0.109375q0.34375 0 0.609375 -0.15625q0.265625 -0.15625 0.421875 -0.4375q0.140625 -0.296875 0.140625 -0.6875q0 -0.59375 -0.234375 -1.03125q-0.234375 -0.4375 -0.578125 -0.671875q-0.34375 -0.25 -0.65625 -0.265625l1.109375 -0.6875q0.375 0.15625 0.78125 0.40625q0.390625 0.25 0.75 0.640625q0.34375 0.375 0.578125 0.90625q0.21875 0.53125 0.21875 1.28125q0 0.9375 -0.375 1.703125q-0.390625 0.75 -1.046875 1.203125q-0.671875 0.4375 -1.53125 0.4375q-0.78125 0 -1.375 -0.296875q-0.609375 -0.296875 -1.015625 -0.859375q-0.421875 -0.578125 -0.625 -1.421875q-0.21875 -0.859375 -0.21875 -2.0l0 -1.515625zm-1.75 -6.890259l7.75 0l0 2.625l-9.859375 0l0 -2.453125l2.109375 -0.171875zm2.46875 0.390625l0 0.703125q-1.09375 0 -1.96875 -0.28125q-0.875 -0.28125 -1.5 -0.78125q-0.625 -0.515625 -0.953125 -1.21875q-0.328125 -0.71875 -0.328125 -1.59375q0 -0.6875 0.203125 -1.25q0.1875 -0.578125 0.625 -0.984375q0.4375 -0.421875 1.15625 -0.640625q0.71875 -0.234375 1.765625 -0.234375l6.28125 0l0 2.640625l-6.296875 0q-0.65625 0 -1.015625 0.1875q-0.359375 0.171875 -0.515625 0.53125q-0.15625 0.34375 -0.15625 0.859375q0 0.53125 0.21875 0.921875q0.203125 0.375 0.578125 0.625q0.359375 0.25 0.859375 0.390625q0.484375 0.125 1.046875 0.125zm4.171875 -11.192078l-8.75 -2.625l0 -2.8125l11.34375 3.96875q0.375 0.125 0.796875 0.34375q0.4375 0.203125 0.8125 0.5625q0.390625 0.359375 0.640625 0.90625q0.25 0.546875 0.25 1.328125q0 0.375 -0.046875 0.609375q-0.046875 0.234375 -0.125 0.5625l-1.921875 0q0 -0.09375 0 -0.203125q0 -0.109375 0 -0.21875q0 -0.515625 -0.125 -0.84375q-0.109375 -0.328125 -0.359375 -0.53125q-0.234375 -0.203125 -0.609375 -0.3125l-1.90625 -0.734375zm-8.75 1.09375l7.140625 -2.140625l2.78125 -0.375l0.1875 1.78125l-10.109375 3.546875l0 -2.8125zm7.09375 -17.153625l-10.5 -3.125l0 -3.046875l13.265625 4.625l0 2.0l-2.765625 -0.453125zm-10.5 2.875l10.5 -3.109375l2.765625 -0.46875l0 2.015625l-13.265625 4.59375l0 -3.03125zm11.046875 -15.019241l-4.390625 0q-0.484375 0 -0.8125 0.15625q-0.34375 0.15625 -0.53125 0.484375q-0.203125 0.3125 -0.203125 0.828125q0 0.4375 0.15625 0.765625q0.140625 0.3125 0.421875 0.484375q0.28125 0.171875 0.65625 0.171875l0 2.625q-0.625 0 -1.1875 -0.28125q-0.578125 -0.296875 -1.0 -0.84375q-0.4375 -0.5625 -0.671875 -1.328125q-0.25 -0.78125 -0.25 -1.734375q0 -1.15625 0.375 -2.046875q0.375 -0.890625 1.140625 -1.40625q0.765625 -0.515625 1.921875 -0.515625l4.21875 0q0.8125 0 1.328125 -0.09375q0.515625 -0.109375 0.890625 -0.296875l0.15625 0l0 2.65625q-0.40625 0.1875 -1.0 0.28125q-0.609375 0.09375 -1.21875 0.09375zm-3.78125 -0.34375l1.484375 -0.015625l0 1.46875q0 0.515625 0.125 0.90625q0.109375 0.375 0.328125 0.625q0.203125 0.234375 0.5 0.359375q0.28125 0.109375 0.609375 0.109375q0.34375 0 0.609375 -0.15625q0.265625 -0.15625 0.421875 -0.4375q0.140625 -0.296875 0.140625 -0.6875q0 -0.59375 -0.234375 -1.03125q-0.234375 -0.4375 -0.578125 -0.671875q-0.34375 -0.25 -0.65625 -0.265625l1.109375 -0.6875q0.375 0.15625 0.78125 0.40625q0.390625 0.25 0.75 0.640625q0.34375 0.375 0.578125 0.90625q0.21875 0.53125 0.21875 1.28125q0 0.9375 -0.375 1.703125q-0.390625 0.75 -1.046875 1.203125q-0.671875 0.4375 -1.53125 0.4375q-0.78125 0 -1.375 -0.296875q-0.609375 -0.296875 -1.015625 -0.859375q-0.421875 -0.578125 -0.625 -1.421875q-0.21875 -0.859375 -0.21875 -2.0l0 -1.515625zm-8.0 -7.0933914l14.0 0l0 2.6406326l-14.0 0l0 -2.6406326zm11.640625 -7.9842224l-7.5 0l0 -2.625l9.859375 0l0 2.46875l-2.359375 0.15625zm-2.015625 -0.296875l-0.03125 -0.78125q0.984375 0 1.828125 0.234375q0.84375 0.234375 1.46875 0.6875q0.609375 0.453125 0.953125 1.140625q0.34375 0.6875 0.34375 1.625q0 0.734375 -0.203125 1.34375q-0.21875 0.59375 -0.65625 1.03125q-0.4375 0.421875 -1.125 0.671875q-0.703125 0.234375 -1.6875 0.234375l-6.375 0l0 -2.625l6.390625 0q0.4375 0 0.734375 -0.09375q0.296875 -0.109375 0.5 -0.296875q0.1875 -0.1875 0.265625 -0.453125q0.078125 -0.265625 0.078125 -0.578125q0 -0.8125 -0.328125 -1.28125q-0.328125 -0.46875 -0.890625 -0.65625q-0.578125 -0.203125 -1.265625 -0.203125zm2.15625 -9.651718l-4.390625 0q-0.484375 0 -0.8125 0.15625q-0.34375 0.15625 -0.53125 0.484375q-0.203125 0.3125 -0.203125 0.828125q0 0.4375 0.15625 0.765625q0.140625 0.3125 0.421875 0.484375q0.28125 0.171875 0.65625 0.171875l0 2.625q-0.625 0 -1.1875 -0.28125q-0.578125 -0.296875 -1.0 -0.84375q-0.4375 -0.5625 -0.671875 -1.328125q-0.25 -0.78125 -0.25 -1.734375q0 -1.15625 0.375 -2.046875q0.375 -0.890625 1.140625 -1.40625q0.765625 -0.515625 1.921875 -0.515625l4.21875 0q0.8125 0 1.328125 -0.09375q0.515625 -0.109375 0.890625 -0.296875l0.15625 0l0 2.65625q-0.40625 0.1875 -1.0 0.28125q-0.609375 0.09375 -1.21875 0.09375zm-3.78125 -0.34375l1.484375 -0.015625l0 1.46875q0 0.515625 0.125 0.90625q0.109375 0.375 0.328125 0.625q0.203125 0.234375 0.5 0.359375q0.28125 0.109375 0.609375 0.109375q0.34375 0 0.609375 -0.15625q0.265625 -0.15625 0.421875 -0.4375q0.140625 -0.296875 0.140625 -0.6875q0 -0.59375 -0.234375 -1.03125q-0.234375 -0.4375 -0.578125 -0.671875q-0.34375 -0.25 -0.65625 -0.265625l1.109375 -0.6875q0.375 0.15625 0.78125 0.40625q0.390625 0.25 0.75 0.640625q0.34375 0.375 0.578125 0.90625q0.21875 0.53125 0.21875 1.28125q0 0.9375 -0.375 1.703125q-0.390625 0.75 -1.046875 1.203125q-0.671875 0.4375 -1.53125 0.4375q-0.78125 0 -1.375 -0.296875q-0.609375 -0.296875 -1.015625 -0.859375q-0.421875 -0.578125 -0.625 -1.421875q-0.21875 -0.859375 -0.21875 -2.0l0 -1.515625zm-3.859375 -9.140259l1.859375 0l0 5.734375l-1.859375 0l0 -5.734375zm-2.421875 4.3125l0 -2.625l9.3125 0q0.421875 0 0.65625 -0.109375q0.21875 -0.109375 0.3125 -0.34375q0.09375 -0.234375 0.09375 -0.578125q0 -0.234375 -0.015625 -0.4375q-0.03125 -0.203125 -0.0625 -0.328125l1.9375 -0.015625q0.09375 0.34375 0.15625 0.734375q0.078125 0.390625 0.078125 0.859375q0 0.875 -0.28125 1.515625q-0.296875 0.640625 -0.9375 0.984375q-0.640625 0.34375 -1.671875 0.34375l-9.578125 0zm2.421875 -8.578506l9.859375 0l0 2.640625l-9.859375 0l0 -2.640625zm-2.5625 2.796875q-0.578125 0 -0.953125 -0.390625q-0.375 -0.40625 -0.375 -1.078125q0 -0.671875 0.375 -1.0625q0.375 -0.40625 0.953125 -0.40625q0.578125 0 0.953125 0.40625q0.359375 0.390625 0.359375 1.0625q0 0.671875 -0.359375 1.078125q-0.375 0.390625 -0.953125 0.390625zm7.59375 -4.5310974l-0.1875 0q-1.09375 0 -2.0 -0.3125q-0.921875 -0.3125 -1.59375 -0.90625q-0.671875 -0.59375 -1.046875 -1.453125q-0.375 -0.875 -0.375 -1.984375q0 -1.125 0.375 -2.0q0.375 -0.875 1.046875 -1.46875q0.671875 -0.59375 1.59375 -0.90625q0.90625 -0.3125 2.0 -0.3125l0.1875 0q1.078125 0 2.0 0.3125q0.90625 0.3125 1.59375 0.90625q0.671875 0.59375 1.046875 1.46875q0.375 0.859375 0.375 1.96875q0 1.125 -0.375 2.0q-0.375 0.875 -1.046875 1.46875q-0.6875 0.59375 -1.59375 0.90625q-0.921875 0.3125 -2.0 0.3125zm-0.1875 -2.625l0.1875 0q0.625 0 1.15625 -0.109375q0.53125 -0.109375 0.9375 -0.34375q0.40625 -0.25 0.640625 -0.640625q0.21875 -0.390625 0.21875 -0.96875q0 -0.546875 -0.21875 -0.9375q-0.234375 -0.390625 -0.640625 -0.625q-0.40625 -0.234375 -0.9375 -0.34375q-0.53125 -0.125 -1.15625 -0.125l-0.1875 0q-0.609375 0 -1.140625 0.125q-0.53125 0.109375 -0.9375 0.359375q-0.421875 0.234375 -0.65625 0.625q-0.234375 0.390625 -0.234375 0.953125q0 0.546875 0.234375 0.9375q0.234375 0.390625 0.65625 0.640625q0.40625 0.234375 0.9375 0.34375q0.53125 0.109375 1.140625 0.109375zm-2.734375 -10.905579l7.75 0l0 2.625l-9.859375 0l0 -2.453125l2.109375 -0.171875zm2.46875 0.390625l0 0.703125q-1.09375 0 -1.96875 -0.28125q-0.875 -0.28125 -1.5 -0.78125q-0.625 -0.515625 -0.953125 -1.21875q-0.328125 -0.71875 -0.328125 -1.59375q0 -0.6875 0.203125 -1.25q0.1875 -0.578125 0.625 -0.984375q0.4375 -0.421875 1.15625 -0.640625q0.71875 -0.234375 1.765625 -0.234375l6.28125 0l0 2.640625l-6.296875 0q-0.65625 0 -1.015625 0.1875q-0.359375 0.171875 -0.515625 0.53125q-0.15625 0.34375 -0.15625 0.859375q0 0.53125 0.21875 0.921875q0.203125 0.375 0.578125 0.625q0.359375 0.25 0.859375 0.390625q0.484375 0.125 1.046875 0.125z" fill-rule="nonzero"/><path fill="#000000" fill-opacity="0.0" d="m228.74492 112.431465c-1.3453217 -6.717987 3.0096283 -13.256859 9.727051 -14.604988l48.650436 -9.7636795c3.22583 -0.6473923 6.576172 0.013290405 9.313995 1.8367081c2.7378235 1.8234177 4.638855 4.660202 5.2848816 7.8862915l29.616364 147.89249c1.3453369 6.717987 -3.009613 13.256866 -9.727051 14.60498l-48.65042 9.763702c-6.7174377 1.348114 -13.253571 -3.0050354 -14.598907 -9.723022z" fill-rule="evenodd"/><path stroke="#ffffff" stroke-width="8.0" stroke-linejoin="round" stroke-linecap="butt" d="m228.74492 112.431465c-1.3453217 -6.717987 3.0096283 -13.256859 9.727051 -14.604988l48.650436 -9.7636795c3.22583 -0.6473923 6.576172 0.013290405 9.313995 1.8367081c2.7378235 1.8234177 4.638855 4.660202 5.2848816 7.8862915l29.616364 147.89249c1.3453369 6.717987 -3.009613 13.256866 -9.727051 14.60498l-48.65042 9.763702c-6.7174377 1.348114 -13.253571 -3.0050354 -14.598907 -9.723022z" fill-rule="evenodd"/><path fill="#000000" fill-opacity="0.0" d="m267.75418 239.43993l-53.984253 -269.48032l47.811035 -9.543306l53.984253 269.48032z" fill-rule="evenodd"/><path fill="#ffffff" d="m286.32132 217.50624l-0.5340271 -2.6657867q1.3330994 -0.18643188 2.488617 0.25212097q1.137146 0.4262848 1.949585 1.4591064q0.7940674 1.0205536 1.1132507 2.6139069q0.25167847 1.2562866 0.022125244 2.3377533q-0.24484253 1.084549 -0.9157715 1.9513855q-0.67401123 0.851532 -1.7495422 1.4486084q-1.0755615 0.5970917 -2.5158997 0.8845825l-0.9040222 0.18045044q-1.4250183 0.2844391 -2.6509705 0.1308136q-1.2412415 -0.15057373 -2.194519 -0.69322205q-0.9533081 -0.5426483 -1.5818176 -1.4528503q-0.64385986 -0.907135 -0.8894043 -2.132782q-0.32531738 -1.6239929 0.048217773 -2.861679q0.35821533 -1.2346191 1.2774048 -2.05542q0.90078735 -0.83306885 2.1940002 -1.2186584l0.53707886 2.6811066q-0.7752991 0.18661499 -1.271698 0.5724945q-0.49942017 0.3705597 -0.6647644 0.9771576q-0.16836548 0.5912628 0.009643555 1.4798584q0.13504028 0.67411804 0.48147583 1.1307526q0.3433838 0.44132996 0.9349365 0.6897125q0.57318115 0.23612976 1.3883972 0.24867249q0.79681396 2.746582E-4 1.8234558 -0.20463562l0.91934204 -0.18351746q1.011322 -0.20185852 1.7467651 -0.5079956q0.7354431 -0.30612183 1.1950378 -0.7165222q0.45651245 -0.4257202 0.61572266 -0.9832916q0.1592102 -0.55758667 0.014953613 -1.2776489q-0.16574097 -0.8273163 -0.5336304 -1.3115387q-0.37097168 -0.4995575 -0.95028687 -0.6866455q-0.5946045 -0.18405151 -1.403656 -0.08628845zm-1.1847839 -3.7664337l-0.18386841 0.036712646q-1.0725708 0.21409607 -2.0226746 0.08506775q-0.9654236 -0.1259613 -1.7409363 -0.57662964q-0.7755127 -0.45066833 -1.3120422 -1.2198944q-0.53964233 -0.7845459 -0.75753784 -1.8723145q-0.22097778 -1.1030884 -0.025115967 -2.034439q0.19589233 -0.93136597 0.73812866 -1.6450653q0.54226685 -0.71369934 1.3849182 -1.2005615q0.82733154 -0.48379517 1.8999329 -0.69789124l0.18386841 -0.036697388q1.057251 -0.21104431 2.022705 -0.08508301q0.95007324 0.12902832 1.7409058 0.57662964q0.7755127 0.45066833 1.3151245 1.2352142q0.53656006 0.76924133 0.75445557 1.8569946q0.22097778 1.1030884 0.025115967 2.034439q-0.19589233 0.93136597 -0.73812866 1.6450653q-0.55758667 0.7167511 -1.3849182 1.2005615q-0.84265137 0.48686218 -1.8999329 0.69789124zm-0.6994629 -2.5371552l0.18386841 -0.036697388q0.61291504 -0.12234497 1.1123962 -0.3335724q0.4994812 -0.21124268 0.85183716 -0.52056885q0.34927368 -0.324646 0.5024109 -0.75354004q0.13778687 -0.4258423 0.024230957 -0.99269104q-0.107421875 -0.53622437 -0.39868164 -0.87641907q-0.3065796 -0.33714294 -0.7510071 -0.48742676q-0.4444275 -0.15029907 -0.98687744 -0.1535492q-0.5455322 -0.018569946 -1.1584167 0.103759766l-0.18389893 0.036712646q-0.5975647 0.119277954 -1.0939941 0.3458252q-0.4994812 0.21124268 -0.8487854 0.5358887q-0.36767578 0.3123932 -0.5207825 0.741272q-0.15310669 0.42889404 -0.042633057 0.98043823q0.107421875 0.53622437 0.41400146 0.8733673q0.3065796 0.3371277 0.76937866 0.49967957q0.4444275 0.15028381 0.98690796 0.1535492q0.54244995 0.003250122 1.1400452 -0.11602783zm-4.8236084 -10.157883l7.600067 -1.5170135l0.515625 2.5738525l-9.668671 1.9299164l-0.48184204 -2.4053345l2.0348206 -0.5814209zm2.4977112 -0.100234985l0.13812256 0.6894226q-1.0726013 0.21409607 -1.9859314 0.10960388q-0.91329956 -0.10449219 -1.6244202 -0.4724121q-0.7142029 -0.38323975 -1.1740723 -1.0084381q-0.46298218 -0.6405182 -0.6348572 -1.4984741q-0.13504028 -0.6741028 -0.046325684 -1.2654114q0.0703125 -0.6035614 0.41955566 -1.0875397q0.3461609 -0.4992981 1.0080566 -0.8544769q0.6588135 -0.37049866 1.6854248 -0.57540894l6.159729 -1.2295227l0.5187073 2.5891876l-6.1750793 1.2325745q-0.6435547 0.12844849 -0.95913696 0.38264465q-0.31866455 0.23887634 -0.40130615 0.6218262q-0.08569336 0.36764526 0.015563965 0.87323q0.10437012 0.5208893 0.39559937 0.861084q0.27285767 0.3279419 0.6897278 0.4996643q0.40151978 0.17478943 0.9194641 0.21479797q0.49957275 0.027755737 1.051178 -0.082351685zm-0.15811157 -13.835007q-0.27581787 0.05505371 -0.4718933 0.26945496q-0.19915771 0.19908142 -0.29708862 0.6647644q-0.11325073 0.46873474 -0.1038208 1.3113098q-0.021240234 0.7690277 -0.14056396 1.4461212q-0.11932373 0.67707825 -0.36434937 1.2039795q-0.26034546 0.52996826 -0.683197 0.8852234q-0.43814087 0.35832214 -1.0510559 0.4806671q-0.5975647 0.119277954 -1.1860352 -0.034118652q-0.588501 -0.15341187 -1.1004028 -0.56108093q-0.5303345 -0.4199524 -0.90441895 -1.0941467q-0.37408447 -0.6741791 -0.5551758 -1.5780945q-0.25164795 -1.2563019 -0.034362793 -2.2397308q0.21731567 -0.9834442 0.8239441 -1.6143951q0.60665894 -0.63093567 1.4953613 -0.80833435l0.515625 2.5738678q-0.38308716 0.07646179 -0.64352417 0.2877655q-0.27575684 0.21438599 -0.37677002 0.585083q-0.10409546 0.3553772 2.4414062E-4 0.8762665q0.0859375 0.4289856 0.30361938 0.72013855q0.19927979 0.2788849 0.47821045 0.39846802q0.2758484 0.104278564 0.5669861 0.046157837q0.22982788 -0.04586792 0.37997437 -0.17144775q0.15014648 -0.12556458 0.2604065 -0.370636q0.09490967 -0.24201965 0.1499939 -0.6035309q0.051971436 -0.3768463 0.042633057 -0.9007721q0.0058288574 -1.0846252 0.19250488 -1.9822845q0.17138672 -0.8945923 0.6584778 -1.4857635q0.48406982 -0.60647583 1.434082 -0.7960968q0.6435547 -0.12846375 1.2381592 0.05558777q0.5946045 0.18403625 1.1004333 0.6407318q0.50579834 0.45671082 0.88601685 1.1615448q0.36184692 0.6925659 0.54907227 1.627121q0.27008057 1.3482208 -0.017700195 2.3775787q-0.3031311 1.0324402 -0.95880127 1.6572418q-0.65567017 0.62480164 -1.4371338 0.78079224l-0.48797607 -2.4359894q0.5178833 -0.11930847 0.7875061 -0.443985q0.2695923 -0.3246765 0.34301758 -0.7536011q0.05810547 -0.42585754 -0.033966064 -0.8854828q-0.09820557 -0.49024963 -0.30361938 -0.79977417q-0.20544434 -0.3095398 -0.46902466 -0.43217468q-0.27893066 -0.11959839 -0.5853882 -0.058425903zm-1.6281738 -9.957108l-7.3549194 1.4680786l-0.5155945 -2.5738678l9.66864 -1.9299011l0.48492432 2.4206543l-2.2830505 0.615036zm-2.0349426 0.10345459l-0.18411255 -0.7599182q0.96533203 -0.19268799 1.8388062 -0.1280365q0.8734741 0.06465149 1.5753784 0.38661194q0.6865845 0.3250122 1.1587524 0.931839q0.47213745 0.6068268 0.6562805 1.526062q0.14425659 0.72006226 0.0647583 1.3573303q-0.09790039 0.625 -0.44100952 1.1396179q-0.3461609 0.49928284 -0.97125244 0.8789978q-0.64349365 0.36743164 -1.6088257 0.5601196l-6.2516785 1.2478638l-0.515625 -2.5738525l6.2669983 -1.2509308q0.42904663 -0.085632324 0.7017517 -0.235672q0.26965332 -0.1653595 0.43203735 -0.3889618q0.14703369 -0.22055054 0.17147827 -0.4962921q0.02444458 -0.27574158 -0.036956787 -0.5821533q-0.15957642 -0.79667664 -0.5734253 -1.1920624q-0.4138794 -0.39538574 -1.0023193 -0.46913147q-0.60684204 -0.085998535 -1.2810364 0.048568726zm-10.834381 -5.0823975l13.729187 -2.7404175l0.51867676 2.5891876l-13.729187 2.7404022l-0.51867676 -2.5891724zm2.6886597 -7.658661l1.8233948 -0.3639679l1.1263733 5.6226654l-1.8233948 0.36395264l-1.1263733 -5.62265zm-1.5279541 4.702545l-0.5155945 -2.5738525l9.132355 -1.822876q0.4136963 -0.08256531 0.6220703 -0.23568726q0.19302368 -0.15007019 0.23892212 -0.39822388q0.045898438 -0.24816895 -0.021606445 -0.58522034q-0.046051025 -0.22981262 -0.101257324 -0.42591858q-0.07055664 -0.1930542 -0.12576294 -0.30949402l1.8969421 -0.39457703q0.15948486 0.31869507 0.29748535 0.68948364q0.15335083 0.36772156 0.24542236 0.8273468q0.171875 0.85795593 0.021911621 1.541153q-0.16531372 0.6862488 -0.7260132 1.1486969q-0.56073 0.46244812 -1.5720215 0.6643219l-9.392853 1.8748474zm0.69000244 -8.885452l9.66864 -1.9299011l0.5187073 2.5891724l-9.668671 1.9299164l-0.51867676 -2.5891876zm-1.963562 3.243988q-0.56692505 0.11315918 -1.0114136 -0.19645691q-0.44754028 -0.3249359 -0.5794983 -0.9837189q-0.13198853 -0.65878296 0.1590271 -1.1152039q0.28796387 -0.47174072 0.8548889 -0.5848999q0.56695557 -0.11315918 1.0144958 0.21176147q0.42913818 0.31266785 0.5611267 0.97146606q0.13195801 0.65878296 -0.14065552 1.1274567q-0.29101562 0.4564209 -0.8579712 0.56959534zm3.1022034 -8.298874l7.6000977 -1.5170135l0.515625 2.5738525l-9.668671 1.9299164l-0.48184204 -2.4053345l2.03479 -0.5814209zm2.4977417 -0.100234985l0.13809204 0.68943787q-1.0725708 0.21408081 -1.9859009 0.10958862q-0.91329956 -0.10449219 -1.6244507 -0.4724121q-0.71417236 -0.38323975 -1.1740723 -1.0084381q-0.46295166 -0.6405182 -0.63482666 -1.4984741q-0.13504028 -0.6741028 -0.046325684 -1.2654114q0.0703125 -0.6035614 0.41955566 -1.0875397q0.3461609 -0.4992981 1.0080566 -0.8544769q0.65878296 -0.37049866 1.6854248 -0.57540894l6.159729 -1.2295227l0.51867676 2.5891876l-6.175049 1.2325745q-0.6435547 0.12844849 -0.95913696 0.38264465q-0.31866455 0.23887634 -0.40130615 0.62184143q-0.08572388 0.36763 0.015563965 0.8732147q0.1043396 0.52090454 0.39559937 0.86109924q0.27285767 0.32792664 0.68969727 0.49964905q0.4015503 0.17478943 0.9194946 0.21479797q0.49954224 0.027755737 1.051178 -0.082351685zm-7.3417053 -13.341187l-0.4664917 -2.3287354l9.346863 -1.8656769q1.317749 -0.263031 2.3568115 0.1509552q1.0513306 0.39561462 1.7350159 1.3426056q0.6837158 0.94699097 0.9599304 2.3258514q0.12277222 0.6128235 0.089263916 1.3205719q-0.018188477 0.7046814 -0.23251343 1.3847961q-0.21432495 0.68011475 -0.6524353 1.1977539l-1.7440796 -0.8309326q0.43197632 -0.5482788 0.60647583 -1.1885834q0.17144775 -0.65560913 0.027191162 -1.3756714q-0.14117432 -0.7047577 -0.49682617 -1.1277008q-0.34335327 -0.44132996 -0.8828125 -0.5885773q-0.54248047 -0.1625824 -1.2320251 -0.02494812l-7.125061 1.4221954l-2.2893066 0.18609619zm6.2536316 5.523361l-0.18386841 0.036697388q-1.103241 0.22021484 -2.0625305 0.12489319q-0.9746094 -0.09225464 -1.7194519 -0.4693756q-0.76013184 -0.3740692 -1.2568054 -1.0237885q-0.49667358 -0.6497345 -0.68081665 -1.5689697q-0.19335938 -0.9651947 0.030151367 -1.6790009q0.22045898 -0.72914124 0.79644775 -1.2743073q0.5760193 -0.545166 1.4187012 -0.9523773q0.8396301 -0.42251587 1.8692627 -0.7714386l0.39837646 -0.07952881q1.0389404 -0.063964844 1.9675903 0.037475586q0.9102478 0.08917236 1.6581116 0.40194702q0.7294922 0.30052185 1.2261353 0.8705902q0.48135376 0.5731201 0.66241455 1.4770355q0.17800903 0.8885956 -0.04547119 1.6820679q-0.22351074 0.7934723 -0.7810974 1.4305573q-0.5576172 0.6371002 -1.3910828 1.090271q-0.8487854 0.45622253 -1.9060669 0.6672516zm-0.6994934 -2.5371552l0.18389893 -0.036712646q0.5975647 -0.119277954 1.0970764 -0.33050537q0.49639893 -0.2265625 0.8457031 -0.5512085q0.34927368 -0.324646 0.49014282 -0.73516846q0.13778687 -0.42582703 0.036499023 -0.93141174q-0.14117432 -0.70474243 -0.5213318 -1.0909271q-0.39544678 -0.38313293 -0.9593811 -0.49363708q-0.5823364 -0.12275696 -1.2657471 -0.03414917l-1.1798401 0.23550415q-0.5638733 0.12849426 -0.98062134 0.35507202q-0.41674805 0.22657776 -0.6894226 0.53593445q-0.27572632 0.29403687 -0.38287354 0.7137604q-0.10714722 0.41970825 2.746582E-4 0.9559326q0.10128784 0.5055847 0.40478516 0.82740784q0.3034973 0.32180786 0.75405884 0.5027466q0.43218994 0.1686554 0.993042 0.18417358q0.56085205 0.0155181885 1.1737366 -0.10681152z" fill-rule="nonzero"/></g></svg>