<svg xmlns="http://www.w3.org/2000/svg" viewBox="0 0 2064.259406 404.826237" fill="#ffffff">
<g transform="translate(-90.740594,482.975375) scale(0.100000,-0.100000)" fill="#ffffff" stroke="none">
<path d="M3336 4818 c-120 -7 -167 -13 -195 -27 -20 -10 -61 -21 -91 -25 -30
-4 -62 -14 -72 -23 -9 -8 -36 -19 -60 -25 -24 -5 -52 -17 -63 -27 -11 -10 -37
-22 -57 -25 -21 -4 -43 -15 -50 -25 -7 -10 -29 -22 -48 -26 -19 -4 -46 -16
-60 -27 -83 -63 -104 -78 -113 -78 -5 0 -20 -10 -32 -22 -12 -13 -48 -45 -79
-73 -169 -148 -886 -871 -886 -893 0 -24 109 -134 1222 -1239 190 -189 349
-343 355 -343 5 0 24 -14 41 -30 18 -17 38 -30 45 -30 8 0 22 -9 31 -19 10
-10 38 -22 64 -26 26 -4 62 -16 80 -27 49 -30 293 -30 351 0 22 12 55 24 74
27 20 4 43 15 53 26 9 10 31 21 49 25 20 3 53 25 84 55 28 27 56 49 61 49 5 0
12 9 15 20 3 11 10 20 14 20 5 0 26 18 47 40 22 22 44 45 50 51 10 11 175 175
203 203 6 6 40 40 76 75 36 35 65 68 65 72 0 25 37 -7 220 -191 184 -185 215
-220 192 -220 -7 0 -87 -78 -187 -180 -109 -112 -326 -320 -334 -320 -6 0 -11
-4 -11 -10 0 -5 -17 -21 -37 -35 -21 -13 -56 -38 -78 -55 -22 -16 -56 -37 -75
-46 -19 -9 -45 -25 -59 -35 -13 -10 -32 -19 -42 -19 -10 0 -26 -8 -36 -19 -10
-10 -38 -22 -63 -26 -25 -4 -59 -16 -76 -26 -21 -13 -65 -23 -125 -29 -52 -5
-121 -17 -154 -26 -63 -17 -125 -14 -222 11 -28 7 -89 17 -135 20 -61 6 -89
12 -104 27 -12 10 -42 21 -70 24 -30 4 -55 13 -64 24 -8 10 -32 22 -53 25 -21
4 -42 15 -47 25 -5 10 -22 21 -36 24 -56 15 -115 70 -1017 966 -777 772 -743
740 -770 740 -40 0 -197 -169 -197 -213 0 -10 -6 -33 -14 -51 -13 -31 -12 -41
7 -103 l21 -68 718 -718 c394 -395 736 -733 760 -752 71 -57 91 -74 142 -120
26 -24 65 -50 84 -56 20 -7 45 -23 55 -36 10 -12 29 -23 41 -23 13 0 31 -9 40
-19 10 -11 31 -23 47 -26 15 -4 38 -14 51 -24 13 -10 41 -21 63 -25 22 -4 54
-16 70 -26 17 -10 55 -22 85 -26 30 -3 71 -16 90 -28 54 -33 676 -33 730 0 19
12 60 24 90 28 30 3 66 14 80 24 14 10 44 22 67 25 23 4 59 18 79 32 20 14 47
25 59 25 12 0 30 9 40 20 10 11 24 20 31 20 7 0 25 11 41 24 16 14 41 28 56
31 15 4 31 13 35 20 9 17 64 57 115 85 21 12 235 217 475 457 240 239 445 439
454 444 10 5 18 18 18 29 0 12 -289 307 -790 807 -822 819 -824 821 -880 847
-19 9 -46 23 -60 31 -14 8 -35 15 -46 15 -12 0 -34 10 -50 23 -43 33 -334 34
-377 0 -15 -12 -46 -24 -68 -28 -42 -7 -95 -35 -133 -70 -12 -11 -34 -25 -48
-32 -14 -6 -141 -125 -283 -265 -141 -139 -263 -254 -270 -256 -8 -2 -63 45
-123 105 -60 59 -146 143 -191 187 -44 43 -81 81 -81 85 0 14 611 610 632 617
13 3 35 16 50 28 15 11 41 31 56 43 16 12 42 25 58 29 16 4 38 15 49 25 11 10
40 21 65 24 25 4 57 16 72 26 18 12 57 22 110 28 46 5 100 16 120 25 55 23
227 22 299 -3 30 -10 92 -21 138 -25 59 -5 92 -13 109 -26 13 -11 43 -22 68
-26 27 -4 50 -14 58 -26 8 -11 29 -22 47 -24 19 -3 44 -16 57 -30 13 -13 29
-24 36 -24 7 0 21 -9 31 -20 10 -11 25 -20 33 -20 8 0 37 -22 64 -50 27 -27
51 -50 53 -50 2 0 356 -351 785 -781 762 -762 783 -781 813 -775 18 3 38 14
45 24 33 45 68 82 80 82 7 0 17 11 22 24 5 13 16 29 26 34 45 25 45 262 -1
262 -8 0 -15 5 -15 10 0 13 -1529 1540 -1541 1540 -5 0 -16 11 -25 25 -9 14
-22 25 -29 25 -8 0 -27 11 -43 25 -17 14 -35 25 -40 25 -6 0 -23 11 -39 24
-16 14 -43 28 -59 32 -16 4 -35 15 -42 26 -7 10 -31 21 -53 24 -23 4 -44 14
-49 24 -6 11 -27 21 -52 25 -24 4 -52 15 -63 25 -11 10 -45 21 -79 25 -32 4
-75 15 -95 25 -31 17 -346 46 -405 39 -6 -1 -82 -6 -170 -11z m354 -1505 c10
-13 21 -23 24 -23 9 0 486 -481 486 -491 0 -4 -7 -14 -15 -21 -9 -7 -66 -64
-128 -127 -171 -174 -189 -191 -197 -191 -4 0 -12 -11 -18 -25 -6 -14 -18 -25
-25 -25 -8 0 -19 -11 -25 -25 -6 -14 -18 -25 -25 -25 -8 0 -19 -11 -25 -25 -6
-14 -17 -25 -24 -25 -6 0 -22 -10 -35 -22 -20 -19 -38 -23 -116 -26 -142 -6
-125 -17 -422 278 l-267 264 260 258 c144 142 271 263 284 268 13 5 74 9 136
7 105 -2 115 -4 132 -24z"/>
<path d="M9344 3562 c-34 -4 -70 -14 -80 -23 -11 -9 -40 -20 -66 -23 -26 -4
-58 -16 -71 -27 -14 -10 -30 -19 -37 -19 -6 0 -21 -10 -33 -22 -13 -13 -34
-28 -47 -34 -40 -19 -160 -134 -166 -160 -4 -14 -15 -30 -25 -38 -27 -19 -78
-118 -85 -168 -4 -24 -15 -60 -25 -80 -27 -54 -27 -265 0 -340 10 -29 22 -66
25 -83 10 -45 67 -155 81 -155 7 0 18 -13 24 -28 17 -40 138 -162 172 -174 16
-6 34 -18 39 -28 5 -10 24 -21 42 -25 18 -4 42 -16 54 -26 12 -11 39 -22 60
-26 21 -3 54 -15 73 -26 50 -30 408 -30 449 0 15 11 48 23 74 26 25 4 63 18
83 32 21 14 43 25 50 25 7 0 19 7 26 17 8 9 26 21 41 27 31 13 101 76 124 111
27 41 6 71 -111 168 -38 32 -81 69 -95 82 -40 40 -76 33 -139 -25 -34 -32 -67
-54 -91 -59 -21 -5 -48 -16 -61 -25 -35 -24 -188 -23 -220 2 -13 11 -39 22
-58 25 -37 8 -135 100 -147 140 -3 12 -14 30 -23 41 -24 27 -24 285 1 312 9
11 19 31 23 46 9 36 119 138 149 138 12 0 31 9 41 20 26 29 233 30 259 1 9
-10 31 -21 48 -25 17 -3 41 -16 53 -29 84 -85 116 -94 168 -44 19 17 71 63
116 101 122 101 125 133 19 214 -24 18 -60 46 -82 62 -21 17 -44 30 -51 30 -7
0 -24 9 -37 20 -14 10 -45 22 -69 26 -24 4 -59 15 -77 26 -36 22 -272 33 -398
20z"/>
<path d="M11084 3562 c-34 -4 -70 -14 -80 -23 -11 -9 -41 -20 -69 -24 -29 -4
-61 -17 -78 -31 -16 -13 -35 -24 -42 -24 -8 0 -19 -9 -24 -19 -6 -10 -24 -24
-40 -29 -17 -6 -59 -40 -93 -75 -58 -59 -73 -80 -118 -156 -9 -14 -23 -37 -32
-51 -9 -14 -20 -45 -24 -70 -4 -25 -14 -53 -23 -64 -28 -31 -29 -335 -2 -380
12 -18 24 -54 27 -80 4 -25 17 -60 30 -78 13 -17 24 -38 24 -45 0 -8 7 -16 15
-20 9 -3 24 -22 35 -43 20 -40 129 -145 170 -164 13 -6 34 -21 47 -33 12 -13
27 -23 34 -23 6 0 23 -8 37 -19 15 -10 47 -22 71 -26 24 -4 59 -16 78 -28 54
-31 402 -31 454 0 19 12 55 24 81 28 26 4 54 16 64 26 9 10 23 19 29 19 7 0
29 14 50 30 21 17 43 30 49 30 6 0 37 25 69 54 64 61 70 85 34 128 -25 31
-165 148 -176 148 -4 0 -13 11 -19 25 -20 44 -71 35 -132 -25 -35 -34 -61 -51
-87 -56 -21 -4 -51 -16 -66 -26 -36 -26 -193 -23 -223 3 -11 9 -35 19 -54 23
-38 7 -115 80 -159 152 -37 61 -38 322 -1 374 45 64 123 139 151 145 15 3 35
15 45 26 25 28 246 29 266 1 7 -11 30 -22 51 -26 20 -4 37 -10 37 -15 0 -16
104 -91 126 -91 14 0 31 12 44 30 12 17 25 30 30 30 5 0 20 10 33 23 13 12 53
48 90 80 85 74 87 90 13 160 -50 49 -75 67 -148 109 -16 9 -37 23 -46 31 -9 8
-37 18 -62 22 -25 4 -59 16 -76 26 -35 21 -290 34 -410 21z"/>
<path d="M17010 3562 c-43 -4 -86 -14 -100 -24 -14 -9 -44 -19 -67 -23 -24 -4
-46 -11 -49 -17 -3 -5 -26 -18 -50 -29 -25 -10 -47 -25 -50 -33 -3 -8 -18 -17
-33 -21 -31 -7 -171 -137 -171 -160 0 -8 -13 -28 -30 -45 -16 -17 -30 -35 -30
-40 0 -6 -9 -19 -19 -29 -11 -11 -22 -41 -26 -72 -4 -30 -16 -65 -26 -78 -29
-36 -29 -346 0 -383 11 -13 22 -45 26 -71 4 -26 15 -57 25 -70 9 -12 20 -32
24 -45 4 -12 16 -27 27 -32 10 -6 25 -25 33 -43 13 -33 141 -157 162 -157 6 0
21 -11 34 -25 13 -14 38 -27 56 -31 18 -3 40 -14 49 -24 9 -10 36 -22 58 -25
23 -4 59 -16 79 -26 60 -30 400 -32 449 -2 19 12 57 24 86 28 31 4 58 14 69
26 9 10 23 19 30 19 7 0 25 11 41 24 15 13 39 27 53 31 39 12 200 182 200 211
0 13 11 34 24 45 13 12 27 37 31 56 3 20 16 49 28 65 34 46 34 444 0 480 -12
13 -25 41 -29 63 -3 22 -15 48 -25 58 -10 10 -22 30 -25 45 -4 15 -31 51 -60
81 -30 29 -54 58 -54 62 0 5 -7 9 -15 9 -8 0 -22 11 -31 25 -9 14 -27 28 -40
31 -13 3 -29 13 -35 21 -7 8 -26 21 -43 29 -17 8 -47 24 -66 35 -19 10 -46 19
-60 19 -14 0 -39 9 -57 20 -37 22 -252 34 -393 22z m270 -402 c14 -11 34 -20
46 -20 24 0 114 -67 114 -85 0 -7 9 -23 19 -37 11 -13 24 -50 30 -81 6 -31 15
-66 21 -76 14 -27 12 -79 -5 -126 -8 -22 -14 -53 -15 -69 -1 -66 -104 -187
-175 -205 -23 -6 -48 -17 -55 -26 -20 -25 -180 -21 -213 5 -14 11 -35 20 -46
20 -28 0 -104 70 -149 139 l-37 56 0 150 c0 150 0 151 28 184 15 18 27 36 27
41 0 17 91 94 142 121 70 36 226 41 268 9z"/>
<path d="M7611 3552 c-35 -2 -73 -9 -85 -16 -11 -8 -33 -16 -47 -20 -15 -3
-43 -25 -63 -48 -20 -24 -46 -52 -56 -63 -11 -12 -20 -33 -20 -47 0 -15 -11
-38 -24 -53 -13 -14 -26 -43 -30 -64 -3 -21 -13 -44 -21 -51 -8 -7 -22 -36
-31 -65 -8 -30 -21 -59 -29 -65 -8 -7 -15 -28 -15 -46 0 -24 -8 -41 -25 -56
-15 -13 -25 -32 -25 -49 0 -17 -10 -38 -24 -51 -13 -13 -26 -40 -29 -62 -4
-21 -13 -46 -22 -56 -9 -10 -21 -35 -27 -56 -5 -22 -18 -50 -28 -64 -9 -14
-20 -43 -24 -65 -4 -21 -16 -45 -27 -53 -11 -8 -19 -25 -19 -42 0 -18 -9 -38
-24 -52 -13 -13 -26 -40 -29 -61 -3 -20 -15 -49 -27 -64 -11 -14 -23 -43 -26
-64 -4 -21 -15 -46 -25 -55 -20 -18 -25 -69 -10 -93 7 -11 45 -14 198 -12 228
3 253 10 266 81 5 24 17 50 27 57 9 7 20 31 24 53 4 24 17 52 31 66 l24 24
273 -1 c293 -1 298 -2 298 -54 0 -19 8 -39 20 -50 11 -10 20 -28 20 -39 0
-120 43 -141 283 -137 119 2 197 7 205 14 22 18 1 110 -35 145 -7 7 -13 29
-13 47 0 21 -9 44 -24 62 -13 16 -29 47 -35 70 -6 22 -18 46 -26 53 -8 7 -18
30 -21 52 -4 21 -15 45 -25 52 -11 7 -23 33 -28 60 -5 26 -15 54 -24 64 -8 9
-20 36 -26 58 -6 23 -18 47 -26 54 -8 7 -17 27 -21 46 -3 19 -14 44 -24 57 -9
12 -20 39 -24 59 -4 21 -16 44 -27 51 -11 8 -23 31 -26 53 -3 22 -14 50 -24
64 -10 14 -23 44 -28 66 -6 23 -18 47 -26 54 -8 7 -17 28 -21 49 -4 20 -15 45
-24 56 -10 11 -22 34 -25 50 -11 44 -82 114 -125 121 -19 3 -44 12 -55 18 -29
18 -52 21 -124 18z m53 -579 c14 -34 26 -71 26 -81 0 -11 11 -31 25 -46 16
-18 25 -39 25 -60 0 -19 7 -39 15 -46 8 -7 15 -20 15 -29 0 -15 -204 -20 -247
-6 -21 7 -15 59 11 94 13 17 27 52 30 76 4 24 16 55 27 68 10 14 19 36 19 50
0 74 17 68 54 -20z"/>
<path d="M12461 3536 c-6 -8 -31 -17 -55 -20 -50 -8 -111 -73 -121 -130 -4
-17 -5 -225 -3 -463 3 -429 3 -431 26 -462 12 -17 22 -39 22 -50 0 -32 18 -71
34 -71 8 0 19 -14 25 -31 17 -50 137 -169 170 -169 5 0 22 -11 38 -24 16 -13
47 -28 68 -32 22 -3 56 -14 75 -24 73 -36 418 -36 460 0 11 9 43 20 70 23 33
4 63 15 83 31 66 52 88 72 125 110 20 22 49 52 65 68 15 16 27 35 27 42 0 8 7
16 14 19 8 3 20 25 26 49 6 24 21 65 33 92 22 49 22 55 22 536 0 398 -3 490
-14 503 -18 22 -215 25 -246 4 -11 -8 -35 -17 -54 -20 -19 -4 -49 -23 -70 -44
-62 -63 -70 -120 -71 -490 0 -231 -4 -323 -14 -356 -7 -25 -11 -56 -9 -70 5
-24 -57 -97 -83 -97 -6 0 -23 -9 -37 -20 -36 -29 -158 -29 -194 0 -14 11 -32
20 -39 20 -20 0 -74 79 -74 107 0 13 -9 41 -20 63 -19 37 -20 59 -20 460 0
271 -4 428 -10 441 -14 25 -229 29 -249 5z"/>
<path d="M14365 3540 c-3 -5 -24 -15 -46 -22 -29 -8 -54 -28 -87 -66 l-47 -55
-3 -645 c-2 -569 -1 -647 13 -668 15 -24 17 -24 204 -24 158 0 191 3 201 15
10 12 13 92 14 335 1 210 4 319 11 317 5 -2 11 -17 13 -33 2 -16 14 -39 28
-52 13 -13 24 -32 24 -43 0 -21 27 -62 67 -103 12 -12 25 -35 29 -52 3 -16 17
-39 30 -52 13 -13 24 -28 24 -35 0 -53 142 -167 207 -167 24 0 112 61 118 82
4 10 12 18 20 18 13 0 33 31 70 110 10 19 26 41 36 48 11 8 19 25 19 42 0 17
10 39 23 52 27 27 77 103 77 118 0 13 37 50 51 50 7 0 10 -33 9 -97 -2 -141 8
-501 15 -524 11 -32 34 -35 213 -30 164 6 175 7 192 28 17 21 18 48 14 390 -2
203 -4 518 -4 701 0 405 14 372 -155 372 -82 0 -122 -4 -138 -14 -12 -8 -38
-17 -57 -21 -39 -8 -110 -77 -110 -108 0 -10 -10 -28 -23 -40 -13 -12 -31 -37
-40 -54 -9 -18 -25 -48 -34 -65 -9 -18 -25 -39 -35 -46 -10 -8 -18 -26 -18
-43 0 -17 -8 -36 -21 -47 -11 -9 -37 -46 -56 -82 -20 -36 -45 -73 -55 -83 -10
-10 -18 -29 -18 -42 0 -15 -10 -31 -25 -41 -14 -9 -25 -21 -25 -26 0 -6 -7
-25 -16 -44 -22 -45 -47 -44 -68 4 -34 74 -58 112 -72 112 -7 0 -17 12 -20 28
-7 28 -67 127 -84 137 -6 3 -10 15 -10 26 0 10 -13 33 -30 51 -16 17 -30 41
-30 53 0 12 -11 32 -25 45 -14 13 -25 29 -25 35 0 7 -9 20 -19 29 -11 10 -23
30 -26 46 -3 15 -17 37 -30 49 -14 11 -25 29 -25 39 0 10 -17 37 -38 60 l-38
42 -82 0 c-44 0 -84 -4 -87 -10z"/>
<path d="M18605 3536 c-11 -7 -33 -16 -50 -20 -34 -8 -100 -73 -115 -111 -16
-41 -13 -1294 3 -1324 l12 -24 194 1 c128 0 198 5 205 12 8 8 11 119 12 361 1
193 4 353 7 355 3 3 11 -5 18 -18 6 -12 15 -25 18 -28 4 -3 33 -41 66 -85 62
-83 93 -120 136 -164 39 -39 129 -151 129 -160 0 -4 24 -33 53 -64 54 -58 130
-144 150 -171 21 -27 64 -35 208 -37 172 -2 179 2 180 105 6 675 -2 1341 -16
1362 -15 24 -16 24 -209 24 -168 0 -195 -2 -207 -17 -11 -13 -14 -85 -16 -360
-1 -190 -3 -347 -6 -349 -3 -3 -19 21 -37 53 -18 32 -44 69 -59 83 -45 44
-154 168 -165 187 -15 27 -67 93 -93 119 -13 13 -23 28 -23 34 0 5 -7 10 -15
10 -8 0 -15 5 -15 11 0 5 -13 22 -29 37 -15 15 -45 51 -65 81 -60 89 -96 111
-180 111 -44 0 -79 -5 -91 -14z"/>
<path d="M20396 3535 c-11 -8 -30 -15 -43 -15 -72 0 -165 -156 -154 -260 9
-91 10 -91 246 -88 l190 3 2 -530 c1 -292 2 -535 3 -542 1 -38 25 -43 234 -43
183 0 204 2 219 18 15 17 17 73 19 556 l3 538 201 2 c154 1 205 4 217 15 14
11 17 36 17 163 0 145 -1 150 -25 173 l-24 25 -543 0 c-462 -1 -546 -3 -562
-15z"/>
</g>
</svg>
