<svg xmlns="http://www.w3.org/2000/svg" viewBox="0 0 1981.6579613664658 656.290484" fill="#ffffff">
<g transform="translate(0 0)"><g transform="translate(0.143715,656.290484) scale(0.100000,-0.100000)"
fill="#ffffff" stroke="none">
<path d="M2777 6534 c-51 -33 -71 -45 -234 -138 -76 -43 -161 -94 -189 -112
-28 -19 -54 -34 -58 -34 -4 0 -53 -26 -109 -59 -56 -32 -112 -61 -124 -65 -49
-15 -40 -76 15 -101 43 -19 94 -47 137 -75 17 -11 48 -29 70 -40 22 -11 55
-29 73 -40 17 -11 47 -29 65 -40 17 -11 43 -25 57 -32 14 -7 40 -23 58 -35 18
-12 52 -31 75 -43 156 -80 271 -156 279 -185 4 -17 8 -241 7 -498 0 -350 3
-472 11 -483 16 -19 40 -18 70 4 26 18 326 192 420 244 30 16 62 36 70 43 8 7
31 20 50 29 19 9 50 25 68 36 82 51 99 61 122 72 38 19 94 58 102 71 15 23 10
1021 -5 1041 -8 10 -47 37 -89 60 -68 37 -439 251 -526 303 -20 12 -48 27 -61
33 -13 6 -44 24 -68 40 -62 42 -225 44 -286 4z"/>
<path d="M859 5423 c-18 -7 -40 -20 -49 -27 -13 -12 -101 -61 -181 -103 -15
-7 -32 -20 -39 -28 -7 -8 -20 -15 -30 -15 -9 0 -25 -9 -35 -20 -10 -11 -22
-20 -27 -20 -7 0 -49 -23 -221 -123 -18 -11 -87 -50 -154 -89 -113 -64 -123
-72 -123 -99 0 -19 5 -29 15 -29 8 0 72 -33 141 -72 69 -40 149 -86 177 -101
29 -16 88 -50 132 -77 93 -55 146 -86 195 -112 19 -10 53 -30 75 -43 22 -13
54 -31 70 -41 70 -39 65 6 65 -544 0 -561 -3 -537 71 -495 24 14 55 31 69 38
14 7 62 35 108 62 45 28 108 64 140 82 93 52 145 82 182 105 19 11 60 35 90
51 30 17 75 43 100 59 25 15 61 35 80 44 19 9 47 28 63 42 l27 26 0 503 0 504
-25 24 c-14 13 -41 30 -59 39 -18 9 -39 22 -46 31 -7 8 -16 15 -21 15 -7 0
-167 90 -297 167 -20 12 -50 29 -67 37 -16 9 -43 25 -60 36 -16 11 -46 27 -65
36 -19 9 -41 21 -49 28 -15 12 -96 59 -172 99 -42 23 -48 24 -80 10z"/>
<path d="M4792 5352 c-72 -42 -149 -87 -170 -99 -20 -12 -64 -36 -97 -53 -33
-18 -69 -40 -81 -51 -11 -10 -26 -19 -34 -19 -7 0 -21 -6 -29 -14 -9 -7 -41
-27 -71 -43 -59 -31 -99 -55 -142 -84 -15 -11 -33 -19 -41 -19 -19 0 -80 -66
-72 -79 3 -6 21 -18 38 -26 18 -8 50 -26 72 -40 22 -13 47 -27 55 -31 8 -4 38
-22 65 -39 28 -18 79 -48 115 -67 36 -19 88 -49 116 -67 28 -17 55 -31 59 -31
5 0 16 -6 24 -14 9 -7 43 -28 75 -45 33 -17 65 -36 71 -41 6 -5 38 -24 71 -41
32 -17 69 -41 82 -52 l23 -21 -1 -488 c-1 -268 1 -492 4 -497 18 -28 58 -21
125 24 38 25 75 45 83 45 8 0 23 9 33 20 10 11 22 20 26 20 9 0 187 99 237
132 15 10 41 25 59 35 128 72 254 146 259 154 3 5 12 9 20 9 8 0 31 12 50 28
l34 27 0 516 0 517 -24 16 c-14 8 -42 25 -63 37 -21 12 -49 29 -63 37 -14 7
-41 24 -61 35 -117 70 -197 116 -253 147 -65 36 -189 107 -255 147 -20 12 -45
26 -57 32 -11 5 -38 21 -59 35 -56 38 -77 33 -223 -52z"/>
<path d="M2800 4198 c-83 -49 -110 -65 -187 -109 -21 -12 -51 -30 -68 -40 -16
-11 -43 -26 -60 -35 -16 -8 -46 -25 -66 -37 -56 -33 -187 -110 -218 -127 -15
-8 -59 -33 -99 -55 -99 -54 -91 -85 41 -149 31 -16 60 -33 63 -38 3 -5 16 -13
27 -19 12 -5 45 -22 72 -38 28 -17 64 -36 81 -44 17 -8 35 -20 39 -26 3 -6 34
-25 68 -41 34 -17 80 -41 102 -54 22 -14 54 -32 70 -40 17 -9 48 -27 70 -41
22 -13 50 -29 63 -34 24 -11 40 -23 78 -58 l24 -22 0 -491 c0 -270 2 -495 5
-500 12 -19 44 -10 102 28 32 21 69 43 83 50 14 7 39 21 55 32 17 11 44 26 60
35 17 9 46 26 67 38 62 38 160 93 233 132 39 21 79 46 91 56 11 11 28 19 37
19 9 0 18 4 22 10 3 5 37 26 75 47 38 21 74 48 79 61 12 26 14 1005 3 1035 -4
10 -19 23 -32 30 -14 8 -34 18 -45 24 -11 7 -27 14 -35 17 -8 4 -35 19 -60 35
-25 16 -70 43 -100 59 -94 52 -178 100 -250 144 -50 31 -110 65 -145 83 -16 8
-48 26 -70 40 -22 14 -49 29 -60 34 -12 5 -27 16 -34 25 -27 32 -89 20 -181
-36z"/>
<path d="M856 3081 c-3 -5 -52 -35 -108 -67 -57 -32 -109 -64 -116 -71 -7 -7
-20 -13 -27 -13 -8 0 -33 -13 -57 -29 -24 -16 -61 -39 -83 -52 -74 -42 -90
-51 -130 -75 -22 -13 -53 -31 -70 -40 -16 -8 -46 -25 -67 -37 -111 -67 -149
-87 -173 -93 -40 -10 -33 -73 10 -87 27 -9 80 -37 163 -88 15 -9 44 -26 64
-38 21 -11 55 -31 76 -43 20 -12 51 -28 67 -36 17 -9 50 -29 75 -46 25 -17 68
-42 95 -55 28 -14 57 -30 65 -37 9 -7 43 -27 75 -45 33 -17 67 -38 76 -45 8
-8 20 -14 25 -14 6 0 19 -6 30 -14 18 -14 19 -34 24 -517 6 -578 -1 -545 94
-488 32 19 72 43 91 54 18 11 59 35 92 53 32 18 65 37 73 42 8 6 26 16 40 22
14 7 40 23 58 35 18 12 52 31 75 43 23 12 62 35 87 51 25 16 52 32 60 35 35
16 226 128 243 142 23 20 27 1015 4 1047 -13 17 -43 35 -113 69 -17 8 -36 22
-44 30 -7 9 -21 16 -31 16 -9 0 -24 6 -32 14 -8 8 -42 30 -75 48 -34 18 -77
42 -96 53 -19 11 -100 58 -181 105 -81 47 -163 95 -183 107 -20 12 -51 29 -69
37 -17 9 -34 20 -38 26 -8 12 -62 13 -69 1z"/>
<path d="M4899 3073 c-32 -24 -57 -39 -99 -61 -36 -19 -96 -53 -142 -81 -80
-49 -139 -81 -146 -81 -5 0 -17 -9 -27 -20 -10 -11 -22 -20 -27 -20 -8 0 -162
-87 -216 -122 -15 -10 -62 -35 -104 -55 -43 -20 -80 -43 -83 -51 -8 -21 21
-61 53 -73 35 -12 39 -15 87 -44 22 -13 49 -29 60 -35 11 -6 40 -24 65 -40 25
-16 59 -36 75 -45 17 -8 44 -24 60 -35 17 -10 53 -31 81 -45 29 -14 68 -37 89
-50 20 -14 58 -37 83 -50 26 -14 70 -39 97 -55 28 -16 62 -34 78 -41 15 -6 28
-12 29 -12 2 -1 5 -231 8 -512 l5 -510 33 -3 c26 -3 47 6 93 37 33 23 66 41
73 41 7 0 19 7 26 16 8 8 27 22 44 30 62 29 93 47 211 122 11 7 34 19 50 27
17 8 48 26 70 40 22 14 51 30 65 37 14 6 32 17 40 24 8 6 56 33 105 58 50 26
96 54 103 63 9 13 12 135 12 530 l0 513 -23 21 c-13 11 -51 33 -83 50 -32 16
-77 40 -99 53 -22 14 -53 32 -70 40 -16 9 -48 27 -70 41 -22 13 -50 29 -63 34
-12 6 -28 15 -35 21 -29 24 -89 60 -101 60 -7 0 -24 8 -37 19 -13 10 -78 49
-144 86 -66 38 -127 74 -136 82 -22 18 -62 16 -90 -4z"/>
<path d="M2881 1907 c-6 -8 -34 -26 -63 -41 -29 -15 -70 -37 -90 -49 -162 -96
-216 -127 -222 -127 -4 0 -33 -17 -64 -37 -31 -20 -70 -44 -87 -53 -34 -18
-148 -83 -203 -117 -38 -22 -57 -32 -79 -38 -19 -6 -46 -53 -40 -70 4 -8 37
-30 74 -50 71 -37 76 -40 159 -92 29 -18 63 -38 75 -43 13 -6 42 -22 64 -35
22 -14 54 -32 72 -40 17 -8 51 -28 75 -44 24 -16 68 -42 98 -58 30 -16 73 -41
95 -55 22 -14 61 -37 87 -52 26 -15 52 -35 58 -46 6 -12 10 -173 10 -439 l0
-421 159 0 c93 0 162 4 166 10 5 9 67 46 189 114 28 15 58 34 66 41 8 7 31 20
50 29 19 9 49 25 65 36 17 11 44 27 60 35 17 8 48 26 70 40 22 14 50 30 62 36
33 17 33 20 33 552 l0 499 -31 29 c-17 16 -35 29 -39 29 -4 0 -38 18 -74 40
-37 23 -93 54 -124 71 -31 16 -69 38 -84 47 -15 9 -84 50 -155 90 -70 40 -135
77 -143 82 -212 131 -265 155 -289 127z"/>
</g></g>
<g transform="translate(683.5872876000001 131.2580968) scale(1.1170538250337916)"><g transform="translate(-6.935006,361.305756) scale(0.100000,-0.100000)"
fill="#ffffff" stroke="none">
<path d="M1665 3609 c-77 -3 -152 -10 -166 -16 -14 -6 -52 -14 -85 -18 -32 -4
-79 -16 -103 -26 -24 -10 -53 -19 -65 -19 -12 0 -30 -6 -41 -14 -11 -7 -31
-17 -45 -20 -55 -16 -203 -89 -281 -139 -136 -86 -186 -124 -282 -216 -90 -87
-209 -231 -251 -306 -83 -145 -101 -180 -129 -250 -52 -128 -67 -171 -67 -192
0 -12 -9 -45 -19 -75 -10 -29 -24 -91 -31 -138 -7 -47 -16 -107 -20 -135 -17
-104 -12 -1922 6 -1939 24 -24 613 -24 649 0 l25 16 -1 405 c-1 230 3 409 8
414 5 5 451 8 1079 7 l1069 -3 3 -412 2 -413 30 -15 c34 -18 613 -22 640 -5
19 12 23 3237 4 3261 -6 8 -14 26 -18 41 -16 67 -89 144 -176 186 -45 22 -46
22 -820 25 -426 1 -838 -1 -915 -4z m1243 -667 c10 -7 12 -146 10 -663 l-3
-654 -1069 -3 c-680 -1 -1073 1 -1080 8 -22 22 -3 453 25 560 52 194 154 358
301 487 87 75 301 193 351 193 10 0 32 7 50 16 31 16 54 21 252 48 111 15
1139 22 1163 8z"/>
<path d="M9130 3609 c-98 -4 -158 -11 -185 -22 -22 -9 -50 -16 -62 -17 -25 0
-78 -22 -198 -83 -431 -217 -634 -767 -472 -1282 23 -74 87 -206 116 -240 9
-11 30 -40 46 -63 60 -90 220 -217 365 -289 25 -12 53 -23 63 -23 10 0 35 -9
57 -20 22 -11 50 -20 63 -20 13 0 59 -9 102 -20 75 -19 111 -20 897 -20 l819
0 66 -32 c36 -18 73 -37 82 -42 34 -18 92 -135 102 -203 5 -36 11 -69 14 -73
3 -4 0 -45 -7 -91 -20 -144 -77 -220 -203 -272 l-65 -27 -1258 0 c-965 0
-1261 -3 -1270 -12 -9 -9 -12 -96 -12 -330 0 -303 1 -318 19 -328 33 -17 2392
-13 2559 4 73 8 138 19 145 24 7 5 28 13 47 17 304 61 634 398 690 705 5 25
16 72 24 105 21 79 21 277 0 370 -9 39 -20 90 -24 115 -15 92 -108 280 -175
355 -114 128 -198 202 -280 244 -33 18 -67 36 -75 41 -37 22 -131 60 -149 60
-10 0 -32 6 -48 14 -71 36 -154 40 -998 46 -530 4 -843 10 -865 17 -82 24
-135 73 -187 171 -39 73 -37 283 3 362 34 68 127 160 161 160 13 0 38 8 56 18
30 16 106 17 1132 19 605 1 1110 5 1123 8 l22 5 0 321 c0 250 -3 321 -13 325
-19 7 -2058 10 -2227 3z"/>
<path d="M4945 3588 c-38 -11 -88 -28 -111 -39 -23 -10 -44 -19 -48 -19 -4 0
-42 -20 -85 -45 -141 -81 -256 -205 -331 -355 -101 -204 -95 -93 -98 -1652
l-2 -1347 20 -19 c29 -27 606 -33 646 -7 l24 15 0 1313 c1 721 5 1331 9 1355
11 58 55 110 116 136 70 29 1576 33 1655 3 25 -9 54 -17 65 -17 11 0 31 -9 45
-20 14 -11 30 -20 36 -20 35 0 165 -157 180 -217 4 -15 17 -48 28 -73 20 -42
21 -62 20 -320 l0 -275 -32 -65 c-62 -123 -111 -173 -233 -232 -137 -66 -160
-68 -951 -68 -567 0 -708 -3 -722 -13 -23 -17 -26 -634 -3 -649 17 -11 1583
-9 1632 2 22 5 65 14 95 21 60 12 150 42 192 65 14 8 33 14 41 14 16 0 24 4
172 99 154 98 293 253 370 411 15 30 33 66 40 80 7 14 16 41 20 60 4 19 11 40
16 46 9 11 24 88 49 249 16 98 12 468 -6 560 -8 44 -18 105 -23 135 -4 30 -15
69 -24 87 -9 18 -17 39 -17 47 0 15 -19 60 -64 157 -68 143 -233 340 -347 416
-136 90 -270 152 -364 169 -22 4 -54 13 -72 21 -61 25 -1848 17 -1938 -9z"/>
</g></g>
</svg>
