<svg xmlns="http://www.w3.org/2000/svg" viewBox="0 0 3192.699051 769.693527" fill="#ffffff">
<g transform="translate(-71.402365,860.976075) scale(0.100000,-0.100000)" fill="#ffffff" stroke="none">
<path d="M6014 8599 c-3 -6 -25 -19 -49 -29 -66 -28 -184 -171 -244 -295 -11
-22 -33 -53 -50 -69 -16 -15 -32 -40 -36 -55 -3 -14 -19 -39 -35 -56 -16 -16
-36 -48 -45 -69 -9 -22 -27 -48 -40 -57 -12 -10 -28 -33 -36 -51 -7 -18 -30
-55 -51 -81 -21 -27 -38 -54 -38 -61 0 -7 -16 -27 -35 -46 -19 -18 -37 -45
-40 -60 -3 -15 -19 -40 -35 -55 -16 -15 -34 -41 -41 -59 -8 -17 -42 -73 -76
-125 -35 -51 -63 -98 -63 -103 0 -5 -16 -28 -35 -51 -19 -22 -35 -48 -35 -57
0 -9 -12 -27 -26 -41 -15 -13 -35 -42 -45 -64 -10 -22 -31 -55 -48 -72 -16
-18 -33 -43 -37 -55 -3 -13 -24 -42 -45 -65 -22 -24 -39 -52 -39 -63 0 -12
-15 -35 -34 -53 -19 -18 -37 -43 -41 -57 -4 -14 -20 -38 -36 -55 -15 -16 -35
-46 -44 -65 -8 -19 -33 -62 -55 -95 -22 -33 -58 -90 -81 -127 -22 -37 -47 -72
-55 -79 -8 -6 -14 -19 -14 -28 0 -9 -18 -36 -40 -60 -22 -23 -40 -49 -40 -57
0 -8 -18 -37 -40 -65 -22 -28 -40 -56 -40 -63 0 -7 -13 -25 -29 -40 -16 -16
-35 -42 -42 -60 -7 -17 -30 -53 -51 -79 -21 -27 -38 -55 -38 -61 0 -7 -18 -34
-40 -59 -22 -25 -40 -52 -40 -61 0 -8 -15 -31 -34 -49 -18 -19 -37 -45 -41
-58 -4 -13 -15 -35 -25 -49 -10 -14 -21 -36 -25 -50 -4 -14 -18 -34 -31 -45
-27 -22 -49 -195 -27 -208 6 -4 22 -30 36 -60 24 -49 294 -324 392 -399 17
-13 60 -53 96 -88 164 -159 472 -456 559 -538 52 -49 143 -134 201 -189 128
-121 224 -175 265 -148 13 8 34 15 46 15 60 0 191 129 202 199 3 23 11 50 18
60 14 22 -14 214 -35 240 -7 9 -23 41 -36 71 -13 30 -32 74 -42 98 -10 23 -19
47 -19 52 0 6 -17 45 -39 88 -21 43 -41 94 -45 113 -3 19 -19 59 -36 89 -16
30 -32 62 -36 70 -3 8 -14 34 -25 58 -10 23 -19 49 -19 57 0 7 -18 50 -40 94
-22 44 -40 88 -40 98 0 10 -9 35 -20 56 -28 52 -26 83 9 115 17 15 37 44 45
64 9 20 20 39 25 42 5 4 12 19 16 35 3 16 18 39 32 52 14 13 44 62 66 109 23
47 48 90 56 96 8 6 24 29 35 51 12 22 33 62 47 89 15 27 36 67 48 88 11 22 29
49 40 60 10 12 27 37 38 57 27 53 72 119 81 119 5 0 21 -14 38 -31 16 -17 72
-67 125 -110 54 -43 135 -114 180 -157 46 -43 95 -87 108 -98 14 -10 34 -28
45 -39 12 -12 44 -38 71 -60 28 -21 55 -44 60 -50 27 -29 237 -224 271 -252
114 -92 197 -166 271 -238 44 -44 103 -98 129 -120 139 -117 184 -158 268
-241 82 -82 222 -205 294 -259 15 -11 72 -66 127 -123 78 -80 105 -102 126
-102 18 0 30 -6 34 -19 4 -13 20 -22 48 -27 61 -11 499 -8 662 5 77 6 255 16
395 21 140 6 307 16 370 21 63 6 171 13 240 15 716 21 809 39 871 169 16 34
29 70 29 79 0 10 5 27 11 39 16 29 12 141 -7 197 -15 45 -97 140 -120 140 -6
0 -22 8 -35 19 -22 17 -62 28 -132 37 -15 2 -42 11 -60 21 -30 16 -75 28 -142
39 -16 3 -39 9 -50 14 -11 4 -40 13 -65 19 -25 7 -65 18 -90 26 -25 7 -62 17
-83 20 -20 4 -40 11 -43 16 -3 5 -18 9 -34 9 -16 0 -31 4 -34 9 -3 5 -20 11
-38 14 -42 7 -147 35 -173 47 -20 9 -55 17 -110 26 -16 3 -39 9 -50 14 -11 5
-31 11 -45 13 -34 6 -210 57 -235 67 -11 5 -33 11 -50 15 -16 3 -48 11 -70 16
-22 6 -51 12 -65 13 -14 1 -36 7 -50 13 -43 18 -164 53 -184 53 -11 0 -47 8
-80 19 -77 23 -188 51 -244 61 -23 4 -43 9 -45 11 -1 2 -19 25 -40 51 -20 25
-37 49 -37 52 0 6 -21 36 -127 188 -18 26 -33 51 -33 54 0 3 -11 20 -25 38
-51 63 -61 75 -93 123 -18 26 -60 89 -93 138 -158 239 -193 292 -208 314 -9
13 -27 40 -41 61 -14 21 -46 69 -72 106 -70 101 -74 108 -163 244 -46 69 -91
139 -101 156 -11 18 -41 64 -69 104 -58 83 -106 154 -154 228 -19 29 -38 52
-43 52 -5 0 -13 11 -18 25 -12 31 -50 87 -67 98 -7 4 -13 14 -13 22 0 7 -18
36 -40 64 -22 28 -40 54 -40 58 0 11 -53 87 -67 96 -7 4 -13 14 -13 22 0 7
-18 36 -40 64 -22 28 -40 54 -40 58 0 11 -53 87 -67 96 -7 4 -13 14 -13 22 0
7 -18 36 -40 64 -22 28 -40 55 -40 60 0 5 -20 35 -45 67 -25 31 -45 62 -45 67
0 5 -9 21 -20 35 -11 15 -28 37 -38 50 -57 76 -75 92 -102 92 -16 0 -32 5 -35
10 -8 13 -102 13 -111 -1z"/>
<path d="M14409 7120 c-31 -4 -61 -10 -67 -14 -5 -3 -53 -10 -106 -16 -53 -5
-110 -17 -126 -25 -16 -8 -53 -15 -83 -15 -36 0 -59 -5 -67 -15 -7 -8 -27 -15
-44 -15 -18 0 -48 -9 -69 -19 -20 -10 -67 -25 -104 -32 -38 -7 -73 -17 -80
-22 -21 -15 -266 -137 -277 -137 -5 0 -31 -18 -57 -40 -26 -22 -52 -40 -57
-40 -5 0 -17 -9 -28 -21 -10 -12 -32 -28 -47 -35 -15 -8 -54 -38 -85 -65 -31
-28 -81 -72 -110 -97 -66 -57 -115 -107 -163 -164 -21 -24 -68 -77 -105 -120
-75 -83 -150 -182 -175 -229 -8 -17 -19 -34 -25 -37 -18 -13 -64 -88 -64 -105
0 -9 -16 -29 -35 -44 -21 -17 -35 -37 -35 -51 0 -12 -9 -30 -20 -39 -11 -10
-23 -32 -26 -49 -3 -18 -12 -35 -19 -38 -7 -2 -16 -20 -20 -38 -4 -18 -16 -44
-26 -57 -11 -13 -19 -30 -19 -38 0 -8 -9 -26 -20 -40 -11 -14 -20 -31 -20 -38
0 -7 -7 -18 -15 -25 -8 -7 -15 -21 -15 -31 0 -11 -9 -28 -20 -39 -12 -12 -19
-32 -18 -53 1 -18 -6 -46 -15 -62 -9 -17 -23 -44 -31 -62 -9 -17 -20 -34 -26
-38 -5 -3 -10 -23 -10 -44 0 -23 -8 -48 -20 -63 -10 -14 -22 -45 -26 -69 -4
-24 -12 -51 -19 -59 -7 -8 -15 -34 -18 -58 -3 -24 -12 -51 -20 -60 -8 -9 -18
-46 -22 -82 -4 -36 -13 -72 -20 -80 -7 -8 -16 -46 -20 -83 -4 -38 -13 -83 -20
-101 -36 -86 -44 -669 -11 -735 8 -14 17 -53 21 -86 4 -33 13 -67 20 -75 6 -8
27 -46 45 -83 18 -38 44 -81 57 -95 14 -15 36 -43 48 -62 37 -58 147 -161 178
-167 15 -3 39 -20 53 -38 20 -27 33 -33 75 -38 27 -3 61 -15 76 -27 14 -11 34
-20 45 -20 11 0 29 -5 41 -12 22 -12 191 -41 337 -58 41 -4 474 -9 961 -9 835
-1 886 0 901 16 24 28 68 127 68 154 0 14 6 34 14 45 8 11 26 55 41 99 14 44
33 87 41 96 8 8 14 31 14 50 0 19 9 48 20 64 11 17 20 44 20 61 0 17 8 42 18
55 25 32 36 113 18 128 -9 8 -239 11 -778 10 -665 0 -770 2 -802 15 -20 8 -42
13 -49 10 -15 -5 -83 21 -92 36 -3 5 -16 10 -29 10 -13 0 -31 9 -41 20 -10 11
-30 20 -45 20 -15 0 -36 10 -50 25 -13 14 -33 25 -45 25 -33 0 -95 87 -95 133
0 13 -9 41 -21 62 -26 50 -30 414 -5 463 7 15 17 61 20 102 4 41 13 86 21 100
7 14 16 45 20 70 4 25 13 52 20 60 7 8 15 34 18 58 3 24 12 51 21 61 9 10 16
30 16 45 0 34 47 175 64 196 8 8 16 36 18 62 3 26 15 58 27 74 11 15 21 33 21
41 0 8 9 26 20 40 11 14 20 34 20 44 0 10 4 20 9 24 11 6 71 123 71 138 0 5
18 29 40 53 22 24 40 52 40 62 0 10 14 31 31 48 17 16 43 47 56 69 14 22 33
49 43 60 99 110 140 149 179 171 25 15 55 35 66 45 26 23 170 96 205 104 16 4
34 13 41 21 6 8 23 14 38 14 14 0 43 9 64 20 21 12 56 20 82 20 25 0 56 6 68
14 41 26 120 28 889 27 l767 -1 30 32 c22 24 31 43 31 68 0 20 7 46 17 59 9
13 20 44 25 69 4 25 14 53 22 61 7 9 16 36 20 61 4 24 15 58 25 75 11 16 22
45 26 64 9 41 42 118 55 126 6 3 10 23 10 44 0 20 7 46 15 57 19 25 19 50 -1
58 -22 9 -1737 5 -1805 -4z"/>
<path d="M20536 7114 c-9 -8 -16 -30 -16 -48 0 -19 -9 -45 -21 -60 -11 -15
-18 -33 -15 -41 6 -16 -18 -80 -34 -90 -5 -3 -10 -21 -10 -40 0 -19 -11 -55
-25 -81 -14 -26 -25 -59 -25 -73 0 -15 -6 -36 -14 -47 -8 -11 -26 -55 -41 -99
-14 -44 -33 -87 -41 -96 -8 -8 -14 -31 -14 -50 0 -19 -9 -47 -20 -64 -11 -16
-20 -44 -20 -61 0 -17 -9 -43 -20 -57 -11 -14 -20 -38 -20 -55 0 -16 -11 -50
-25 -76 -14 -26 -25 -61 -25 -78 0 -17 -7 -39 -16 -49 -8 -9 -22 -39 -29 -65
-34 -119 -71 -219 -91 -244 -6 -8 -14 -34 -17 -58 -3 -24 -12 -51 -20 -60 -8
-9 -17 -36 -20 -60 -3 -24 -12 -51 -21 -61 -8 -9 -18 -37 -22 -61 -4 -25 -13
-52 -20 -61 -8 -8 -17 -38 -20 -65 -4 -27 -15 -60 -26 -73 -10 -13 -18 -32
-18 -41 0 -16 -29 -93 -49 -130 -5 -9 -12 -35 -16 -58 -3 -23 -15 -52 -26 -66
-10 -13 -19 -40 -19 -59 0 -20 -9 -46 -21 -61 -11 -15 -18 -33 -15 -41 6 -16
-18 -80 -33 -90 -6 -3 -13 -27 -17 -53 -3 -26 -12 -54 -19 -62 -8 -8 -16 -28
-20 -45 -10 -44 -47 -138 -62 -156 -7 -8 -13 -31 -13 -51 0 -20 -9 -46 -20
-61 -11 -14 -20 -38 -20 -54 0 -15 -9 -45 -20 -66 -11 -20 -20 -48 -20 -61 0
-14 -11 -46 -25 -72 -14 -26 -25 -61 -25 -78 0 -18 -5 -37 -11 -43 -12 -12
-26 -48 -80 -207 -17 -49 -37 -99 -45 -110 -8 -11 -14 -35 -14 -52 0 -17 -9
-42 -19 -56 -11 -13 -19 -38 -19 -55 1 -17 -8 -46 -19 -64 -11 -19 -23 -51
-26 -73 -4 -21 -13 -46 -20 -55 -8 -9 -18 -38 -22 -66 -4 -28 -16 -60 -27 -72
-11 -12 -18 -31 -16 -45 l3 -23 422 -3 422 -2 15 22 c8 13 28 66 46 118 17 52
37 102 45 110 7 8 15 34 18 58 3 24 12 51 21 61 9 10 16 33 16 52 0 19 7 45
17 58 9 13 20 44 25 69 4 25 15 53 23 62 8 9 18 39 21 66 4 27 12 56 19 64 7
8 25 51 40 95 14 44 33 87 41 96 8 8 14 31 14 51 0 19 8 46 19 59 10 13 21 43
24 67 3 24 12 51 20 60 8 9 17 36 20 60 3 24 12 51 21 61 9 10 19 40 22 67 4
27 15 60 26 73 10 13 18 31 18 40 0 21 44 129 59 144 6 6 11 25 11 42 0 17 9
47 20 68 11 20 20 49 20 65 0 15 7 38 17 51 9 13 20 44 25 69 4 25 14 53 22
61 8 9 17 36 21 61 4 25 13 52 20 60 7 8 16 31 20 50 4 19 11 40 15 45 4 6 20
51 34 100 15 50 36 103 47 118 12 16 18 35 15 42 -6 16 18 80 34 90 5 3 10 23
10 43 0 21 7 48 16 61 10 13 18 40 20 59 1 19 12 48 24 64 11 16 24 51 27 78
3 29 13 56 24 66 11 10 19 26 19 36 0 28 37 128 55 148 8 9 15 32 15 52 0 20
9 46 20 61 11 14 20 40 20 60 0 20 9 46 21 61 11 15 18 33 15 42 -3 8 8 44 24
79 17 35 30 76 30 91 0 15 7 35 16 45 8 9 22 39 29 65 30 105 75 227 90 244 8
9 15 32 15 52 0 20 9 46 20 61 11 14 20 40 20 60 0 19 8 45 19 58 29 37 34 65
16 83 -24 24 -835 24 -859 0z"/>
<path d="M22222 7118 c-12 -6 -25 -23 -28 -37 -10 -54 -37 -127 -55 -153 -10
-15 -19 -43 -19 -61 0 -19 -9 -46 -20 -60 -11 -14 -20 -40 -20 -60 0 -20 -9
-46 -21 -61 -11 -14 -19 -34 -18 -43 4 -23 -10 -63 -26 -83 -7 -8 -16 -35 -20
-60 -4 -25 -13 -52 -20 -60 -32 -37 -45 -144 -19 -154 31 -12 792 -7 819 6 17
8 28 24 35 52 14 53 40 117 57 137 7 8 13 31 13 51 0 19 8 46 19 59 10 13 21
44 24 69 3 24 13 49 21 56 9 6 16 26 16 46 0 19 11 56 25 82 14 26 25 60 25
75 0 16 7 34 15 41 8 7 17 28 21 49 4 20 14 49 23 64 32 56 23 57 -423 56
-269 0 -408 -4 -424 -11z"/>
<path d="M23907 7119 c-22 -13 -77 -127 -77 -161 0 -14 -6 -31 -14 -37 -8 -6
-17 -36 -21 -67 -4 -31 -12 -57 -20 -60 -7 -3 -19 -29 -26 -57 -14 -59 -45
-133 -59 -142 -6 -3 -10 -23 -10 -44 0 -22 -8 -49 -19 -62 -10 -13 -21 -43
-24 -67 -3 -24 -12 -51 -21 -61 -9 -10 -16 -33 -16 -53 0 -19 -8 -46 -19 -59
-10 -13 -21 -46 -26 -74 -4 -27 -15 -59 -25 -72 -10 -13 -21 -40 -25 -60 -4
-21 -19 -63 -34 -93 -15 -30 -30 -73 -34 -94 -3 -21 -12 -46 -20 -55 -8 -9
-17 -35 -20 -59 -3 -24 -12 -51 -20 -60 -8 -9 -17 -36 -20 -60 -3 -24 -12 -51
-21 -61 -8 -9 -18 -37 -22 -61 -4 -25 -10 -49 -14 -55 -7 -9 -27 -62 -87 -235
-14 -41 -32 -82 -39 -91 -8 -8 -14 -31 -14 -51 0 -19 -8 -46 -19 -59 -10 -13
-21 -43 -24 -67 -3 -24 -12 -51 -20 -60 -8 -9 -17 -36 -20 -60 -3 -24 -12 -51
-20 -60 -8 -9 -18 -37 -22 -62 -4 -25 -13 -55 -21 -68 -8 -12 -24 -53 -35 -90
-12 -37 -28 -78 -36 -92 -9 -13 -18 -40 -20 -60 -2 -19 -12 -47 -23 -62 -11
-15 -20 -42 -20 -60 0 -19 -7 -44 -17 -57 -9 -13 -20 -44 -25 -69 -4 -25 -14
-53 -22 -61 -8 -9 -17 -36 -21 -61 -4 -25 -14 -56 -22 -69 -9 -14 -19 -39 -24
-55 -14 -55 -40 -121 -55 -137 -8 -8 -14 -31 -14 -51 0 -19 -8 -46 -19 -59
-10 -13 -21 -43 -24 -67 -3 -24 -12 -51 -21 -61 -9 -10 -16 -33 -16 -53 0 -20
-9 -46 -20 -61 -11 -14 -23 -47 -26 -74 -4 -26 -12 -55 -20 -63 -7 -8 -16 -28
-20 -45 -4 -16 -15 -47 -25 -67 -11 -21 -19 -48 -19 -60 0 -13 -7 -36 -15 -52
-8 -15 -15 -34 -15 -41 0 -7 -9 -24 -21 -39 -46 -58 -84 -56 907 -56 757 0
910 2 941 14 21 8 72 17 113 21 41 4 86 12 100 20 14 7 50 16 80 20 30 4 69
16 86 26 17 10 41 19 53 19 12 0 102 38 199 85 203 99 179 85 274 150 69 47
100 70 158 116 68 53 266 235 271 249 4 9 25 35 48 59 23 23 41 49 41 56 0 7
25 35 55 63 29 27 57 61 60 75 4 14 22 41 41 61 18 19 36 47 40 63 4 15 15 39
26 52 10 13 18 32 18 42 0 10 4 20 9 24 12 7 71 124 71 141 0 6 6 14 14 17 7
3 17 18 20 34 4 15 13 35 20 43 8 8 16 37 20 63 3 27 15 60 26 74 11 14 20 35
20 47 0 11 7 34 15 50 9 16 20 46 25 65 5 20 16 56 26 81 25 65 27 544 3 581
-17 25 -30 77 -30 119 -1 13 -8 36 -18 50 -9 14 -30 52 -46 85 -16 33 -44 73
-61 90 -17 16 -37 40 -43 52 -6 12 -36 38 -66 59 -30 20 -55 40 -55 45 0 5
-12 15 -27 21 -16 6 -65 29 -109 50 -45 21 -91 38 -103 38 -12 0 -32 5 -44 12
-75 42 -396 67 -862 67 -250 0 -361 3 -363 10 -5 14 37 120 56 143 8 10 12 24
9 32 -7 17 17 81 33 91 5 3 10 23 10 43 0 21 7 48 16 61 10 13 19 37 20 54 2
16 15 54 29 83 14 29 25 63 25 76 0 13 6 30 12 36 7 7 20 38 29 70 31 103 80
237 95 253 8 8 14 31 14 51 0 21 9 46 22 63 42 54 30 55 -416 55 -259 -1 -407
-4 -419 -11z m1053 -1825 c7 -8 23 -14 34 -13 31 3 78 -12 105 -33 13 -10 32
-18 42 -18 9 0 27 -12 38 -27 11 -16 29 -37 39 -48 32 -35 52 -73 52 -100 0
-14 7 -40 16 -57 26 -49 -3 -356 -39 -423 -9 -16 -17 -41 -17 -55 0 -15 -5
-31 -11 -37 -6 -6 -15 -33 -20 -59 -5 -26 -16 -55 -25 -65 -9 -10 -13 -26 -10
-37 5 -14 -1 -24 -20 -37 -18 -11 -24 -23 -21 -36 3 -12 -4 -31 -18 -47 -12
-15 -30 -44 -38 -64 -8 -20 -27 -44 -41 -53 -13 -9 -27 -29 -31 -43 -3 -16
-37 -57 -83 -100 -121 -116 -140 -132 -156 -132 -8 0 -17 -4 -21 -9 -8 -15
-90 -68 -115 -76 -11 -4 -48 -22 -81 -41 -34 -19 -75 -34 -92 -34 -18 -1 -50
-8 -72 -16 -102 -40 -802 -76 -841 -43 -20 16 -17 52 5 81 11 13 22 46 26 73
4 28 13 57 20 65 7 8 25 51 40 95 15 44 34 88 42 97 9 10 13 24 9 33 -6 16 9
59 30 85 6 8 14 34 17 58 3 24 12 51 20 60 8 9 17 36 20 60 3 24 13 52 22 62
10 11 20 41 23 67 2 26 10 51 17 55 7 5 19 32 26 60 15 64 43 133 58 142 6 4
11 24 11 45 0 23 8 48 20 64 11 14 20 40 20 60 0 19 9 45 20 60 11 14 20 38
20 54 0 15 11 51 25 78 13 28 25 60 25 72 0 12 6 34 14 50 14 27 38 88 50 126
8 25 825 27 846 1z"/>
<path d="M16463 5999 c-19 -7 -23 -16 -23 -47 0 -24 -8 -49 -19 -64 -11 -13
-22 -46 -27 -73 -4 -27 -15 -63 -25 -80 -11 -16 -19 -42 -19 -57 0 -16 -9 -37
-20 -48 -11 -11 -20 -32 -20 -46 0 -27 -35 -119 -55 -144 -20 -24 -27 -106
-11 -119 10 -9 239 -11 844 -10 705 1 834 -1 858 -14 16 -8 45 -17 64 -21 53
-10 109 -52 129 -97 22 -49 19 -234 -5 -260 -8 -8 -14 -31 -14 -50 0 -66 29
-63 -492 -61 -654 2 -1070 -21 -1165 -64 -17 -8 -50 -14 -73 -14 -22 0 -58 -8
-78 -19 -20 -10 -50 -25 -67 -34 -16 -8 -71 -36 -121 -61 -50 -26 -103 -56
-117 -69 -14 -12 -37 -31 -52 -42 -39 -29 -175 -165 -210 -209 -16 -21 -47
-56 -68 -78 -20 -22 -40 -52 -43 -66 -4 -15 -12 -34 -19 -42 -7 -8 -20 -31
-28 -50 -8 -20 -25 -43 -39 -52 -20 -13 -26 -28 -31 -69 -4 -28 -13 -59 -21
-68 -8 -9 -19 -27 -25 -41 -6 -14 -15 -32 -20 -40 -5 -8 -15 -49 -21 -90 -7
-41 -16 -85 -21 -98 -14 -35 -10 -144 6 -172 8 -14 14 -39 15 -56 0 -65 71
-222 122 -271 103 -98 153 -128 273 -158 122 -31 197 -33 1336 -34 1284 -2
1142 -15 1184 114 15 44 32 87 39 95 8 8 16 34 19 58 3 24 12 51 20 60 8 9 17
36 20 60 3 24 12 51 21 61 9 10 16 33 16 53 0 20 9 46 20 60 10 14 22 45 26
69 4 24 12 51 19 59 7 8 17 33 23 55 24 90 83 246 100 267 8 10 12 24 9 32 -7
17 17 81 33 91 5 3 10 23 10 43 0 21 7 48 16 61 10 13 19 37 20 54 2 16 15 54
29 83 14 29 25 63 25 76 0 13 6 32 14 43 8 11 26 56 41 100 15 44 34 87 41 96
8 8 14 31 14 51 0 20 9 46 20 61 11 14 20 38 20 54 0 15 7 42 16 58 16 31 18
37 30 115 4 25 12 52 19 60 37 45 45 491 9 521 -8 6 -14 26 -14 43 0 65 -159
286 -206 286 -7 0 -25 16 -40 35 -20 27 -34 35 -58 35 -17 0 -44 8 -61 17 -37
20 -212 50 -365 63 -143 12 -1797 11 -1827 -1z m1380 -1898 c10 -10 -9 -78
-28 -101 -8 -8 -16 -33 -20 -55 -4 -22 -13 -53 -20 -70 -20 -44 -62 -164 -74
-211 -18 -69 20 -65 -643 -62 l-604 3 -28 23 c-16 12 -34 22 -41 22 -31 0 -60
90 -34 106 6 3 9 18 6 32 -5 25 15 86 32 96 5 4 12 19 16 34 18 84 169 181
295 191 118 9 1133 2 1143 -8z"/>
<path d="M21813 6003 c-8 -3 -13 -22 -13 -46 0 -25 -8 -54 -20 -72 -11 -16
-20 -42 -20 -56 0 -14 -11 -47 -25 -73 -14 -26 -25 -61 -25 -78 0 -17 -6 -36
-13 -42 -8 -6 -26 -49 -41 -96 -16 -47 -33 -91 -38 -98 -6 -7 -15 -33 -19 -59
-5 -25 -15 -54 -23 -62 -7 -9 -16 -35 -19 -59 -3 -24 -12 -51 -20 -60 -8 -9
-14 -32 -14 -50 0 -18 -9 -45 -22 -62 -12 -16 -24 -51 -28 -77 -3 -27 -12 -55
-20 -64 -8 -10 -20 -39 -28 -65 -16 -62 -42 -121 -55 -129 -5 -3 -10 -23 -10
-44 0 -22 -8 -49 -19 -62 -10 -13 -21 -43 -24 -67 -3 -24 -12 -51 -21 -61 -9
-10 -16 -32 -16 -49 0 -17 -11 -52 -25 -78 -14 -26 -25 -58 -25 -72 0 -14 -6
-33 -13 -41 -8 -9 -20 -38 -27 -66 -7 -27 -19 -62 -27 -77 -7 -15 -13 -35 -13
-45 -1 -10 -9 -36 -20 -58 -11 -22 -19 -45 -20 -51 0 -6 -7 -17 -15 -24 -8 -7
-15 -27 -15 -44 0 -17 -9 -48 -20 -69 -11 -20 -20 -49 -20 -64 0 -16 -9 -41
-20 -58 -11 -16 -20 -41 -20 -55 0 -14 -9 -41 -19 -61 -11 -20 -23 -54 -26
-75 -4 -22 -13 -48 -20 -60 -7 -11 -26 -56 -40 -100 -15 -43 -34 -88 -41 -99
-8 -11 -14 -34 -14 -51 0 -17 -9 -43 -21 -58 -11 -15 -18 -33 -15 -41 6 -16
-18 -80 -33 -89 -5 -4 -10 -19 -11 -34 0 -15 -1 -40 -3 -57 l-2 -30 416 -3
416 -2 27 34 c16 22 26 47 26 69 0 19 8 45 19 58 10 13 21 43 24 67 3 24 12
51 20 60 8 9 18 39 22 67 4 27 15 60 26 73 10 14 19 33 19 42 0 16 29 93 49
130 5 9 12 35 16 58 3 23 15 52 26 66 10 13 19 40 19 59 0 20 9 46 21 61 11
15 18 33 15 41 -6 15 18 80 32 89 5 3 12 26 16 52 3 26 11 53 17 61 7 7 34 79
61 160 27 81 55 155 63 163 8 9 15 30 15 46 0 16 9 46 20 67 11 20 20 50 20
66 0 15 9 40 20 54 11 14 20 39 20 56 0 16 11 51 25 77 14 26 25 58 25 72 0
14 6 33 13 41 8 9 26 54 41 100 15 47 34 94 42 105 8 11 14 35 14 52 0 17 9
42 19 56 11 13 19 38 19 55 -1 17 8 46 19 64 11 19 23 51 26 73 4 21 12 46 20
55 8 9 17 36 21 61 4 25 13 55 21 66 8 12 26 59 40 105 46 143 67 198 81 210
8 6 13 23 13 38 -2 26 11 61 33 94 11 16 9 22 -19 47 l-31 28 -399 0 c-219 0
-404 -3 -410 -5z"/>
<path d="M28330 6000 c-41 -4 -104 -13 -140 -19 -36 -7 -81 -13 -100 -13 -19
0 -44 -5 -55 -12 -11 -7 -49 -18 -85 -25 -35 -7 -73 -19 -84 -27 -11 -8 -33
-14 -48 -14 -31 0 -312 -138 -355 -174 -16 -13 -53 -37 -83 -54 -30 -17 -61
-41 -68 -52 -7 -11 -34 -34 -60 -50 -26 -16 -72 -55 -102 -87 -29 -32 -61 -62
-71 -68 -16 -9 -101 -104 -144 -160 -11 -15 -37 -45 -57 -67 -21 -22 -38 -46
-38 -53 0 -13 -21 -40 -64 -85 -8 -8 -18 -28 -22 -43 -3 -16 -24 -49 -45 -74
-22 -24 -39 -51 -39 -60 0 -8 -9 -26 -20 -40 -11 -14 -20 -31 -20 -38 0 -7 -7
-18 -15 -25 -8 -7 -15 -21 -15 -31 0 -11 -9 -28 -20 -39 -12 -12 -19 -32 -18
-53 1 -18 -6 -46 -15 -62 -9 -17 -23 -44 -31 -62 -9 -17 -20 -34 -26 -38 -6
-3 -10 -18 -9 -33 1 -15 -10 -63 -25 -107 -14 -44 -26 -89 -26 -101 0 -12 -6
-40 -14 -62 -36 -101 -43 -517 -10 -569 8 -12 14 -35 14 -50 0 -15 11 -48 25
-72 14 -23 25 -51 25 -61 0 -9 8 -28 18 -41 11 -13 32 -46 48 -74 36 -63 200
-223 236 -231 15 -4 35 -15 44 -25 9 -11 25 -19 34 -19 9 0 27 -9 40 -20 13
-11 31 -20 40 -20 10 0 23 -6 29 -14 7 -9 42 -17 89 -21 42 -4 91 -15 107 -24
27 -14 110 -16 776 -19 l746 -4 17 49 c10 26 23 62 29 78 6 17 17 39 24 50 7
11 13 34 13 51 0 17 9 42 19 56 11 14 19 39 19 57 -1 17 8 44 19 59 11 15 22
46 26 70 3 24 12 51 21 60 17 19 40 142 28 154 -4 4 -304 8 -667 10 l-660 3
-49 23 c-27 12 -54 22 -61 22 -23 0 -136 131 -130 151 3 10 -1 29 -10 43 -20
30 -13 177 12 244 l9 23 862 0 c475 1 875 4 890 8 23 6 29 15 37 58 6 27 15
56 22 64 6 8 14 37 18 64 5 28 16 61 26 74 11 13 19 32 19 43 0 19 28 90 55
140 8 14 15 39 15 56 0 16 9 41 21 56 11 15 18 33 15 41 -3 9 0 26 6 40 26 57
64 54 -869 54 -529 0 -859 3 -865 9 -6 6 -4 21 6 40 9 17 16 38 16 46 0 8 16
28 35 43 19 15 37 40 41 55 17 82 271 277 351 270 13 -1 34 4 46 12 41 26 120
28 768 27 l647 -2 30 32 c21 22 31 45 35 76 2 24 12 52 21 62 10 11 16 25 15
33 -4 22 11 76 26 88 7 6 16 34 20 63 4 29 13 59 20 67 8 8 25 51 40 94 14 44
33 88 41 97 20 22 -6 75 -40 83 -32 7 -1290 4 -1376 -4z"/>
<path d="M30432 5979 c-24 -25 -32 -43 -32 -70 0 -21 -8 -47 -20 -62 -11 -14
-20 -40 -20 -60 0 -19 -9 -45 -20 -60 -11 -14 -23 -46 -26 -71 -4 -25 -13 -51
-20 -57 -8 -6 -14 -20 -14 -31 0 -11 -11 -47 -24 -81 -13 -34 -31 -87 -40
-117 -10 -30 -25 -66 -35 -80 -10 -14 -20 -44 -24 -68 -3 -24 -12 -51 -20 -60
-8 -9 -17 -36 -20 -60 -3 -24 -12 -51 -20 -60 -8 -9 -17 -36 -20 -60 -3 -24
-12 -51 -21 -61 -9 -10 -19 -40 -23 -67 -3 -27 -12 -53 -18 -59 -7 -5 -25 -49
-40 -97 -15 -48 -33 -93 -41 -99 -8 -6 -14 -28 -14 -49 0 -22 -8 -48 -20 -63
-11 -14 -20 -40 -20 -60 0 -19 -8 -45 -18 -58 -11 -13 -22 -46 -26 -73 -3 -27
-13 -57 -21 -66 -8 -9 -19 -37 -23 -62 -5 -25 -16 -56 -25 -69 -10 -13 -17
-33 -17 -44 -1 -11 -9 -38 -20 -60 -11 -22 -19 -45 -20 -51 0 -6 -7 -17 -15
-24 -8 -7 -15 -29 -15 -50 0 -22 -8 -48 -20 -63 -11 -14 -20 -40 -20 -60 0
-19 -8 -45 -19 -58 -10 -13 -21 -43 -24 -67 -3 -24 -12 -51 -21 -61 -8 -9 -18
-37 -22 -61 -4 -25 -11 -50 -15 -56 -8 -10 -49 -122 -69 -189 -19 -64 -42
-121 -56 -136 -8 -8 -14 -31 -14 -51 0 -20 -9 -46 -20 -61 -26 -32 -26 -73 -1
-87 13 -6 163 -10 421 -10 435 0 440 1 440 53 0 18 11 55 25 82 13 28 25 60
25 72 0 13 9 37 20 55 11 18 20 47 20 64 0 17 6 37 14 43 8 7 19 33 25 59 5
26 17 61 25 77 9 17 16 35 16 41 0 6 6 17 14 23 7 6 16 32 19 57 2 24 12 53
21 63 9 10 16 33 16 52 0 19 9 48 20 64 11 17 20 44 20 61 0 17 8 42 19 55 10
13 21 47 25 74 4 28 14 57 21 65 7 8 25 51 40 95 14 44 33 87 41 96 8 8 14 31
14 51 0 20 9 46 20 61 11 14 20 40 20 60 0 19 9 45 20 60 11 14 20 40 20 60 0
19 9 45 20 60 11 14 23 47 26 74 4 26 12 55 19 63 7 8 25 51 40 95 15 44 34
87 41 96 8 8 14 29 14 45 0 16 9 46 20 67 11 20 20 50 20 66 0 15 8 39 19 52
10 13 21 43 24 67 3 24 12 51 21 60 8 10 18 39 23 66 l8 49 224 -1 c186 -1
227 -4 241 -17 9 -8 28 -15 43 -15 72 0 145 -106 133 -194 -21 -164 -29 -207
-46 -248 -11 -26 -20 -54 -20 -63 0 -9 -8 -35 -19 -58 -28 -63 -36 -108 -20
-118 8 -5 190 -9 405 -9 l392 0 26 34 c15 21 26 48 26 67 0 17 8 46 19 63 10
17 22 48 25 70 4 21 16 55 27 75 10 20 19 45 19 56 0 12 9 38 20 60 11 22 20
53 20 69 0 16 7 37 16 47 9 10 19 49 24 95 5 44 13 95 19 114 28 91 4 288 -48
396 -26 54 -107 119 -199 160 -42 19 -88 41 -102 49 -14 7 -66 17 -115 21 -50
4 -103 14 -120 22 -26 14 -129 16 -806 20 l-776 4 -31 -33z"/>
<path d="M5783 5680 c-50 -25 -64 -37 -73 -64 -6 -18 -22 -44 -36 -57 -38 -36
-64 -96 -71 -167 -6 -64 0 -87 48 -187 10 -22 19 -49 19 -59 0 -11 27 -75 60
-142 33 -67 60 -131 60 -142 0 -18 61 -153 105 -234 8 -14 15 -34 15 -45 0
-10 11 -40 25 -68 13 -27 25 -55 25 -61 0 -6 7 -17 15 -24 8 -7 15 -26 15 -42
0 -16 18 -63 40 -106 l40 -77 -20 -27 c-11 -15 -20 -35 -20 -44 0 -9 -11 -29
-25 -46 -14 -16 -25 -37 -25 -47 0 -10 -12 -28 -26 -42 -14 -13 -44 -61 -65
-105 -21 -45 -46 -84 -54 -87 -8 -4 -33 -44 -55 -91 -23 -47 -54 -99 -71 -115
-16 -16 -29 -38 -29 -49 0 -10 -9 -27 -19 -36 -11 -10 -22 -30 -26 -44 -3 -15
-19 -40 -35 -57 -15 -16 -31 -41 -35 -55 -8 -29 -53 -80 -70 -80 -7 0 -28 17
-48 38 -19 20 -52 51 -73 67 -20 17 -77 66 -127 110 -49 44 -110 98 -136 120
-25 22 -56 50 -67 61 -12 12 -48 41 -80 65 -33 24 -95 80 -139 124 -44 44
-107 103 -140 130 -83 69 -144 124 -256 230 -52 49 -117 109 -145 131 -92 77
-249 217 -284 253 -33 33 -82 77 -220 195 -30 26 -104 95 -165 154 -120 118
-186 172 -208 172 -8 0 -22 9 -32 20 -10 11 -24 20 -32 20 -8 0 -28 7 -45 16
-61 32 -396 32 -768 -1 -36 -3 -171 -10 -300 -15 -129 -5 -327 -16 -440 -25
-113 -8 -330 -19 -482 -25 -385 -15 -419 -22 -506 -109 -48 -48 -67 -100 -81
-214 -11 -97 -11 -100 15 -157 28 -63 74 -113 114 -125 14 -4 36 -15 50 -25
14 -10 39 -20 55 -23 53 -10 150 -37 167 -47 10 -6 25 -10 35 -10 9 0 30 -4
47 -10 211 -66 220 -68 321 -90 48 -10 282 -75 345 -97 25 -8 65 -18 90 -23
25 -5 61 -13 80 -19 19 -5 51 -14 70 -19 19 -5 73 -20 120 -34 77 -24 156 -45
250 -68 19 -5 96 -25 170 -45 74 -20 155 -41 180 -46 70 -16 122 -29 156 -40
17 -5 39 -9 49 -9 17 0 56 -34 85 -77 24 -34 204 -304 233 -348 32 -49 159
-239 187 -280 12 -16 54 -81 95 -143 41 -62 86 -128 100 -145 33 -42 36 -45
66 -92 14 -22 44 -68 67 -102 104 -156 122 -182 166 -250 26 -40 54 -77 62
-84 8 -6 14 -17 14 -24 0 -7 18 -36 40 -64 22 -28 40 -55 40 -60 0 -5 18 -32
40 -60 22 -28 40 -54 40 -58 0 -11 53 -87 67 -96 7 -4 13 -14 13 -22 0 -7 18
-36 40 -64 22 -28 40 -53 40 -55 0 -5 44 -74 59 -92 4 -5 14 -21 21 -35 7 -13
28 -43 46 -66 19 -23 34 -44 34 -48 0 -3 8 -18 19 -33 10 -15 39 -59 65 -99
26 -40 54 -77 62 -84 8 -6 14 -17 14 -24 0 -7 18 -36 40 -64 22 -28 40 -55 40
-60 0 -5 18 -32 40 -60 22 -28 40 -54 40 -58 0 -11 53 -87 67 -96 7 -4 13 -14
13 -22 0 -19 54 -80 93 -104 54 -33 104 -37 151 -13 23 12 52 23 66 26 35 7
136 100 145 133 3 15 24 49 46 76 21 27 39 55 39 62 0 6 12 22 26 36 15 13 37
47 50 74 12 28 36 63 53 78 17 16 31 37 31 48 0 10 16 34 35 53 19 19 37 47
41 63 4 15 24 47 45 70 22 24 39 48 39 54 0 6 14 27 31 47 17 19 37 47 43 61
14 34 59 105 154 246 28 44 52 84 52 90 0 6 15 26 34 44 19 18 37 45 41 59 4
15 24 46 46 69 21 23 39 52 39 64 0 11 16 34 35 51 18 17 37 43 40 57 3 15 19
42 36 61 17 19 37 49 44 65 7 17 25 41 38 53 14 13 31 38 38 55 7 18 27 48 45
68 17 20 35 47 39 60 4 12 25 45 46 72 22 27 39 53 39 58 0 6 9 22 19 37 48
68 173 266 181 285 4 12 22 35 38 51 17 15 33 40 37 54 4 15 24 46 46 69 24
26 39 52 39 67 0 16 11 33 30 47 16 12 36 39 44 59 8 21 29 53 45 71 17 18 34
43 37 54 4 11 24 42 45 69 22 27 39 54 39 60 0 7 16 27 35 46 19 18 37 46 40
61 4 15 13 33 20 39 8 7 22 36 32 66 37 117 -22 287 -125 359 -16 11 -65 55
-108 97 -43 43 -146 140 -228 215 -82 76 -213 201 -290 278 -78 77 -190 185
-250 240 -197 180 -300 274 -351 321 -99 91 -175 106 -282 54z"/>
</g>
</svg>
