<svg xmlns="http://www.w3.org/2000/svg" viewBox="0 0 1055.986026 301.953861" fill="#ffffff">
<g transform="translate(-72.027365,750.953861) scale(0.100000,-0.100000)" fill="#ffffff" stroke="none">
<path d="M10957 7486 c-21 -13 -66 -29 -100 -36 -34 -6 -73 -19 -87 -28 -14
-9 -38 -22 -55 -28 -53 -19 -45 -52 24 -109 34 -28 65 -63 71 -78 8 -24 16
-1475 8 -1527 -1 -8 1 -39 6 -68 5 -33 4 -70 -2 -95 -6 -23 -14 -55 -17 -70
-4 -21 -16 -32 -43 -43 -136 -56 -157 -74 -132 -114 10 -17 600 -25 633 -8 25
13 22 63 -5 82 -12 9 -44 19 -71 22 -108 15 -106 -4 -107 844 0 371 -3 716 -6
765 -4 50 -1 169 5 266 14 216 6 249 -59 249 -14 -1 -42 -11 -63 -24z"/>
<path d="M7905 7226 c-54 -25 -101 -72 -111 -112 -11 -44 1 -136 20 -146 9 -5
32 -25 51 -44 39 -38 89 -45 148 -20 140 61 156 251 27 312 -73 34 -82 35
-135 10z"/>
<path d="M8777 6718 c-9 -7 -21 -25 -26 -39 -14 -38 -73 -117 -93 -124 -9 -3
-33 -19 -53 -35 -21 -17 -47 -30 -57 -30 -33 0 -90 -65 -86 -97 3 -27 6 -28
70 -33 37 -3 71 -9 77 -15 6 -6 11 -184 13 -460 4 -501 1 -483 75 -561 38 -40
132 -81 223 -98 104 -19 356 104 348 171 -5 44 -30 50 -87 24 -83 -40 -190
-26 -246 32 -61 62 -62 69 -66 567 l-2 315 34 18 c29 16 50 18 134 13 127 -7
235 6 252 30 20 28 16 91 -7 114 -20 20 -83 25 -300 20 -92 -2 -110 16 -103
103 5 59 4 65 -18 81 -28 19 -59 21 -82 4z"/>
<path d="M6410 6613 c-14 -9 -36 -26 -50 -38 -14 -12 -40 -27 -59 -34 -19 -6
-42 -17 -50 -25 -9 -7 -32 -19 -52 -25 -87 -28 -95 -101 -16 -139 l47 -22 1
-408 c0 -224 0 -603 0 -842 l0 -435 -32 -27 c-18 -16 -49 -31 -69 -34 -77 -13
-101 -35 -80 -74 10 -19 21 -20 333 -20 340 0 347 1 347 46 0 32 -22 45 -87
51 -70 7 -128 36 -143 73 -17 40 -9 545 8 562 10 10 44 12 130 10 145 -3 330
31 393 72 21 14 47 26 58 26 28 0 241 190 241 215 0 4 13 22 29 40 16 18 31
50 35 73 3 23 15 56 26 75 46 78 47 419 2 487 -9 14 -22 42 -28 62 -36 116
-210 252 -344 270 -175 23 -318 -3 -470 -88 -67 -37 -70 -38 -82 -26 -6 6 -10
38 -9 75 3 104 -23 138 -79 100z m453 -216 c18 -8 38 -21 46 -30 8 -10 28 -17
50 -17 30 0 42 -8 76 -46 22 -25 52 -59 68 -75 15 -16 27 -40 27 -52 0 -12 12
-47 27 -77 61 -125 30 -420 -60 -566 -29 -46 -106 -124 -124 -124 -8 0 -32 -9
-55 -21 -57 -29 -178 -38 -212 -15 -14 9 -50 25 -81 37 -32 12 -60 30 -67 42
-6 12 -24 37 -39 55 l-29 33 0 353 0 354 33 47 c25 37 42 51 75 61 23 6 49 18
58 25 12 10 76 21 157 28 10 0 32 -5 50 -12z"/>
<path d="M3225 6604 c-22 -8 -52 -21 -68 -29 -15 -9 -32 -13 -37 -10 -13 8
-870 8 -902 0 -16 -4 -34 2 -57 20 -38 27 -92 33 -110 12 -6 -8 -15 -40 -20
-73 -5 -32 -19 -96 -31 -141 -27 -104 -24 -137 11 -141 34 -4 85 39 94 79 9
39 48 84 99 113 45 26 264 44 299 24 16 -8 17 -50 17 -512 0 -576 8 -531 -95
-560 -33 -9 -71 -20 -84 -24 -41 -12 -57 -46 -32 -71 19 -19 33 -20 336 -20
332 -1 355 2 355 43 0 34 -30 56 -79 56 -24 0 -66 11 -97 25 l-54 25 -1 87
c-5 315 1 937 10 946 5 5 59 10 118 10 164 0 251 -49 268 -148 11 -65 15 -73
38 -79 44 -11 67 18 65 82 -2 59 15 194 27 225 9 22 -1 63 -17 70 -7 2 -31 -2
-53 -9z"/>
<path d="M3995 6601 c-16 -4 -40 -13 -52 -19 -12 -7 -58 -21 -102 -31 -45 -11
-93 -29 -107 -40 -15 -12 -31 -21 -36 -21 -11 0 -54 -33 -130 -100 -61 -55
-145 -179 -158 -235 -5 -22 -18 -66 -30 -97 -29 -84 -27 -203 5 -302 14 -42
25 -83 25 -90 0 -7 14 -30 30 -51 17 -21 30 -44 30 -51 0 -8 14 -29 31 -46 17
-18 34 -37 37 -43 17 -27 164 -145 180 -145 11 0 40 -11 65 -24 97 -52 455
-89 542 -56 14 5 67 15 118 20 l92 11 43 47 c24 26 45 58 48 72 2 14 9 39 15
55 13 36 28 97 36 142 9 57 -87 68 -114 12 -6 -13 -17 -37 -24 -53 -21 -44
-117 -131 -184 -167 -88 -48 -264 -55 -349 -15 -30 14 -59 26 -65 26 -17 0
-112 88 -182 169 -12 13 -25 38 -31 55 -5 17 -21 55 -36 85 -37 77 -39 426 -3
465 12 13 27 41 33 62 21 77 158 209 243 233 109 32 330 29 387 -5 61 -35 127
-110 167 -188 47 -90 60 -102 93 -85 19 10 20 16 13 162 -8 175 -11 182 -68
198 -23 6 -53 17 -67 24 -52 28 -409 47 -495 26z"/>
<path d="M8020 6575 c-14 -14 -35 -25 -50 -25 -14 0 -42 -11 -61 -25 -19 -14
-58 -33 -86 -41 -65 -19 -83 -36 -83 -79 0 -28 6 -37 29 -49 16 -9 40 -29 55
-47 l26 -31 -2 -426 -3 -426 -32 -19 c-18 -10 -54 -24 -80 -30 -53 -13 -78
-51 -57 -85 14 -21 576 -31 600 -11 40 33 0 99 -60 99 -33 0 -91 33 -100 57
-4 9 -6 270 -6 579 1 310 -1 568 -5 574 -12 19 -61 11 -85 -15z"/>
<path d="M794 6557 c-17 -10 -19 -58 -2 -75 7 -7 27 -12 46 -12 26 0 43 -9 72
-38 l38 -38 1 -460 c1 -287 -2 -470 -8 -487 -13 -34 -58 -57 -133 -67 -33 -5
-66 -14 -74 -21 -20 -16 -18 -66 4 -78 10 -5 237 -8 548 -7 597 1 566 -3 580
75 4 20 15 60 25 90 28 81 35 173 15 190 -33 27 -94 -15 -115 -80 -21 -65 -98
-135 -162 -148 -155 -32 -403 -9 -421 38 -11 30 -15 418 -4 428 13 13 159 21
224 12 86 -12 98 -20 117 -81 21 -64 41 -88 70 -88 42 0 45 16 44 234 0 229
-3 240 -63 234 -31 -3 -37 -12 -51 -81 -3 -15 -18 -41 -33 -58 l-28 -32 -128
-1 c-168 -1 -163 -6 -159 131 1 59 3 149 3 200 0 128 -5 125 184 119 132 -3
158 -7 209 -29 70 -30 67 -26 78 -79 14 -60 53 -108 88 -108 43 0 56 22 43 73
-6 23 -14 74 -17 112 -7 86 -21 122 -49 131 -30 10 -925 11 -942 1z"/>
<path d="M5325 6551 c-45 -4 -82 -14 -105 -27 -19 -12 -49 -25 -67 -29 -18 -3
-49 -20 -69 -36 -20 -16 -43 -29 -51 -29 -7 0 -50 -35 -94 -79 -86 -83 -119
-153 -98 -208 17 -47 107 -38 190 19 57 39 68 57 73 121 6 85 54 122 166 130
109 8 120 4 185 -76 l50 -61 3 -131 c2 -132 -5 -168 -38 -186 -42 -24 -149
-69 -161 -69 -8 0 -34 -11 -59 -24 -25 -13 -70 -29 -100 -36 -30 -7 -66 -20
-80 -30 -14 -9 -46 -24 -71 -34 -235 -86 -219 -419 25 -510 74 -28 128 -32
191 -15 53 14 245 107 245 118 0 31 38 18 89 -32 51 -48 106 -78 187 -101 26
-8 157 39 196 68 15 12 38 29 52 39 51 35 24 95 -36 82 -205 -43 -231 17 -203
463 22 344 18 425 -27 514 -68 136 -173 179 -393 159z m169 -747 c22 -21 14
-229 -10 -279 -57 -122 -252 -164 -340 -74 -39 40 -39 40 -39 121 l0 80 45 39
c24 21 58 43 75 50 16 6 46 18 65 26 35 16 155 51 177 52 6 1 19 -6 27 -15z"/>
<path d="M9882 6549 c-29 -5 -67 -16 -84 -25 -16 -9 -48 -22 -69 -29 -22 -8
-54 -26 -73 -40 -18 -14 -36 -25 -40 -25 -11 0 -104 -79 -145 -123 -130 -140
-41 -257 119 -157 72 45 80 56 80 102 0 53 59 144 99 152 241 46 326 -44 306
-328 -8 -123 -5 -118 -80 -144 -33 -11 -91 -33 -130 -48 -38 -14 -101 -37
-139 -50 -38 -13 -83 -33 -100 -43 -17 -10 -45 -22 -63 -26 -36 -7 -117 -75
-137 -114 -60 -117 7 -330 116 -370 18 -7 51 -21 74 -32 55 -25 139 -25 195 1
24 11 53 20 63 20 11 0 33 11 50 24 33 25 121 66 141 66 7 0 32 -18 57 -39 43
-38 123 -80 179 -94 65 -16 289 96 289 145 0 32 -45 53 -89 39 -64 -19 -94
-14 -135 22 -50 43 -55 88 -43 435 12 384 8 450 -34 536 -19 38 -43 74 -54 80
-11 6 -35 22 -53 35 -51 36 -184 49 -300 30z m176 -741 c8 -8 12 -53 12 -137
0 -118 -1 -127 -26 -163 -53 -76 -117 -103 -236 -100 -55 2 -57 3 -97 53 -43
54 -57 140 -31 189 16 30 111 92 163 106 26 7 55 18 64 26 9 7 39 18 67 24 69
16 70 16 84 2z"/>
</g>
</svg>
