<svg xmlns="http://www.w3.org/2000/svg" viewBox="0 0 4017.078980 720.965825" fill="#ffffff">
<g transform="translate(-173.805952,834.946841) scale(0.100000,-0.100000)" fill="#ffffff" stroke="none">
<path d="M1873 8319 c-29 -17 -65 -45 -81 -64 l-30 -33 -6 -1198 c-3 -660 -9
-1410 -12 -1669 -5 -409 -4 -473 9 -490 15 -20 30 -20 690 -25 528 -4 677 -8
689 -18 34 -27 39 -66 36 -238 -3 -194 -1 -187 -103 -269 -140 -112 -203 -209
-225 -347 -43 -263 170 -526 433 -537 282 -11 507 199 507 472 0 177 -77 311
-248 432 -84 59 -82 52 -82 287 0 159 1 168 23 193 l22 26 942 2 c518 1 945 6
950 10 4 5 8 372 8 815 l0 807 -68 3 c-76 3 -64 10 -174 -110 -69 -76 -177
-141 -318 -191 -100 -36 -345 -32 -439 6 -395 161 -577 619 -392 987 130 259
370 399 661 387 239 -10 369 -76 553 -281 48 -53 114 -72 163 -46 18 10 19 27
19 555 0 528 -1 545 -19 555 -13 7 -572 10 -1738 9 l-1718 0 -52 -30z"/>
<path d="M5637 8343 c-4 -3 -7 -296 -7 -650 l0 -643 -42 -27 -43 -28 -190 0
c-235 0 -250 5 -315 101 -86 127 -184 198 -306 224 -301 62 -574 -159 -574
-466 0 -95 2 -102 56 -222 85 -186 334 -288 559 -228 97 25 202 106 270 205
75 111 50 105 357 102 164 -1 167 -1 197 -27 l31 -26 0 -883 c0 -486 3 -890 6
-899 6 -14 93 -16 885 -16 l879 0 12 26 c16 34 -7 77 -66 124 -183 149 -262
317 -260 560 1 210 35 300 173 459 135 156 285 227 497 238 550 28 905 -529
660 -1034 -19 -38 -42 -73 -50 -76 -9 -4 -16 -13 -16 -21 0 -8 -40 -52 -88
-98 -96 -90 -116 -126 -86 -159 16 -18 41 -19 570 -19 l554 0 5 23 c3 12 4
796 3 1742 l-3 1720 -1831 3 c-1007 1 -1834 -1 -1837 -5z"/>
<path d="M7660 6035 c-140 -40 -248 -132 -313 -264 -31 -64 -32 -69 -32 -196
l1 -130 41 -85 c42 -88 105 -159 188 -212 90 -57 90 -57 93 -263 l4 -183 -37
-41 -37 -41 -963 0 c-869 0 -963 -2 -969 -16 -14 -35 -7 -1591 7 -1603 12 -9
83 -8 143 4 11 3 42 31 67 63 26 32 65 71 88 88 22 16 48 36 56 44 22 20 44
33 139 80 l82 40 180 0 c174 0 182 -1 248 -28 294 -120 464 -361 464 -658 0
-414 -303 -719 -715 -719 -197 0 -342 63 -513 221 -48 44 -98 86 -111 93 -32
18 -121 17 -132 0 -10 -16 -12 -1031 -3 -1067 l6 -22 1482 1 c1955 2 2044 6
2117 86 70 76 64 -83 67 1703 2 883 0 1624 -3 1647 l-6 43 -659 2 -660 3 -27
28 c-27 26 -28 32 -33 150 -10 251 -1 285 95 357 183 136 252 281 227 479 -12
97 -25 129 -83 206 -36 48 -134 133 -189 164 -67 38 -223 51 -310 26z"/>
<path d="M11514 5545 c-10 -8 -31 -15 -45 -15 -15 0 -32 -7 -39 -15 -7 -8 -21
-15 -30 -15 -10 0 -20 -4 -22 -9 -1 -4 -25 -27 -53 -51 -50 -43 -115 -121
-115 -138 0 -5 -7 -15 -15 -22 -8 -7 -15 -23 -15 -35 0 -12 -7 -28 -15 -35 -8
-7 -15 -27 -15 -45 0 -18 -7 -49 -15 -68 -22 -52 -21 -692 0 -752 8 -22 15
-51 15 -63 0 -13 6 -36 13 -50 8 -15 22 -45 33 -67 22 -49 32 -61 114 -141 60
-60 89 -78 180 -114 51 -21 315 -26 343 -7 12 8 34 17 50 21 15 3 27 11 27 16
0 6 5 10 11 10 16 0 91 68 109 99 14 25 15 23 20 -49 l5 -75 90 -3 c50 -2 100
0 113 3 l22 5 0 373 c0 321 -2 376 -16 395 l-15 22 -354 0 c-287 0 -356 -3
-367 -14 -19 -18 -15 -195 4 -207 7 -5 122 -9 255 -9 l242 0 -6 -72 c-3 -40
-12 -82 -19 -93 -8 -11 -14 -27 -14 -35 0 -26 -97 -127 -143 -149 -62 -30
-231 -30 -293 0 -52 25 -106 74 -126 114 -8 17 -22 45 -31 63 -9 19 -17 48
-17 65 -1 18 -7 59 -15 92 -17 70 -21 398 -5 439 5 14 12 56 16 93 3 38 12 82
19 98 8 17 23 51 34 76 12 25 29 53 39 62 86 80 105 87 237 87 88 0 115 -3
125 -15 7 -8 20 -15 29 -15 33 0 104 -76 131 -140 5 -14 14 -33 20 -42 5 -9
10 -47 11 -83 3 -106 25 -125 139 -124 119 1 129 11 112 112 -23 140 -31 180
-42 191 -5 5 -10 18 -10 27 0 46 -185 259 -224 259 -8 0 -27 6 -43 14 -88 44
-101 46 -261 46 -124 0 -162 -3 -178 -15z"/>
<path d="M17734 5545 c-10 -8 -31 -15 -45 -15 -15 0 -32 -7 -39 -15 -7 -8 -16
-15 -21 -15 -18 0 -102 -64 -135 -104 -39 -47 -47 -60 -83 -133 -13 -26 -28
-57 -34 -68 -6 -11 -14 -42 -18 -70 -4 -27 -12 -79 -18 -115 -13 -80 -13 -505
0 -580 5 -30 14 -77 18 -105 9 -52 32 -119 53 -157 49 -87 177 -218 213 -218
7 0 18 -7 25 -15 7 -8 24 -15 39 -15 14 0 35 -7 45 -15 29 -22 333 -22 362 0
10 8 31 15 45 15 15 0 32 7 39 15 7 8 18 15 24 15 33 0 173 141 205 206 13 27
30 61 38 76 7 14 13 41 13 60 0 18 7 42 15 52 22 29 22 717 0 760 -8 15 -15
43 -15 61 0 18 -6 38 -14 44 -7 6 -16 25 -20 42 -12 63 -146 217 -213 245 -17
8 -34 18 -38 24 -3 5 -17 10 -29 10 -13 0 -37 7 -52 15 -41 21 -331 22 -360 0z
m306 -230 c7 -8 17 -15 23 -15 38 0 137 -123 137 -172 0 -9 7 -21 15 -28 9 -8
15 -30 15 -59 0 -26 7 -73 15 -104 20 -79 20 -378 0 -462 -8 -33 -14 -74 -15
-92 0 -27 -12 -59 -42 -113 -4 -8 -12 -24 -17 -36 -11 -24 -70 -73 -118 -98
-48 -24 -217 -22 -275 3 -69 31 -158 131 -158 179 0 9 -8 29 -17 42 -16 23
-18 56 -18 355 l1 330 32 66 c18 36 32 72 32 80 0 19 91 109 111 109 9 0 22 7
29 15 10 12 37 15 125 15 88 0 115 -3 125 -15z"/>
<path d="M19294 5545 c-10 -8 -27 -15 -38 -15 -21 0 -128 -63 -170 -100 -32
-28 -91 -115 -120 -175 -10 -22 -24 -49 -29 -60 -6 -11 -14 -42 -18 -70 -4
-27 -12 -79 -18 -115 -13 -83 -13 -530 0 -590 6 -25 14 -67 19 -95 9 -59 31
-120 59 -166 12 -19 24 -41 28 -49 13 -29 115 -128 151 -146 20 -11 43 -25 50
-31 7 -7 23 -13 35 -13 12 -1 33 -7 47 -15 14 -8 37 -14 53 -15 l27 0 0 -106
c0 -100 1 -107 28 -140 57 -73 91 -84 264 -84 184 0 178 -4 178 110 0 110 0
110 -126 110 -115 0 -117 1 -120 67 -1 40 1 43 23 43 14 0 37 6 51 13 15 8 42
21 60 30 19 9 40 17 47 17 26 0 170 153 194 205 13 28 30 62 37 77 8 14 14 39
14 55 1 15 7 39 15 53 22 38 22 722 0 764 -8 15 -15 43 -15 61 0 18 -7 38 -15
45 -8 7 -15 21 -15 32 0 48 -148 224 -215 254 -16 8 -37 18 -45 23 -73 42
-389 61 -436 26z m331 -243 c55 -34 105 -83 105 -103 0 -9 7 -22 15 -29 8 -7
15 -20 15 -29 0 -10 7 -26 15 -37 8 -10 15 -39 15 -64 0 -25 7 -72 15 -103 20
-79 20 -378 0 -462 -8 -33 -14 -76 -15 -96 0 -20 -7 -42 -15 -49 -8 -7 -15
-23 -15 -35 0 -12 -7 -28 -15 -35 -8 -7 -15 -18 -15 -26 0 -16 -62 -67 -115
-94 -47 -24 -229 -29 -268 -8 -87 48 -167 136 -167 185 0 10 -8 30 -17 43 -16
23 -18 57 -18 355 0 298 2 334 18 358 9 14 17 35 17 45 0 11 7 25 15 32 8 7
15 22 15 34 0 26 79 103 130 128 69 34 223 28 285 -10z"/>
<path d="M23954 5545 c-10 -8 -33 -15 -51 -15 -17 0 -35 -5 -38 -11 -4 -5 -17
-15 -28 -20 -81 -37 -157 -113 -202 -202 -35 -68 -35 -70 -35 -197 0 -101 3
-130 15 -140 8 -7 15 -25 15 -40 0 -16 7 -30 15 -34 8 -3 15 -12 15 -20 0 -27
93 -103 160 -131 8 -4 22 -10 30 -15 47 -28 107 -50 139 -50 20 -1 47 -7 61
-15 14 -8 41 -15 60 -15 19 0 53 -7 75 -15 22 -8 56 -14 76 -15 20 0 42 -7 49
-15 7 -8 23 -15 37 -15 66 0 168 -150 150 -222 -17 -68 -33 -114 -44 -126 -7
-7 -18 -21 -25 -30 -17 -22 -63 -52 -81 -52 -8 0 -20 -7 -27 -15 -18 -21 -276
-16 -330 6 -88 36 -190 135 -190 185 0 9 -7 30 -15 47 -8 18 -16 68 -17 112
l-3 80 -107 3 c-99 2 -108 1 -118 -18 -15 -29 -2 -246 16 -261 8 -6 14 -20 14
-30 0 -77 206 -309 275 -309 7 0 26 -6 42 -14 89 -44 99 -46 286 -46 146 0
187 3 203 15 10 8 29 15 41 15 57 0 253 146 253 188 0 5 7 15 15 22 8 7 15 22
15 34 0 11 7 30 15 40 12 15 15 54 15 171 0 117 -3 156 -15 171 -8 10 -15 25
-15 32 0 30 -109 153 -154 173 -11 6 -41 21 -66 34 -25 14 -56 25 -70 25 -14
0 -34 7 -44 15 -12 9 -42 15 -72 15 -29 0 -55 4 -58 9 -4 5 -30 12 -59 15 -60
8 -150 32 -189 52 -14 8 -33 14 -40 14 -20 0 -88 69 -88 89 0 9 -7 25 -15 35
-45 60 51 246 126 246 9 0 22 7 29 15 10 12 39 15 140 15 101 0 130 -3 140
-15 7 -8 22 -15 34 -15 30 0 120 -78 140 -120 8 -20 19 -75 22 -124 9 -109 13
-112 142 -111 70 1 95 4 102 15 15 23 11 160 -5 205 -8 22 -15 50 -15 61 0 12
-7 27 -15 34 -8 7 -15 20 -15 29 -1 20 -96 140 -118 148 -9 4 -33 18 -52 33
-42 32 -101 60 -127 60 -10 0 -27 7 -37 15 -16 12 -56 15 -191 15 -135 0 -175
-3 -191 -15z"/>
<path d="M39510 5545 c-14 -8 -33 -14 -44 -15 -29 0 -127 -64 -180 -118 -51
-52 -57 -61 -95 -139 -13 -26 -30 -60 -37 -75 -8 -14 -14 -41 -14 -60 0 -19
-6 -40 -12 -46 -21 -21 -24 -678 -3 -727 8 -21 15 -51 15 -67 0 -17 6 -42 13
-56 8 -15 22 -45 33 -67 48 -104 212 -254 277 -255 12 -1 33 -7 47 -15 37 -21
338 -21 366 0 10 8 29 15 40 15 12 0 27 7 34 15 7 8 19 15 28 15 39 0 182 141
205 203 3 9 11 17 17 17 5 0 10 10 10 23 0 12 6 31 14 42 7 11 16 34 19 50 3
17 10 48 16 70 6 22 11 66 11 97 0 82 -11 89 -123 86 -112 -4 -123 -15 -133
-128 -4 -41 -13 -84 -20 -95 -8 -11 -14 -25 -14 -33 0 -14 -1 -15 -50 -73 -87
-105 -335 -126 -434 -37 -61 55 -68 66 -111 163 -43 96 -42 730 1 766 8 6 14
17 14 24 0 15 27 72 52 107 10 14 42 42 72 62 l54 36 115 0 c90 0 117 -3 127
-15 7 -8 19 -15 27 -15 21 0 93 -58 104 -84 5 -12 13 -28 18 -36 31 -55 41
-82 41 -114 0 -61 20 -136 40 -146 25 -13 176 -13 201 0 22 12 27 105 8 175
-6 22 -13 54 -16 70 -3 17 -11 39 -18 50 -7 11 -15 32 -19 48 -4 15 -11 27
-16 27 -6 0 -10 5 -10 10 0 15 -40 70 -75 104 -53 50 -112 96 -123 96 -6 0
-25 8 -44 17 -18 9 -45 22 -60 30 -38 19 -334 18 -368 -2z"/>
<path d="M12763 5518 c-13 -21 -16 -1568 -2 -1584 12 -15 967 -22 1003 -8 13
5 16 23 16 93 0 137 37 126 -402 128 l-373 2 -3 231 -2 230 363 0 c269 0 366
3 375 12 19 19 16 183 -4 202 -13 14 -61 16 -375 16 l-359 0 2 231 3 231 367
-1 367 -1 11 41 c12 45 11 144 -2 172 -11 22 -970 27 -985 5z"/>
<path d="M14275 5521 c-9 -16 -7 -1583 3 -1593 5 -5 56 -7 113 -6 l104 3 5
710 c5 734 6 748 39 567 4 -24 13 -48 19 -54 7 -7 12 -23 12 -37 1 -15 7 -37
15 -51 8 -14 14 -34 15 -45 0 -11 7 -33 15 -49 8 -15 15 -43 15 -61 0 -18 7
-38 15 -45 8 -7 15 -23 15 -37 0 -13 7 -40 15 -60 8 -19 15 -45 15 -57 0 -12
7 -31 15 -42 8 -10 15 -30 15 -44 0 -14 7 -36 15 -50 8 -14 15 -38 15 -55 0
-16 7 -39 15 -49 8 -11 15 -32 15 -46 0 -14 7 -35 15 -46 8 -10 15 -33 15 -50
0 -16 7 -39 15 -50 8 -10 15 -35 15 -55 0 -20 7 -42 15 -49 8 -7 15 -27 15
-44 0 -18 7 -41 15 -52 8 -10 15 -29 15 -40 0 -12 9 -42 20 -68 l21 -46 203 0
c153 0 206 3 214 13 15 18 16 1566 1 1584 -16 19 -222 18 -238 -1 -9 -10 -11
-189 -9 -695 2 -375 0 -681 -4 -681 -5 0 -8 12 -8 28 -1 15 -7 38 -15 52 -8
14 -14 39 -15 56 0 16 -7 39 -15 50 -8 10 -15 33 -15 49 0 17 -7 39 -15 49 -8
11 -15 32 -15 46 0 14 -7 35 -15 46 -8 10 -15 35 -15 55 0 20 -7 42 -15 49 -8
7 -15 27 -15 44 -1 17 -7 42 -15 56 -8 14 -14 34 -15 45 0 11 -7 33 -15 49 -8
15 -15 40 -15 55 0 15 -7 36 -15 47 -8 10 -15 33 -15 49 0 17 -7 39 -15 49 -8
11 -15 34 -15 50 0 17 -7 40 -15 50 -8 11 -15 31 -15 45 -1 14 -7 37 -15 51
-8 14 -14 39 -15 56 0 17 -7 37 -15 44 -8 7 -15 26 -15 42 0 16 -6 41 -14 56
-7 15 -16 45 -19 66 -4 22 -12 43 -19 48 -18 11 -405 10 -413 -1z"/>
<path d="M15865 5518 c-3 -7 -4 -368 -3 -803 l3 -790 106 -3 c90 -2 108 0 120
14 11 14 14 76 11 346 l-2 328 373 0 c277 0 376 3 385 12 15 15 16 171 2 199
-10 18 -25 19 -385 19 l-374 0 1 230 c1 204 3 230 17 231 9 0 169 0 356 0 372
-1 389 1 399 51 10 52 7 153 -6 166 -18 18 -997 17 -1003 0z"/>
<path d="M20464 5518 c-12 -17 0 -1134 13 -1214 6 -33 15 -69 20 -80 5 -10 17
-34 26 -52 9 -19 17 -40 17 -48 0 -8 4 -14 8 -14 4 0 21 -18 38 -40 36 -47
126 -120 147 -120 8 0 20 -7 27 -15 7 -8 22 -15 34 -15 11 -1 32 -7 46 -15 37
-21 348 -21 376 0 10 8 27 15 36 15 42 0 123 54 197 130 62 64 71 75 71 88 0
5 6 23 14 39 54 106 51 69 51 733 l0 615 -104 3 c-67 2 -108 -1 -117 -9 -12
-10 -14 -103 -14 -563 0 -604 -1 -612 -63 -719 -56 -94 -105 -117 -257 -117
-138 0 -217 31 -250 98 -8 15 -19 34 -26 42 -37 49 -39 71 -44 675 l-5 590
-116 3 c-86 2 -118 -1 -125 -10z"/>
<path d="M22088 5519 c-23 -13 -28 -1565 -6 -1587 13 -13 970 -18 1002 -6 13
5 16 24 16 100 0 134 31 125 -400 124 -195 0 -361 -1 -368 0 -10 0 -12 50 -12
230 l1 230 362 0 c199 0 368 4 376 9 17 11 23 155 8 186 -17 34 -23 35 -389
35 l-357 0 -1 224 c0 142 3 227 10 231 5 3 171 6 369 6 294 -1 361 2 370 13 8
9 11 49 9 112 l-3 99 -485 2 c-317 2 -491 -1 -502 -8z"/>
<path d="M25120 5511 c-5 -11 -10 -56 -10 -100 0 -118 -11 -113 249 -109 l216
3 5 -690 5 -690 110 0 110 0 5 689 5 690 200 -1 c110 -1 207 1 216 3 28 8 40
55 37 140 l-3 79 -567 3 c-553 2 -567 2 -578 -17z"/>
<path d="M28592 5518 c-7 -7 -12 -26 -12 -42 0 -17 -7 -40 -15 -50 -8 -11 -15
-34 -15 -50 0 -17 -7 -40 -15 -50 -8 -11 -15 -31 -15 -45 -1 -14 -7 -37 -15
-51 -8 -14 -14 -37 -15 -51 0 -14 -7 -34 -15 -45 -8 -10 -15 -32 -15 -49 0
-16 -7 -39 -15 -49 -8 -11 -15 -34 -15 -50 0 -17 -7 -40 -15 -50 -8 -11 -15
-34 -15 -50 0 -17 -7 -40 -15 -50 -8 -11 -15 -34 -15 -50 0 -17 -7 -40 -15
-50 -8 -11 -15 -34 -15 -50 0 -17 -7 -40 -15 -50 -8 -11 -15 -34 -15 -50 0
-17 -7 -40 -15 -50 -8 -11 -15 -31 -15 -45 -1 -14 -7 -37 -15 -51 -8 -14 -14
-39 -15 -56 0 -17 -7 -37 -15 -44 -8 -7 -15 -29 -15 -49 0 -20 -7 -45 -15 -55
-8 -11 -15 -31 -15 -45 -1 -14 -7 -37 -15 -51 -8 -14 -14 -37 -15 -51 0 -14
-7 -34 -15 -45 -8 -11 -14 -41 -15 -71 l0 -53 114 0 c131 0 146 7 146 69 0 22
6 44 15 51 8 7 15 27 15 44 1 17 7 42 15 56 8 14 15 39 15 55 0 17 7 39 15 49
8 11 15 30 15 43 l0 23 320 0 320 0 0 -33 c0 -18 7 -42 15 -53 8 -10 15 -33
15 -50 0 -16 7 -39 15 -50 8 -10 15 -33 15 -50 0 -16 7 -39 15 -50 8 -10 15
-33 15 -50 0 -50 15 -55 141 -52 l114 3 3 33 c2 18 -4 46 -12 64 -9 17 -16 43
-16 58 0 14 -5 31 -11 37 -6 6 -15 29 -19 50 -8 37 -14 58 -40 133 -7 19 -15
51 -18 70 -2 19 -11 44 -18 55 -8 11 -14 31 -14 45 0 15 -7 35 -15 46 -8 10
-15 35 -15 55 0 20 -7 42 -15 49 -8 7 -15 23 -15 37 0 13 -7 40 -15 60 -8 19
-15 45 -15 57 0 12 -7 31 -15 42 -8 10 -15 33 -15 50 0 16 -7 39 -15 50 -8 10
-15 33 -15 50 0 16 -7 39 -15 50 -8 10 -15 33 -15 50 0 16 -7 39 -15 50 -8 10
-15 30 -15 44 0 14 -7 38 -15 54 -8 15 -15 40 -15 55 0 14 -7 35 -15 45 -8 11
-15 34 -15 51 0 17 -5 36 -11 42 -6 6 -15 33 -20 59 -5 26 -15 51 -22 56 -21
13 -391 10 -405 -4z m228 -217 c0 -14 7 -39 15 -55 8 -15 15 -39 15 -53 0 -14
6 -37 14 -51 13 -25 24 -64 46 -152 8 -33 13 -50 40 -130 7 -19 16 -55 21 -80
5 -24 14 -49 19 -54 6 -6 10 -24 10 -41 0 -17 6 -39 14 -50 17 -25 28 -93 15
-97 -5 -2 -112 -2 -239 0 l-230 3 7 47 c3 26 12 56 19 67 8 11 14 33 14 50 0
16 7 39 15 49 8 11 15 34 15 51 0 17 7 40 15 51 8 10 15 33 15 49 0 17 7 41
15 55 8 14 14 37 15 51 0 14 7 34 15 45 8 10 15 33 15 50 0 18 7 45 15 60 8
16 15 40 15 54 0 14 7 34 15 44 8 11 15 34 15 51 0 18 3 35 7 39 11 11 33 -24
33 -53z"/>
<path d="M29815 5518 c-3 -7 -4 -368 -3 -803 l3 -790 110 0 110 0 3 715 3 715
19 -55 c11 -30 19 -64 20 -76 0 -11 7 -29 15 -40 8 -10 15 -33 15 -50 0 -16 7
-39 15 -50 8 -10 15 -33 15 -50 0 -16 7 -39 15 -50 8 -10 15 -32 15 -49 0 -16
7 -39 15 -49 8 -11 15 -31 15 -45 1 -14 7 -37 15 -51 8 -14 14 -37 15 -51 0
-14 7 -34 15 -45 8 -10 15 -32 15 -49 0 -16 7 -41 15 -55 8 -14 14 -39 15 -56
0 -17 7 -37 15 -44 8 -7 15 -27 15 -44 0 -18 7 -41 15 -52 8 -10 15 -30 15
-44 0 -14 7 -38 15 -54 8 -15 15 -38 15 -50 0 -11 7 -34 15 -50 8 -15 15 -40
15 -55 0 -14 7 -35 15 -45 8 -11 15 -28 15 -39 0 -10 6 -33 14 -50 8 -18 16
-43 18 -57 l3 -25 215 0 215 0 0 800 0 800 -109 3 c-72 2 -113 -1 -122 -9 -13
-10 -14 -112 -12 -686 2 -397 -1 -672 -6 -670 -10 3 -35 84 -43 139 -3 21 -11
42 -19 49 -8 6 -14 26 -14 43 -1 17 -7 42 -15 56 -8 14 -14 34 -15 45 0 11 -7
33 -15 49 -8 15 -15 40 -15 55 0 15 -7 36 -15 47 -8 10 -15 33 -15 49 0 17 -7
39 -15 49 -8 11 -15 34 -15 51 0 17 -5 36 -11 42 -6 6 -15 29 -19 50 -5 21
-13 53 -19 71 -6 17 -16 47 -22 65 -6 17 -14 49 -19 70 -4 21 -13 44 -19 50
-6 6 -11 25 -11 42 0 17 -7 40 -15 51 -8 10 -15 33 -15 50 0 16 -7 39 -15 50
-8 10 -15 33 -15 49 0 17 -7 39 -15 49 -8 11 -15 34 -15 52 0 20 -6 34 -16 38
-33 13 -414 7 -419 -6z"/>
<path d="M31707 5523 c-4 -3 -7 -16 -7 -28 0 -12 -7 -30 -15 -41 -8 -10 -15
-32 -15 -49 0 -16 -7 -39 -15 -49 -8 -11 -15 -34 -15 -50 0 -17 -7 -40 -15
-50 -8 -11 -15 -34 -15 -50 0 -17 -7 -40 -15 -50 -8 -11 -15 -32 -15 -47 0
-15 -7 -40 -15 -55 -8 -16 -15 -38 -15 -49 -1 -11 -7 -31 -15 -45 -8 -14 -14
-39 -15 -56 0 -17 -7 -37 -15 -44 -8 -7 -15 -27 -15 -44 -1 -17 -7 -42 -15
-56 -8 -14 -14 -36 -15 -50 0 -14 -6 -34 -14 -45 -7 -11 -16 -36 -18 -55 -3
-19 -11 -50 -17 -67 -6 -18 -16 -48 -22 -65 -6 -18 -14 -46 -17 -63 -2 -16
-11 -39 -18 -50 -8 -11 -14 -34 -14 -51 0 -17 -7 -37 -15 -44 -8 -7 -15 -29
-15 -49 0 -20 -7 -45 -15 -55 -8 -11 -15 -34 -15 -51 0 -17 -7 -40 -15 -51 -8
-10 -15 -33 -15 -51 0 -17 -4 -35 -10 -38 -16 -10 -12 -42 6 -49 9 -3 62 -6
118 -6 115 0 146 19 146 92 0 18 7 42 15 52 8 11 15 34 15 50 1 17 7 42 15 56
8 14 14 37 15 51 0 14 7 40 16 57 l15 32 308 0 c333 0 331 0 331 -55 0 -17 7
-40 15 -51 8 -10 15 -32 15 -49 0 -16 7 -43 15 -59 8 -15 15 -43 15 -61 0 -18
6 -38 14 -45 8 -6 16 -24 18 -38 l3 -27 125 0 c139 0 147 4 116 67 -9 17 -16
43 -16 58 0 14 -7 35 -15 46 -8 10 -15 33 -15 49 0 17 -7 41 -15 55 -8 14 -14
37 -15 51 0 14 -7 34 -15 45 -8 10 -15 33 -15 50 0 16 -7 39 -15 50 -8 10 -15
33 -15 50 0 16 -7 39 -15 50 -8 10 -15 33 -15 49 0 17 -7 39 -15 49 -8 11 -15
34 -15 51 0 17 -5 36 -11 42 -6 6 -15 29 -19 50 -8 36 -14 58 -41 136 -7 17
-14 49 -16 69 -3 21 -11 42 -19 49 -8 6 -14 28 -14 49 0 21 -7 43 -15 50 -8 7
-15 27 -15 44 -1 17 -7 42 -15 56 -8 14 -14 37 -15 51 0 14 -7 34 -15 45 -8
10 -15 33 -15 50 0 16 -7 39 -15 50 -8 10 -15 33 -15 49 0 17 -9 45 -20 63
l-20 32 -193 0 c-107 0 -197 -3 -200 -7z m222 -210 c7 -32 18 -69 23 -83 6
-14 14 -41 18 -60 5 -19 13 -50 19 -67 6 -18 16 -48 22 -65 6 -18 14 -52 19
-76 4 -24 12 -48 18 -54 7 -7 12 -26 12 -43 0 -17 6 -39 14 -50 7 -11 16 -36
18 -55 5 -33 10 -48 38 -130 7 -19 13 -48 14 -63 l1 -28 -239 0 c-131 0 -241
2 -243 5 -3 3 1 16 9 28 8 13 18 39 20 58 3 19 11 51 18 70 25 74 32 96 39
130 4 19 13 45 19 57 7 12 12 34 12 50 0 15 7 37 15 47 8 11 15 34 15 50 0 17
7 40 15 50 8 11 15 34 15 51 0 17 7 40 15 51 8 10 15 35 15 54 0 19 7 44 15
54 8 11 15 35 15 54 0 49 15 31 29 -35z"/>
<path d="M32951 5511 c-8 -13 -11 -273 -11 -800 l0 -781 23 -5 c12 -3 249 -4
527 -3 l505 3 3 99 c2 65 -1 103 -9 112 -10 12 -75 14 -403 14 l-391 -1 -5
688 -5 688 -112 3 c-103 2 -113 1 -122 -17z"/>
<path d="M34377 5523 c-11 -11 -8 -43 7 -71 8 -15 17 -34 20 -42 3 -8 10 -22
15 -30 9 -16 94 -194 105 -220 3 -8 17 -35 31 -59 14 -24 25 -50 25 -56 0 -7
7 -18 15 -25 8 -7 15 -21 15 -31 0 -9 7 -24 15 -33 8 -8 15 -23 15 -34 0 -11
7 -25 15 -32 8 -7 15 -20 15 -30 0 -10 7 -23 15 -30 8 -7 15 -20 15 -30 0 -10
7 -23 15 -30 8 -7 15 -19 15 -26 0 -12 47 -114 71 -154 5 -8 12 -22 15 -30 18
-45 41 -84 57 -94 15 -10 17 -34 17 -267 0 -207 3 -259 14 -268 9 -8 51 -11
122 -9 l109 3 3 264 2 264 30 30 c17 17 30 35 30 41 0 5 28 66 61 135 34 69
89 182 122 251 33 69 63 132 68 140 5 8 12 22 15 30 8 20 43 91 53 110 10 16
36 76 45 100 3 8 10 23 16 33 5 9 15 25 20 35 6 9 13 24 16 32 3 8 18 39 32
68 34 69 29 72 -118 72 -119 0 -140 -6 -140 -41 0 -9 -7 -22 -15 -29 -8 -7
-15 -20 -15 -30 0 -10 -7 -23 -15 -30 -8 -7 -15 -23 -15 -35 0 -12 -7 -28 -15
-35 -8 -7 -15 -18 -15 -24 0 -10 -50 -119 -71 -156 -5 -8 -12 -22 -15 -30 -11
-29 -37 -85 -46 -100 -4 -8 -11 -22 -14 -30 -10 -25 -66 -144 -75 -160 -5 -8
-12 -22 -15 -30 -3 -8 -12 -27 -20 -42 -8 -14 -14 -33 -14 -42 0 -33 -20 -14
-45 42 -15 31 -30 64 -36 72 -5 8 -12 22 -15 30 -5 14 -18 43 -95 208 -17 37
-35 74 -40 82 -5 8 -12 22 -15 30 -3 8 -11 29 -19 45 -7 17 -16 37 -19 45 -3
8 -10 22 -15 30 -5 8 -30 60 -56 115 -26 55 -53 103 -59 107 -14 10 -230 10
-239 1z"/>
<path d="M36002 5518 c-14 -14 -16 -176 -2 -198 7 -12 46 -15 227 -15 l218 -1
5 -681 c3 -471 8 -685 16 -693 7 -7 51 -10 120 -8 l109 3 5 688 5 689 200 -1
c257 0 247 -5 243 127 l-3 97 -565 3 c-432 2 -569 -1 -578 -10z"/>
<path d="M37617 5523 c-14 -13 -8 -200 6 -212 9 -7 73 -10 193 -8 l179 2 5
-573 c3 -318 1 -576 -4 -579 -4 -3 -84 -5 -177 -4 -220 3 -210 8 -207 -122 l3
-102 515 0 515 0 3 102 c3 130 12 125 -206 123 -92 -1 -173 -1 -179 -1 -18 1
-19 1136 -1 1147 6 4 86 8 177 8 219 2 213 -2 209 124 l-3 97 -511 3 c-281 1
-514 -1 -517 -5z"/>
<path d="M41020 5486 c-11 -25 -20 -53 -20 -63 0 -10 -6 -27 -14 -38 -7 -11
-16 -36 -18 -55 -3 -19 -11 -50 -17 -67 -6 -18 -16 -48 -22 -65 -6 -18 -14
-46 -17 -63 -2 -16 -11 -39 -18 -50 -8 -11 -14 -33 -14 -50 0 -16 -7 -39 -15
-49 -8 -11 -15 -32 -15 -47 0 -15 -7 -40 -15 -55 -8 -16 -15 -39 -15 -51 0
-12 -6 -37 -14 -55 -22 -54 -46 -132 -46 -153 -1 -11 -7 -29 -15 -39 -8 -11
-15 -34 -15 -50 0 -17 -7 -40 -15 -50 -8 -11 -15 -34 -15 -52 0 -17 -7 -37
-15 -44 -8 -7 -15 -29 -15 -49 0 -20 -7 -45 -15 -55 -8 -11 -15 -31 -15 -45
-1 -14 -7 -37 -15 -51 -8 -14 -14 -36 -15 -50 0 -14 -6 -34 -14 -45 -7 -11
-16 -36 -18 -55 -3 -19 -12 -50 -19 -68 -20 -47 -5 -53 129 -50 l114 3 15 40
c8 22 18 56 22 75 4 19 13 45 19 57 7 12 12 34 12 50 0 15 7 37 15 47 8 11 15
33 15 49 0 70 -14 67 335 67 305 0 315 -1 315 -19 0 -11 5 -23 10 -26 6 -3 10
-21 10 -39 0 -18 7 -41 15 -52 8 -10 15 -35 15 -54 0 -19 7 -44 15 -54 8 -11
15 -32 15 -47 0 -15 10 -44 21 -64 l21 -36 117 3 c113 3 116 4 119 27 2 13 -1
28 -7 34 -6 6 -11 25 -11 42 0 17 -7 40 -15 51 -8 10 -15 33 -15 49 0 17 -7
39 -15 49 -8 11 -15 34 -15 50 0 17 -7 40 -15 50 -8 11 -15 32 -15 46 0 14 -7
35 -15 46 -8 10 -15 32 -15 47 0 16 -5 38 -12 50 -6 12 -15 38 -19 57 -4 19
-12 50 -18 68 -6 17 -16 47 -22 65 -6 17 -14 49 -19 70 -4 21 -13 44 -19 50
-6 6 -11 25 -11 42 0 17 -7 40 -15 51 -8 10 -15 30 -15 44 0 14 -7 38 -15 54
-8 15 -15 40 -15 55 0 14 -7 35 -15 45 -8 11 -15 31 -15 45 -1 14 -7 37 -15
51 -8 14 -14 36 -15 50 0 14 -7 38 -15 54 -8 15 -15 41 -15 56 0 15 -7 33 -15
40 -8 7 -15 27 -15 44 0 17 -6 41 -14 52 -8 11 -16 31 -18 44 l-3 25 -197 3
-197 2 -21 -44z m236 -190 c8 -11 14 -34 14 -51 0 -16 7 -39 15 -49 8 -11 15
-34 15 -51 0 -17 7 -40 15 -51 8 -10 15 -33 15 -50 0 -16 7 -39 15 -50 8 -10
15 -32 15 -49 0 -16 7 -41 15 -55 8 -14 14 -36 15 -50 0 -14 7 -38 15 -54 8
-15 15 -40 15 -55 0 -15 7 -36 15 -47 8 -10 15 -33 15 -49 0 -17 7 -41 16 -53
30 -43 21 -45 -231 -44 -262 1 -267 2 -231 57 9 13 16 39 16 57 0 18 7 42 15
52 8 11 15 34 15 50 0 17 7 40 15 50 8 11 15 34 15 50 0 17 7 40 15 50 8 11
15 34 15 50 1 17 7 42 15 56 8 14 15 39 15 55 0 17 7 39 15 49 8 11 15 34 15
52 0 17 7 37 15 44 8 7 15 26 15 42 0 16 8 53 18 81 l17 52 3 -34 c2 -19 10
-44 18 -55z"/>
<path d="M1746 4603 c-16 -16 -7 -3273 10 -3304 15 -30 81 -98 120 -125 24
-16 3480 -22 3496 -6 5 5 12 281 15 613 2 332 9 618 14 634 19 62 70 78 269
83 172 4 176 4 225 -21 50 -26 105 -71 105 -86 0 -21 154 -162 202 -185 453
-213 888 366 546 726 -136 144 -382 196 -528 111 -14 -8 -39 -20 -56 -28 -31
-14 -164 -141 -164 -156 0 -5 -23 -32 -52 -60 -44 -43 -55 -49 -77 -43 -14 4
-105 6 -202 5 -150 -2 -182 0 -210 14 -68 35 -65 22 -67 282 -7 893 -14 1521
-19 1536 -4 17 -44 18 -846 15 l-842 -3 -3 -23 c-5 -35 16 -77 45 -93 92 -49
248 -290 269 -414 24 -141 6 -370 -34 -435 -12 -19 -26 -44 -31 -56 -48 -107
-239 -280 -383 -346 -61 -28 -205 -51 -278 -44 -94 8 -174 22 -196 34 -10 5
-55 27 -99 48 -89 42 -273 213 -301 279 -7 19 -18 36 -24 40 -5 3 -10 17 -10
30 0 13 -4 26 -9 30 -41 25 -61 299 -32 430 31 140 77 209 269 402 38 38 43
48 40 81 l-3 37 -576 2 c-317 2 -579 0 -583 -4z"/>
</g>
</svg>
