<svg xmlns="http://www.w3.org/2000/svg" viewBox="0 0 2882.453822 707.394077" fill="#ffffff">
<g transform="translate(-38.498104,740.611460) scale(0.100000,-0.100000)" fill="#ffffff" stroke="none">
<path d="M25565 7399 c-106 -7 -242 -26 -427 -59 -155 -28 -424 -106 -535
-156 -18 -8 -50 -21 -70 -28 -535 -192 -1204 -734 -1537 -1246 -36 -55 -196
-320 -196 -324 0 -2 -26 -59 -59 -127 -76 -161 -121 -276 -166 -424 -80 -263
-102 -369 -146 -703 -12 -98 -12 -527 1 -627 44 -332 44 -336 126 -635 185
-680 651 -1360 1219 -1778 39 -28 88 -65 110 -81 147 -108 452 -270 690 -365
39 -16 79 -32 90 -37 19 -8 138 -43 250 -74 499 -138 1054 -157 1570 -53 334
67 524 131 840 284 109 53 126 62 261 141 65 38 255 171 329 230 17 13 35 27
40 31 6 4 49 40 95 81 595 521 999 1247 1120 2010 41 262 42 296 38 2156 l-3
1790 -1760 1 c-968 1 -1814 -3 -1880 -7z m869 -515 c14 -6 16 -98 16 -942 l0
-935 -467 -469 c-257 -257 -473 -468 -480 -468 -19 0 -19 2785 0 2797 28 18
888 34 931 17z m1846 -13 c0 -9 -1248 -1258 -1272 -1272 -7 -4 -16 -5 -20 -3
-4 3 -8 293 -8 645 l0 639 650 0 c384 0 650 -4 650 -9z m-3320 -1740 l0 -1606
-672 -672 c-370 -370 -678 -673 -684 -673 -31 0 -246 326 -356 540 -313 608
-394 1246 -241 1900 191 819 630 1435 1313 1845 99 59 320 175 335 175 2 0 35
14 72 32 133 61 207 87 220 76 10 -8 13 -338 13 -1617z m3728 677 l-3 -623
-619 -3 c-348 -1 -624 2 -629 7 -10 10 1218 1241 1239 1241 12 0 14 -87 12
-622z m4 -1425 c6 -294 -4 -669 -19 -684 -6 -6 -1781 -13 -2695 -9 -21 0 -38
5 -38 11 0 6 211 222 468 480 l469 469 905 0 905 0 5 -267z m-134 -1245 c7
-35 -116 -319 -226 -523 -74 -137 -104 -184 -244 -380 -144 -203 -462 -495
-698 -641 -659 -411 -1484 -567 -2157 -409 -268 63 -441 124 -668 237 -133 66
-407 226 -425 248 -3 4 -25 20 -50 37 -25 17 -54 40 -64 52 l-20 22 690 689
690 690 1584 -2 c1496 -3 1585 -4 1588 -20z"/>
<path d="M2000 7384 c-14 -2 -63 -9 -110 -15 -463 -63 -836 -289 -1183 -719
-101 -125 -230 -407 -275 -602 -49 -211 -47 -104 -47 -2083 l0 -1860 24 -115
c99 -478 355 -861 765 -1145 68 -48 342 -185 368 -185 8 0 18 -4 23 -9 14 -12
191 -57 310 -78 94 -17 249 -18 2660 -18 l2560 0 3 293 2 292 -2537 0 c-2785
0 -2593 -4 -2784 60 -97 32 -234 98 -289 139 -278 205 -428 427 -507 746 -25
104 -33 3537 -8 3708 43 294 208 573 450 763 81 63 262 163 334 185 114 34
146 41 251 54 100 13 1431 15 10630 15 l10516 0 58 70 c107 131 363 337 563
454 34 20 65 41 68 46 6 9 -21781 13 -21845 4z"/>
<path d="M3490 5604 c-226 -29 -480 -113 -609 -203 -14 -10 -33 -20 -41 -23
-37 -13 -183 -133 -268 -219 -147 -148 -290 -381 -350 -569 -118 -368 -84
-850 82 -1144 106 -188 150 -249 260 -364 255 -266 566 -414 949 -453 277 -28
623 47 848 182 45 27 84 49 86 49 17 0 176 131 253 209 234 237 375 527 421
867 13 100 7 362 -10 407 l-11 27 -852 -2 -852 -3 -18 -70 c-23 -86 -64 -257
-84 -345 -8 -36 -12 -71 -9 -77 3 -10 143 -13 651 -13 l647 0 -6 -37 c-9 -56
-89 -211 -155 -300 -125 -167 -296 -287 -499 -350 -134 -41 -434 -41 -568 0
-358 111 -628 421 -686 789 -76 490 240 978 717 1105 314 83 687 -8 913 -223
20 -19 40 -34 46 -34 11 0 345 338 345 350 0 46 -267 241 -441 322 -192 90
-554 148 -759 122z"/>
<path d="M8823 5543 c-18 -7 -19 -2833 -1 -2851 20 -20 484 -17 492 4 3 9 6
439 6 957 l1 942 30 -50 c39 -65 183 -311 294 -500 162 -277 252 -429 321
-545 37 -63 93 -160 125 -215 31 -55 85 -148 120 -207 35 -59 85 -144 112
-190 26 -46 65 -111 87 -145 l39 -63 270 0 269 0 6 23 c8 29 8 2811 0 2831 -6
16 -458 25 -498 10 -14 -6 -16 -98 -16 -945 0 -516 -4 -939 -8 -939 -4 0 -32
42 -61 93 -57 98 -186 316 -345 584 -53 90 -96 165 -96 167 0 2 -18 33 -40 67
-21 35 -65 109 -96 164 -31 55 -92 159 -134 230 -128 214 -210 354 -273 465
-33 58 -65 108 -71 112 -12 8 -514 9 -533 1z"/>
<path d="M20577 5543 c-4 -3 -7 -649 -7 -1435 l0 -1428 250 0 c231 0 250 1
250 18 2 1019 -1 2836 -6 2843 -6 10 -477 13 -487 2z"/>
<path d="M13915 5225 c-66 -18 -156 -40 -200 -50 -44 -10 -90 -24 -103 -32
l-22 -14 3 -947 c3 -1045 -1 -985 73 -1131 92 -181 264 -318 449 -356 115 -24
605 -21 605 3 0 10 -21 99 -46 197 -25 99 -50 199 -56 222 -14 63 -20 65 -180
65 -226 -1 -269 12 -315 94 -22 38 -23 46 -23 372 l0 332 195 0 c157 0 197 3
201 14 3 7 -11 78 -31 157 -49 193 -52 206 -65 264 -15 71 -23 75 -172 75
l-128 0 0 363 c0 199 -3 372 -6 385 -8 30 -31 28 -179 -13z"/>
<path d="M6332 4788 c-136 -11 -328 -86 -422 -164 -36 -30 -45 -22 -50 46 l-5
65 -239 3 c-167 2 -243 -1 -252 -9 -15 -12 -22 -1996 -8 -2033 5 -14 37 -16
254 -16 l249 0 3 563 c4 625 2 599 76 740 83 159 250 277 416 293 28 3 61 7
74 10 l22 4 0 249 c0 287 12 261 -118 249z"/>
<path d="M7323 4776 c-347 -66 -636 -291 -790 -616 -137 -289 -131 -643 17
-938 327 -653 1190 -801 1726 -295 431 407 433 1155 5 1555 -221 207 -438 297
-731 304 -104 2 -179 -1 -227 -10z m330 -512 c210 -53 387 -228 428 -422 19
-94 6 -273 -26 -353 -119 -301 -501 -439 -805 -292 -131 64 -262 239 -295 398
-85 403 298 770 698 669z"/>
<path d="M12037 4774 c-392 -71 -699 -374 -818 -809 -19 -69 -19 -440 0 -510
132 -485 450 -772 919 -827 156 -18 399 19 513 77 38 20 37 22 -17 151 -25 60
-59 147 -76 194 -43 119 -49 125 -123 105 -202 -52 -412 2 -554 144 -190 189
-230 440 -109 674 210 403 812 405 1020 3 55 -106 52 -77 58 -706 l5 -585 253
-3 252 -2 -2 1027 -3 1028 -240 3 c-275 3 -265 6 -265 -85 0 -29 -2 -53 -4
-53 -2 0 -38 20 -78 44 -229 135 -468 178 -731 130z"/>
<path d="M17905 4775 c-97 -21 -214 -74 -322 -147 -54 -37 -52 -38 -55 40 l-3
67 -247 3 -248 2 -5 -22 c-3 -13 -4 -475 -3 -1028 l3 -1005 250 0 250 0 6 575
c6 633 2 593 71 723 87 162 288 296 445 297 41 0 54 4 63 19 11 21 15 447 4
475 -8 20 -120 21 -209 1z"/>
<path d="M19003 4780 c-391 -57 -728 -376 -839 -795 -24 -89 -28 -459 -5 -540
129 -473 454 -763 916 -816 159 -19 401 17 516 76 37 20 37 21 -15 145 -24 58
-60 148 -80 202 -46 121 -48 122 -122 103 -82 -21 -233 -19 -322 4 -94 25
-153 60 -238 145 -376 374 -92 1001 441 973 185 -9 343 -103 452 -266 82 -122
78 -87 81 -721 1 -311 4 -575 7 -588 l5 -22 248 2 247 3 0 1025 0 1025 -240 3
c-275 3 -265 6 -265 -85 0 -64 6 -63 -85 -8 -205 124 -452 171 -702 135z"/>
<path d="M14841 4726 c-22 -26 -10 -1302 13 -1391 38 -152 70 -223 159 -353
259 -378 797 -476 1185 -215 36 23 66 43 68 43 2 0 4 -29 4 -65 l0 -65 253 2
252 3 3 1014 c1 741 -1 1017 -9 1027 -16 19 -469 20 -487 2 -9 -9 -12 -153
-12 -587 0 -613 -3 -664 -47 -750 -180 -352 -676 -342 -847 18 l-31 66 -5 620
c-3 341 -9 626 -13 633 -13 19 -470 17 -486 -2z"/>
<path d="M12585 1448 c-52 -30 -62 -102 -20 -143 24 -25 114 -36 141 -17 23
16 44 58 44 89 0 62 -103 107 -165 71z"/>
<path d="M17125 1448 c-60 -32 -71 -90 -27 -140 51 -57 153 -39 182 32 32 78
-75 152 -155 108z"/>
<path d="M11120 985 l0 -425 79 0 c98 0 92 -11 90 196 -1 154 0 164 22 205 48
86 160 103 226 33 l33 -35 2 -197 3 -197 80 0 80 0 3 216 c3 238 -4 273 -63
331 -89 89 -218 93 -377 10 -4 -2 -9 61 -10 140 l-3 143 -82 3 -83 3 0 -426z"/>
<path d="M10655 1298 c-2 -7 -6 -40 -7 -73 l-3 -60 -45 -5 -45 -5 -3 -62 -3
-63 35 0 c68 0 66 4 66 -170 0 -246 41 -302 222 -302 135 -1 152 16 113 108
-13 32 -14 33 -68 27 -91 -9 -98 4 -95 185 l3 147 70 5 70 5 0 60 0 60 -70 5
-70 5 -5 70 -5 70 -78 3 c-56 2 -79 -1 -82 -10z"/>
<path d="M16616 1294 c-3 -9 -6 -42 -6 -74 l0 -59 -37 -3 -38 -3 -3 -62 -3
-63 41 0 c25 0 40 -5 41 -12 0 -7 0 -65 0 -128 0 -114 14 -204 35 -231 6 -8
14 -22 17 -31 21 -60 216 -95 296 -54 37 19 36 18 8 76 -22 45 -22 45 -69 42
-94 -7 -110 22 -106 203 l3 130 75 5 75 5 0 60 0 60 -75 5 -75 5 -3 50 c-5 98
-2 95 -91 95 -63 0 -80 -3 -85 -16z"/>
<path d="M19657 1303 c-4 -3 -7 -31 -7 -62 0 -70 -6 -79 -55 -83 l-40 -3 0
-60 0 -60 35 -3 c59 -6 60 -10 60 -177 0 -239 43 -296 221 -297 126 0 148 17
120 89 l-19 48 -55 -3 c-90 -6 -107 29 -107 222 0 112 3 116 92 116 76 0 83 7
76 86 l-3 39 -75 3 c-87 3 -90 6 -90 90 l0 62 -73 0 c-41 0 -77 -3 -80 -7z"/>
<path d="M22045 1298 c-2 -7 -6 -40 -7 -73 l-3 -60 -50 -5 c-50 -5 -50 -5 -53
-44 -6 -72 2 -85 56 -88 l47 -3 5 -170 c6 -181 11 -204 56 -247 41 -38 77 -49
164 -49 126 -1 149 16 122 88 l-18 48 -56 -3 c-93 -6 -99 5 -96 186 l3 147 70
5 70 5 0 60 0 60 -70 5 -70 5 -5 70 -5 70 -78 3 c-56 2 -79 -1 -82 -10z"/>
<path d="M7635 1166 c-226 -85 -270 -375 -78 -516 89 -65 228 -76 325 -26 59
31 72 26 63 -22 -27 -142 -162 -178 -363 -97 -24 10 -44 16 -46 14 -20 -25
-57 -102 -53 -113 3 -7 41 -26 84 -42 113 -42 310 -42 390 -1 140 72 147 97
151 490 l3 318 -78 -3 c-72 -3 -78 -5 -81 -25 -4 -29 -5 -29 -76 7 -64 33
-177 40 -241 16z m246 -154 c94 -60 91 -185 -5 -256 -40 -30 -153 -30 -193 0
-178 132 10 375 198 256z"/>
<path d="M8557 1165 c-21 -8 -51 -24 -67 -35 -34 -24 -50 -19 -50 16 0 23 -2
24 -75 24 l-75 0 2 -302 3 -303 74 -3 c53 -2 77 1 82 10 5 7 9 90 9 183 0 222
12 244 140 270 l55 12 0 69 0 69 -30 2 c-16 1 -47 -4 -68 -12z"/>
<path d="M8965 1173 c-239 -56 -323 -355 -149 -527 131 -130 412 -116 517 26
64 88 79 241 31 336 -65 130 -240 203 -399 165z m175 -148 c132 -68 100 -303
-45 -331 -185 -34 -277 223 -117 328 34 22 122 24 162 3z"/>
<path d="M13168 1166 c-21 -8 -49 -21 -63 -30 -33 -22 -44 -20 -51 9 -6 24
-10 25 -80 25 l-74 0 2 -302 3 -303 74 -3 c53 -2 77 1 82 10 5 7 9 91 9 186 0
216 11 244 108 273 66 19 114 1 149 -59 27 -46 28 -52 30 -212 1 -91 3 -173 3
-182 0 -25 154 -27 164 -2 3 9 6 97 6 197 0 252 -33 339 -148 388 -52 23 -158
25 -214 5z"/>
<path d="M13955 1168 c-16 -6 -42 -19 -57 -29 -35 -25 -48 -24 -48 6 0 25 -1
25 -85 25 l-85 0 2 -302 3 -303 82 -3 81 -3 4 178 c3 156 6 183 24 218 39 77
147 106 213 57 43 -31 54 -81 60 -272 l6 -175 74 -3 c53 -2 77 1 82 10 13 20
11 309 -3 391 -17 108 -69 176 -157 206 -42 14 -155 13 -196 -1z"/>
<path d="M14646 1164 c-214 -78 -285 -311 -150 -491 107 -142 392 -156 520
-25 110 113 109 341 -3 443 -87 80 -256 114 -367 73z m217 -151 c97 -75 82
-255 -26 -307 -151 -71 -296 109 -209 258 46 79 163 103 235 49z"/>
<path d="M16020 1169 c-50 -14 -130 -51 -130 -61 0 -12 49 -108 56 -108 2 0
22 9 43 20 96 48 221 33 261 -32 37 -62 31 -68 -68 -68 -226 0 -322 -56 -322
-187 0 -146 216 -232 364 -145 46 27 44 27 56 -3 9 -24 14 -25 84 -25 91 0 86
-13 86 206 0 261 -35 345 -166 394 -60 22 -197 27 -264 9z m252 -366 c10 -115
-138 -184 -224 -106 -28 25 -23 78 8 102 37 29 213 32 216 4z"/>
<path d="M17593 1161 c-267 -92 -279 -483 -18 -580 173 -65 380 2 450 144 33
67 34 211 2 279 -69 145 -265 216 -434 157z m218 -144 c101 -68 91 -255 -16
-307 -146 -71 -282 74 -220 235 34 90 154 127 236 72z"/>
<path d="M18434 1160 c-23 -10 -45 -23 -48 -29 -12 -19 -35 -12 -42 14 -6 24
-10 25 -80 25 l-74 0 2 -302 3 -303 75 0 75 0 5 180 c5 195 12 222 66 264 56
44 142 35 189 -20 25 -30 25 -32 25 -214 0 -230 -6 -215 90 -215 96 0 90 -15
90 232 0 198 -13 260 -68 322 -55 62 -217 87 -308 46z"/>
<path d="M20385 1164 c-21 -8 -50 -24 -63 -36 -25 -24 -42 -14 -42 25 0 15
-11 17 -82 17 l-83 0 2 -293 c1 -160 3 -298 3 -304 0 -21 156 -18 164 3 3 9 6
84 6 169 0 216 28 266 153 281 l58 7 -3 71 -3 71 -35 2 c-19 1 -53 -5 -75 -13z"/>
<path d="M21502 1165 c-112 -35 -173 -119 -152 -212 22 -95 82 -128 287 -159
59 -8 88 -33 80 -67 -14 -53 -151 -62 -267 -18 -62 24 -71 20 -96 -44 -21 -55
-19 -58 67 -85 96 -30 291 -27 354 7 87 46 127 121 105 198 -22 80 -76 113
-228 139 -110 19 -144 38 -140 75 6 54 103 75 208 45 89 -26 91 -25 116 33
l23 53 -21 11 c-71 38 -250 51 -336 24z"/>
<path d="M9436 1148 c3 -13 33 -95 65 -183 32 -88 78 -214 102 -280 l42 -120
65 -3 c110 -5 108 -9 212 288 27 77 48 87 67 33 114 -333 109 -326 221 -321
l64 3 63 175 c103 281 153 422 153 426 0 2 -33 4 -73 4 l-72 0 -28 -77 c-29
-81 -83 -223 -97 -258 -5 -11 -11 -28 -14 -37 -7 -24 -36 -23 -36 1 0 11 -4
23 -10 26 -5 3 -10 16 -10 29 0 12 -3 25 -6 29 -4 3 -27 68 -53 144 l-47 138
-76 3 -76 3 -17 -43 c-17 -44 -112 -308 -122 -340 -14 -45 -22 -27 -134 290
l-33 92 -79 0 c-77 0 -78 0 -71 -22z"/>
<path d="M12562 868 l3 -303 80 0 80 0 3 303 2 302 -85 0 -85 0 2 -302z"/>
<path d="M15141 1118 c11 -29 33 -80 49 -113 16 -33 52 -118 80 -190 29 -71
65 -158 81 -192 l28 -63 89 0 89 0 42 103 c24 56 70 165 103 242 80 186 108
253 108 261 0 2 -35 4 -78 4 l-79 0 -18 -42 c-10 -24 -29 -67 -42 -96 -13 -29
-23 -54 -23 -57 0 -2 -13 -32 -29 -67 -16 -35 -36 -80 -45 -100 -27 -66 -27
-66 -116 157 -29 72 -59 147 -68 168 l-15 37 -88 0 -89 0 21 -52z"/>
<path d="M17090 878 c0 -161 4 -299 9 -306 5 -9 29 -12 82 -10 l74 3 3 303 2
302 -85 0 -85 0 0 -292z"/>
<path d="M20592 953 c5 -238 9 -260 67 -325 43 -49 99 -70 192 -70 73 0 158
26 175 53 10 17 23 9 26 -18 3 -28 4 -28 80 -31 93 -3 84 -41 80 320 l-3 288
-84 0 -84 0 -3 -188 c-3 -182 -4 -190 -28 -225 -38 -55 -118 -74 -179 -43 -54
29 -56 34 -61 250 l-5 201 -89 3 -88 3 4 -218z"/>
<path d="M11923 745 c-47 -33 -48 -127 -2 -164 22 -17 22 -21 10 -67 -31 -124
-31 -122 3 -127 47 -7 70 7 90 55 10 23 23 52 28 62 21 40 48 130 48 162 0 75
-111 125 -177 79z"/>
<path d="M18979 731 c-40 -41 -41 -98 0 -143 l28 -32 -22 -83 c-18 -67 -20
-83 -9 -84 93 -9 89 -12 148 138 44 112 47 126 36 158 -26 78 -124 103 -181
46z"/>
</g>
</svg>
