<svg xmlns="http://www.w3.org/2000/svg" viewBox="0 0 1643.928344 492.126941" fill="#ffffff">
<g transform="translate(-0.154235,492.077463) scale(0.100000,-0.100000)" fill="#ffffff" stroke="none">
<path d="M2395 4911 c-3 -5 -20 -13 -38 -16 -67 -15 -171 -73 -275 -154 -51
-40 -157 -183 -168 -226 -3 -14 -10 -28 -15 -31 -15 -9 -10 -41 7 -48 9 -3 62
-6 119 -6 101 0 105 1 122 26 112 165 313 256 490 224 132 -24 221 -81 342
-219 l30 -34 98 2 c54 1 106 4 116 7 21 7 22 37 2 54 -8 7 -15 20 -15 29 0 65
-267 331 -333 331 -7 0 -25 9 -42 20 -16 11 -39 20 -50 20 -11 0 -33 7 -49 15
-32 17 -330 22 -341 6z"/>
<path d="M5710 4497 l-25 -13 -3 -940 c-2 -886 -1 -942 15 -957 21 -19 206
-28 224 -10 6 6 10 251 10 731 0 397 3 723 7 726 4 3 26 -19 48 -47 91 -116
286 -363 302 -382 43 -49 100 -121 108 -137 5 -9 33 -45 62 -80 28 -35 80 -99
115 -143 34 -44 70 -89 79 -100 74 -91 337 -425 350 -445 9 -14 30 -40 47 -58
17 -18 31 -37 31 -42 0 -19 88 -35 161 -30 l74 5 3 956 c2 904 1 957 -15 964
-10 4 -62 9 -116 10 -92 3 -99 2 -112 -19 -13 -19 -15 -124 -14 -725 0 -386
-2 -705 -4 -708 -3 -2 -44 44 -91 104 -47 59 -92 115 -99 123 -6 8 -33 41 -59
75 -26 33 -53 67 -60 75 -16 19 -141 175 -166 208 -9 12 -24 30 -32 39 -13 14
-33 39 -127 161 -10 12 -35 42 -55 65 -21 23 -38 45 -38 49 0 7 -77 102 -126
156 -19 20 -34 40 -34 44 0 7 -76 102 -126 156 -19 20 -34 40 -34 43 0 11
-101 133 -117 143 -26 14 -156 17 -183 3z"/>
<path d="M14260 4493 c-29 -21 -31 -1880 -2 -1906 20 -18 206 -27 223 -10 14
14 14 1902 0 1916 -17 17 -197 16 -221 0z"/>
<path d="M1935 4315 c-5 -2 -50 -8 -100 -15 -91 -11 -139 -28 -250 -87 -91
-48 -219 -184 -270 -288 -9 -16 -20 -37 -27 -46 -23 -33 -3 -49 59 -49 32 0
81 -3 109 -6 50 -6 50 -6 95 41 156 168 231 205 411 205 114 0 118 -1 234 -57
115 -55 220 -193 240 -313 13 -81 16 -2368 3 -2435 -25 -132 -49 -183 -124
-259 -80 -81 -168 -135 -222 -136 -10 0 -13 222 -13 1079 0 1027 -1 1084 -19
1178 -19 93 -76 227 -117 274 -8 8 -14 18 -14 21 0 9 -136 140 -157 152 -10 5
-24 16 -31 23 -7 7 -18 13 -24 13 -5 0 -21 9 -35 20 -14 11 -35 20 -47 20 -12
0 -32 8 -46 17 -67 47 -390 49 -495 3 -91 -40 -91 -41 -170 -91 -68 -44 -215
-216 -215 -251 0 -7 -10 -22 -21 -34 -38 -40 -20 -74 39 -74 26 0 77 -3 113
-6 65 -6 67 -6 80 19 33 62 187 197 225 197 8 0 32 9 54 20 56 28 236 28 295
0 22 -11 47 -19 56 -20 18 0 131 -83 168 -123 27 -30 37 -47 82 -137 l33 -65
2 -1055 c3 -1102 1 -1180 -24 -1180 -66 0 -247 142 -291 228 -65 128 -63 106
-70 807 -5 584 -8 643 -23 672 -10 18 -18 43 -18 56 0 13 -8 35 -17 48 -10 13
-29 46 -43 73 -26 51 -163 196 -209 220 -190 103 -236 116 -421 116 -163 0
-188 -5 -310 -64 -120 -57 -266 -192 -312 -286 -50 -105 -68 -147 -68 -164 0
-9 -7 -30 -15 -47 -11 -20 -15 -51 -13 -97 l3 -67 101 -3 c121 -3 130 2 139
85 4 32 15 76 26 99 10 22 19 43 19 47 0 32 114 154 190 202 111 70 349 83
450 24 8 -5 33 -18 54 -30 54 -29 144 -121 162 -166 9 -21 21 -44 27 -52 40
-48 46 -139 53 -751 6 -540 9 -600 25 -654 11 -32 19 -63 19 -68 0 -14 51
-118 75 -154 70 -103 185 -208 275 -250 99 -47 141 -64 161 -64 47 0 89 -50
89 -105 0 -25 5 -38 65 -154 32 -62 37 -68 130 -165 39 -40 88 -83 110 -95 22
-12 47 -25 55 -30 46 -27 111 -51 137 -51 16 0 38 -7 49 -15 27 -21 271 -21
298 0 11 8 31 15 45 15 22 0 44 8 131 49 86 39 194 127 238 194 15 22 39 58
54 81 15 23 28 47 28 54 0 8 9 25 20 39 11 14 20 37 20 52 0 14 11 50 25 79
22 48 27 52 60 52 19 0 52 9 72 20 21 11 43 20 50 20 20 0 99 45 150 86 129
103 202 208 260 374 l26 75 7 605 c7 586 13 692 41 740 5 8 19 35 31 60 26 53
134 163 180 185 18 8 40 19 48 24 93 56 326 49 427 -13 104 -64 193 -157 208
-218 3 -15 13 -32 21 -39 8 -6 14 -22 14 -36 0 -39 22 -117 38 -135 25 -29
197 -26 213 3 18 34 -8 168 -52 267 -10 23 -19 47 -19 53 0 11 -28 52 -86 125
-79 100 -217 203 -299 225 -16 4 -48 14 -70 23 -107 41 -442 10 -515 -47 -8
-7 -36 -23 -62 -36 -111 -56 -281 -257 -304 -360 -3 -14 -15 -55 -25 -90 -18
-59 -19 -103 -19 -666 l0 -602 -25 -77 c-41 -126 -132 -237 -233 -285 -26 -12
-59 -29 -75 -37 -15 -8 -32 -12 -37 -9 -7 4 -10 386 -10 1109 l0 1104 25 66
c33 87 61 130 126 191 66 61 113 95 134 95 9 0 35 10 58 21 83 43 267 27 367
-32 8 -5 25 -13 38 -19 31 -14 137 -120 157 -160 l17 -33 71 7 c40 4 92 8 117
9 54 2 65 31 31 78 -12 15 -21 35 -21 43 0 8 -5 18 -10 21 -6 4 -21 23 -34 44
-23 36 -121 138 -168 174 -74 58 -186 102 -301 118 -109 15 -302 -2 -355 -32
-18 -10 -41 -19 -50 -20 -17 0 -81 -35 -138 -74 -37 -25 -164 -147 -164 -157
0 -4 -18 -34 -40 -65 -22 -32 -40 -67 -40 -78 0 -11 -7 -30 -15 -42 -41 -59
-44 -138 -45 -1262 -1 -590 -4 -1079 -7 -1087 -17 -44 -181 49 -254 144 -16
20 -33 42 -38 48 -6 7 -23 41 -38 75 l-28 64 0 1250 c0 1152 1 1253 17 1285 9
19 23 51 31 70 29 71 120 155 223 205 l94 45 120 0 c101 0 126 -3 157 -20 21
-11 43 -20 50 -20 24 0 89 -52 163 -130 l75 -79 110 7 c109 7 110 7 113 33 2
14 -4 31 -12 39 -9 7 -16 18 -16 24 0 7 -7 21 -15 31 -8 11 -29 41 -46 67 -16
26 -59 74 -95 107 -59 56 -92 78 -164 112 -14 6 -38 18 -53 26 -16 8 -58 19
-93 24 -35 5 -94 13 -131 19 -180 25 -393 -55 -551 -207 -53 -51 -98 -93 -100
-93 -3 0 -37 33 -76 73 -68 69 -199 167 -225 167 -6 0 -28 8 -49 18 -20 10
-82 24 -137 31 -55 7 -107 14 -115 16 -8 2 -19 2 -25 0z m864 -3605 c37 -22
73 -40 80 -40 6 0 26 -8 44 -17 18 -9 48 -19 67 -22 47 -8 50 -36 11 -116 -45
-90 -176 -225 -219 -225 -4 0 -23 -8 -42 -18 -50 -26 -187 -46 -223 -33 -16 6
-41 11 -56 11 -76 0 -253 115 -297 193 -77 134 -85 179 -33 185 109 13 273
118 397 256 l33 37 85 -86 c47 -46 115 -103 153 -125z"/>
<path d="M9323 4282 c-54 -2 -85 -7 -93 -17 -8 -10 -10 -186 -8 -662 3 -648 3
-648 26 -697 12 -27 22 -52 22 -57 0 -61 219 -259 286 -259 8 0 29 -7 45 -16
36 -18 206 -35 232 -22 15 7 17 24 17 117 0 121 -5 130 -60 129 -59 -2 -134
14 -159 34 -13 10 -29 18 -35 18 -13 1 -55 44 -81 85 -34 54 -43 161 -38 470
3 160 6 291 7 292 1 1 81 3 178 4 205 1 188 -11 188 129 0 142 17 130 -185
130 -128 0 -176 3 -182 13 -4 6 -8 74 -8 149 0 171 4 166 -152 160z"/>
<path d="M8205 3978 c-44 -5 -99 -18 -123 -29 -23 -10 -51 -19 -61 -19 -10 0
-30 -9 -44 -20 -14 -11 -29 -20 -35 -20 -5 0 -17 -9 -27 -20 -10 -11 -23 -20
-29 -20 -7 0 -37 -26 -67 -57 -50 -52 -71 -78 -104 -132 -5 -9 -18 -27 -27
-40 -10 -13 -18 -33 -18 -45 0 -12 -7 -32 -16 -44 -9 -13 -20 -49 -25 -80 -31
-205 -31 -205 -15 -282 9 -41 16 -86 16 -100 0 -14 9 -42 20 -63 11 -20 20
-45 20 -56 0 -10 9 -30 20 -44 11 -14 20 -29 20 -34 0 -34 191 -220 261 -254
130 -64 127 -63 275 -67 127 -3 147 -2 189 17 26 12 56 21 66 21 10 0 21 5 24
10 4 6 25 20 47 31 22 11 67 47 100 80 77 77 81 76 77 -18 -5 -125 -7 -123
120 -123 70 0 111 4 119 12 9 9 12 108 12 383 0 389 -13 528 -55 589 -8 11
-15 27 -15 36 0 27 -100 167 -148 209 -79 68 -106 88 -129 95 -11 4 -27 13
-33 21 -7 8 -21 15 -32 15 -10 0 -29 7 -42 15 -20 13 -89 25 -226 38 -19 2
-71 0 -115 -5z m169 -259 c57 -8 101 -19 118 -30 14 -11 32 -19 40 -19 19 0
126 -112 150 -157 110 -209 50 -513 -124 -630 -110 -74 -307 -100 -403 -53
-22 11 -43 19 -47 20 -16 0 -99 63 -122 93 -15 17 -32 39 -40 47 -7 8 -17 26
-21 40 -4 14 -13 32 -20 40 -43 52 -38 341 6 399 11 13 19 30 19 38 0 33 121
163 152 163 7 0 25 8 38 18 20 14 76 28 154 41 5 0 50 -4 100 -10z"/>
<path d="M12205 3970 c-33 -4 -74 -14 -92 -23 -18 -10 -43 -17 -56 -17 -14 0
-30 -7 -37 -15 -6 -8 -22 -17 -33 -21 -37 -10 -99 -56 -163 -119 -57 -56 -76
-83 -104 -145 -7 -14 -18 -39 -27 -56 -41 -86 -46 -145 -50 -568 -3 -299 -1
-412 8 -422 16 -19 212 -20 227 -1 8 9 12 142 14 409 2 276 6 399 14 409 7 8
15 30 19 49 17 80 135 220 187 220 6 0 25 9 42 19 22 14 59 22 124 27 128 10
128 9 124 141 -2 68 -8 110 -15 115 -14 9 -97 8 -182 -2z"/>
<path d="M13095 3970 c-57 -10 -120 -34 -200 -77 -74 -39 -191 -149 -226 -213
-11 -19 -23 -42 -28 -50 -73 -130 -108 -336 -82 -480 15 -82 43 -175 57 -191
8 -8 14 -22 14 -31 0 -8 8 -26 18 -39 10 -13 23 -35 29 -49 30 -67 166 -189
255 -229 24 -11 61 -28 83 -38 68 -30 298 -32 378 -2 95 35 163 76 222 135 71
72 76 70 70 -24 -7 -109 -1 -114 136 -110 93 3 105 5 114 24 7 13 8 162 5 440
-6 405 -7 421 -28 466 -12 26 -22 52 -22 58 0 13 -50 110 -68 130 -7 8 -26 32
-41 52 -61 81 -168 155 -299 208 -61 24 -296 37 -387 20z m210 -250 c61 -7
108 -20 145 -38 58 -28 180 -143 180 -169 0 -8 9 -32 19 -52 43 -79 41 -329
-2 -392 -9 -13 -17 -31 -17 -41 0 -22 -154 -178 -175 -178 -9 0 -34 -9 -57
-21 -63 -32 -250 -24 -328 14 -89 43 -159 106 -187 166 -7 14 -17 33 -22 41
-45 76 -62 291 -27 355 9 17 16 38 16 48 0 11 9 30 20 44 11 14 20 31 20 37 0
41 181 175 238 177 15 0 36 4 47 9 27 11 27 11 130 0z"/>
<path d="M10110 3945 c-12 -15 -16 -666 -4 -805 7 -88 69 -261 109 -307 5 -6
24 -30 40 -53 41 -57 155 -149 225 -181 14 -6 41 -18 60 -27 60 -28 314 -30
373 -3 25 12 51 21 57 21 33 0 151 89 229 172 35 37 91 123 91 139 0 7 6 20
14 28 8 9 26 61 40 116 l26 101 -2 404 -3 405 -118 3 c-89 2 -119 -1 -122 -10
-3 -7 -6 -195 -8 -418 -2 -399 -2 -406 -24 -447 -13 -23 -23 -47 -23 -52 0
-32 -129 -181 -157 -181 -7 0 -27 -9 -45 -20 -48 -29 -219 -29 -263 0 -16 11
-36 20 -43 20 -27 0 -152 139 -152 168 0 4 -10 25 -22 47 -22 39 -23 48 -26
450 -2 231 -8 417 -13 427 -13 24 -219 27 -239 3z"/>
<path d="M5795 2213 c-49 -2 -94 -8 -98 -12 -8 -8 18 -106 35 -127 5 -7 15
-34 22 -60 15 -52 28 -92 56 -164 53 -135 60 -157 60 -176 0 -12 6 -27 14 -33
8 -7 19 -35 25 -63 6 -27 18 -59 26 -71 8 -12 15 -31 15 -42 0 -11 9 -37 20
-58 11 -20 20 -44 20 -52 0 -9 9 -33 20 -55 11 -22 20 -47 20 -57 0 -10 9 -35
20 -56 11 -20 20 -47 20 -59 0 -13 9 -36 20 -53 11 -16 20 -39 20 -50 0 -11 9
-37 20 -58 11 -20 20 -45 20 -55 0 -9 9 -34 20 -55 11 -20 20 -45 20 -55 0 -9
9 -34 20 -55 11 -20 20 -47 20 -59 0 -13 9 -36 20 -53 11 -16 20 -39 20 -50 0
-11 9 -37 20 -58 11 -20 20 -47 20 -60 0 -12 6 -32 14 -43 8 -11 19 -40 26
-64 21 -80 38 -90 152 -90 117 0 135 7 144 58 3 20 15 51 25 68 11 17 19 41
19 52 0 12 9 36 20 54 11 18 20 44 20 58 0 14 6 35 14 46 8 11 19 40 26 64 7
24 18 53 26 64 8 11 14 31 14 43 0 13 9 40 20 60 11 21 20 47 20 58 0 11 9 34
20 50 11 17 20 40 20 53 0 12 9 39 20 59 11 21 20 46 20 55 0 10 9 35 20 55
11 21 20 48 20 61 0 13 9 35 20 49 11 14 20 36 20 49 0 13 8 43 19 66 10 24
24 58 30 76 29 83 35 100 52 138 11 23 19 51 19 63 0 11 9 38 20 58 11 21 20
47 20 58 0 11 7 31 16 44 9 13 20 37 25 55 4 17 19 60 32 96 14 36 31 81 37
100 7 19 18 48 26 63 18 36 18 53 -1 60 -24 10 -216 10 -224 1 -8 -10 -42 -90
-59 -139 -5 -16 -16 -46 -22 -65 -7 -19 -21 -54 -31 -78 -11 -23 -19 -50 -19
-60 0 -9 -9 -32 -20 -50 -11 -18 -20 -41 -20 -52 0 -11 -9 -37 -20 -57 -11
-21 -20 -46 -20 -55 0 -10 -8 -37 -19 -60 -10 -24 -24 -58 -30 -75 -27 -78
-35 -101 -51 -143 -16 -42 -26 -69 -52 -145 -6 -16 -19 -48 -29 -71 -11 -23
-19 -48 -19 -57 0 -9 -8 -36 -19 -59 -10 -24 -24 -58 -30 -75 -27 -81 -35
-101 -51 -143 -10 -25 -27 -72 -37 -104 -25 -81 -34 -79 -62 11 -13 43 -32 97
-42 120 -11 23 -19 48 -19 55 0 7 -9 30 -20 51 -11 20 -20 46 -20 57 0 12 -9
38 -20 60 -11 22 -20 47 -20 57 0 10 -9 32 -20 48 -11 17 -20 40 -20 53 0 12
-9 39 -20 59 -11 21 -20 46 -20 55 0 10 -9 35 -20 55 -11 21 -20 46 -20 55 0
10 -8 37 -19 60 -10 24 -24 59 -31 78 -6 19 -17 49 -22 65 -6 17 -18 50 -28
75 -10 25 -22 59 -28 75 -5 17 -16 46 -22 65 -7 19 -21 54 -31 78 -11 23 -19
50 -19 60 0 9 -9 34 -20 55 -11 20 -20 44 -20 52 0 42 -53 111 -78 103 -4 -1
-47 -4 -97 -5z"/>
<path d="M10410 1975 c-9 -11 -12 -158 -11 -630 2 -676 3 -684 66 -813 41 -83
191 -222 239 -222 10 0 33 -8 50 -19 20 -12 70 -23 140 -31 133 -15 136 -13
136 96 0 40 2 78 5 86 11 27 -21 51 -76 59 -165 23 -240 78 -286 207 -22 65
-23 78 -23 372 0 168 4 310 8 315 4 6 75 10 175 11 205 1 195 -5 198 126 2
134 12 128 -190 128 -117 0 -171 4 -179 12 -8 8 -12 57 -12 153 0 96 -4 145
-12 153 -19 19 -212 16 -228 -3z"/>
<path d="M7835 1676 c-16 -7 -47 -16 -68 -20 -93 -17 -337 -197 -337 -248 0
-6 -7 -19 -15 -28 -20 -22 -65 -108 -65 -124 0 -8 -10 -35 -22 -62 -35 -77
-32 -357 5 -464 44 -127 82 -186 188 -291 72 -72 98 -92 159 -119 14 -7 39
-19 55 -27 61 -31 270 -50 369 -34 109 19 207 51 233 76 8 8 21 15 28 15 34 0
245 232 245 269 0 7 9 24 20 38 22 28 25 59 10 83 -7 11 -31 15 -102 16 -126
2 -132 0 -172 -60 -55 -82 -141 -165 -174 -166 -4 -1 -25 -9 -47 -20 -59 -29
-254 -29 -308 0 -20 11 -42 20 -47 20 -32 0 -180 160 -180 194 0 7 -9 34 -21
60 -11 26 -19 59 -17 74 l3 27 547 3 c640 3 573 -14 566 141 -5 99 -25 188
-59 253 -10 20 -19 43 -19 51 0 8 -9 22 -20 32 -11 10 -20 23 -20 30 0 23
-106 135 -165 174 -57 38 -139 75 -220 100 -83 25 -298 30 -350 7z m307 -238
c37 -11 72 -26 79 -34 6 -8 16 -14 21 -14 51 0 188 -231 188 -317 l0 -23 -431
0 -431 0 5 43 c19 162 134 299 290 347 112 34 161 34 279 -2z"/>
<path d="M9385 1668 c-73 -24 -72 -24 -116 -51 -100 -62 -156 -110 -198 -171
-14 -22 -34 -51 -43 -65 -10 -14 -23 -37 -29 -51 -6 -14 -17 -38 -25 -55 -7
-16 -21 -66 -30 -110 -9 -44 -18 -83 -20 -86 -10 -18 -4 -782 7 -795 12 -15
203 -20 226 -6 8 5 12 112 15 397 3 419 6 441 61 554 30 59 112 140 176 174
68 35 210 39 276 7 22 -11 45 -19 50 -20 18 0 126 -121 141 -156 7 -18 18 -35
24 -39 5 -3 10 -17 10 -30 0 -13 7 -50 15 -82 12 -46 15 -130 15 -423 0 -271
3 -369 12 -378 15 -15 185 -16 222 -2 l26 10 0 377 c0 302 -3 389 -15 433 -8
30 -15 68 -15 84 0 16 -8 47 -19 70 -10 23 -24 52 -30 66 -11 25 -15 33 -61
105 -39 64 -148 163 -210 193 -14 6 -32 16 -40 21 -19 11 -74 30 -120 42 -65
16 -239 9 -305 -13z"/>
<path d="M13355 1670 c-33 -11 -69 -20 -80 -20 -11 0 -33 -9 -50 -20 -16 -11
-37 -20 -44 -20 -32 0 -179 -126 -246 -210 -19 -24 -52 -99 -79 -180 -25 -75
-25 -76 -27 -504 -1 -353 1 -430 12 -437 19 -12 182 -11 213 1 l26 10 0 367
c0 460 5 494 79 603 31 47 137 130 165 130 12 0 32 7 45 16 14 11 53 18 107
22 46 2 88 10 93 16 16 20 16 227 0 237 -25 16 -151 9 -214 -11z"/>
<path d="M14240 1668 c-76 -24 -163 -63 -204 -93 -67 -46 -206 -200 -206 -227
0 -5 -9 -21 -20 -35 -11 -14 -20 -34 -20 -45 0 -10 -10 -40 -22 -66 -33 -71
-33 -392 0 -466 12 -27 22 -56 22 -66 0 -10 7 -23 14 -30 8 -6 20 -27 26 -45
6 -18 17 -36 25 -39 8 -3 15 -11 15 -18 1 -26 127 -146 205 -196 86 -54 235
-92 360 -92 186 0 355 69 482 196 46 45 88 93 93 106 6 13 22 41 35 63 46 75
49 84 39 113 l-9 27 -114 0 -113 0 -29 -33 c-16 -18 -29 -38 -29 -45 -1 -32
-110 -123 -194 -161 -82 -37 -241 -38 -329 -2 -87 35 -217 159 -217 207 0 5
-9 28 -21 50 -29 59 -24 125 11 122 14 -1 259 -2 545 -2 487 -1 521 0 533 16
19 24 10 204 -12 255 -9 21 -16 48 -16 61 0 44 -96 209 -157 270 -41 41 -144
117 -158 117 -7 0 -24 9 -38 20 -14 11 -37 20 -51 20 -14 0 -48 9 -76 20 -73
29 -277 28 -370 -2z m325 -225 c28 -8 57 -19 65 -24 8 -5 26 -15 40 -21 46
-22 160 -159 160 -191 0 -7 9 -36 20 -65 39 -101 81 -92 -410 -92 -337 0 -430
3 -431 13 -5 53 39 173 84 231 35 46 86 96 96 96 4 0 18 8 31 18 23 16 68 31
150 52 43 11 128 3 195 -17z"/>
<path d="M15680 1667 c-36 -12 -87 -33 -113 -46 -51 -25 -177 -144 -177 -167
0 -8 -9 -31 -20 -51 -46 -86 -13 -268 62 -340 39 -39 82 -70 105 -77 11 -4 27
-13 33 -21 7 -8 21 -15 31 -15 11 0 36 -9 56 -20 21 -11 50 -20 66 -20 15 0
53 -9 84 -20 32 -11 68 -20 82 -20 31 0 132 -35 197 -68 158 -80 123 -275 -58
-320 -90 -23 -276 -5 -331 31 -14 9 -28 17 -31 17 -23 0 -96 105 -96 137 0 37
-24 45 -136 45 -132 0 -152 -20 -104 -109 11 -21 20 -45 20 -53 1 -36 145
-200 176 -200 6 0 23 -9 37 -20 14 -11 35 -20 48 -20 12 0 30 -7 40 -16 11
-10 49 -20 94 -25 41 -4 99 -12 129 -18 30 -6 69 -6 92 -1 21 4 68 11 104 15
85 9 181 54 258 120 29 25 82 102 82 119 0 7 7 21 15 32 21 28 21 236 0 254
-8 7 -15 21 -15 30 0 64 -180 183 -335 222 -22 6 -70 19 -107 29 -36 11 -77
19 -89 19 -26 0 -111 30 -177 64 -131 65 -119 210 24 290 41 23 58 26 146 26
146 0 241 -51 291 -157 11 -21 24 -49 31 -63 12 -25 14 -25 126 -25 l115 0 3
28 c2 16 -4 44 -12 62 -9 18 -16 42 -16 53 0 10 -8 30 -19 43 -10 13 -21 34
-25 45 -10 33 -107 126 -166 159 -138 78 -373 102 -520 52z"/>
<path d="M12325 1656 c-19 -13 -19 -27 -17 -362 1 -200 -2 -368 -7 -394 -21
-97 -37 -146 -53 -170 -10 -13 -18 -30 -18 -36 0 -25 -92 -113 -143 -137 -109
-53 -256 -56 -329 -5 -14 10 -30 18 -35 18 -20 0 -104 94 -124 138 -63 140
-62 135 -65 546 -2 209 -5 385 -8 393 -7 18 -226 19 -244 1 -9 -9 -12 -104
-12 -367 1 -352 3 -379 38 -546 10 -48 79 -192 104 -220 125 -137 172 -174
273 -218 127 -54 381 -56 457 -3 12 9 30 16 40 16 53 0 233 180 280 280 61
130 68 148 68 176 1 16 7 56 15 89 22 92 22 767 -1 789 -11 12 -36 16 -94 16
-43 0 -84 2 -92 5 -7 3 -22 -1 -33 -9z"/>
</g>
</svg>
