<svg xmlns="http://www.w3.org/2000/svg" viewBox="0 0 2684.318152 460.435995" fill="#ffffff">
<g transform="translate(0.318323,634.260043) scale(0.100000,-0.100000)" fill="#ffffff" stroke="none">
<path d="M16675 6316 c-208 -96 -208 -394 0 -492 177 -84 385 47 385 243 0 88
-18 131 -80 193 -84 85 -199 106 -305 56z"/>
<path d="M921 5099 c-161 -36 -308 -121 -442 -255 l-77 -77 -10 39 c-6 22 -16
75 -22 119 -17 116 -15 115 -189 115 -106 -1 -151 -4 -163 -14 -29 -22 -27
-2160 1 -2176 37 -19 372 -13 387 8 11 14 13 143 14 667 0 766 1 775 111 936
244 360 816 325 1002 -61 66 -136 67 -153 67 -881 0 -609 1 -653 18 -665 27
-21 365 -20 386 2 20 20 24 1393 5 1498 -60 320 -222 554 -468 676 -87 44
-103 49 -221 75 -93 21 -293 18 -399 -6z"/>
<path d="M20975 5105 c-186 -41 -403 -176 -503 -312 -30 -40 -39 -24 -57 101
-23 155 -11 146 -188 146 -83 0 -157 -5 -168 -10 -19 -10 -19 -33 -19 -1088 0
-825 3 -1081 12 -1090 23 -23 385 -16 398 7 6 13 10 241 10 670 0 553 2 660
16 717 103 446 644 620 976 314 65 -60 119 -139 145 -212 41 -114 42 -141 43
-819 0 -622 1 -657 18 -672 29 -26 369 -25 388 1 18 23 20 1402 3 1496 -74
395 -297 651 -645 741 -111 29 -321 34 -429 10z"/>
<path d="M10030 5104 c-399 -75 -609 -291 -610 -625 0 -339 181 -527 635 -657
39 -11 131 -37 205 -58 289 -80 413 -177 413 -324 0 -176 -145 -261 -448 -262
-225 -1 -506 76 -665 181 -104 69 -118 60 -244 -171 -58 -106 -46 -125 130
-215 529 -271 1182 -259 1472 26 117 116 162 235 162 429 -2 362 -222 582
-705 702 -449 111 -565 184 -552 346 21 272 430 319 886 103 112 -53 120 -49
210 101 76 129 86 165 50 201 -55 55 -328 164 -514 205 -68 15 -372 28 -425
18z"/>
<path d="M14960 5100 c-276 -37 -524 -182 -682 -397 -39 -53 -44 -49 -52 34
-32 332 -12 303 -206 303 -108 0 -160 -4 -168 -12 -17 -17 -17 -3259 0 -3276
21 -21 377 -16 394 6 11 14 13 152 14 725 l0 708 87 -91 c212 -224 440 -320
758 -320 441 0 805 244 982 660 112 261 124 620 32 910 -159 501 -649 819
-1159 750z m175 -414 c507 -86 776 -608 558 -1086 -77 -169 -241 -307 -453
-381 -79 -28 -321 -34 -400 -10 -192 58 -322 143 -419 271 -14 19 -29 37 -32
40 -11 8 -68 124 -85 171 -158 447 151 945 621 998 104 12 122 12 210 -3z"/>
<path d="M3313 5084 c-459 -100 -799 -444 -892 -901 -146 -713 375 -1374 1103
-1400 271 -10 484 53 711 212 151 105 156 124 63 253 -111 156 -117 158 -219
88 -407 -278 -870 -207 -1125 174 -47 70 -104 202 -104 240 0 6 321 11 844 12
944 3 865 -3 920 72 50 67 25 372 -44 541 -5 11 -16 40 -25 65 -86 238 -369
512 -618 597 -182 62 -450 83 -614 47z m446 -429 c215 -73 367 -249 431 -497
22 -85 83 -78 -670 -78 -758 0 -694 -8 -670 84 68 264 299 478 560 517 101 15
267 3 349 -26z"/>
<path d="M12160 5088 c-298 -42 -602 -166 -625 -255 -7 -29 79 -217 111 -244
25 -20 76 -14 140 19 280 141 681 175 881 75 173 -87 264 -253 267 -488 l1
-110 -525 -6 c-324 -3 -542 -10 -570 -17 -258 -62 -409 -198 -465 -415 -17
-64 -20 -266 -6 -313 5 -16 15 -49 22 -74 82 -280 365 -463 739 -477 329 -12
590 84 789 291 35 37 65 65 68 62 2 -2 9 -51 14 -108 11 -121 18 -158 31 -175
18 -22 297 -18 314 5 25 32 19 1504 -6 1608 -79 331 -342 557 -720 620 -95 15
-357 17 -460 2z m776 -1325 c16 -63 -21 -237 -67 -315 -162 -275 -507 -396
-816 -286 -368 131 -363 581 7 619 36 3 246 6 468 6 l402 0 6 -24z"/>
<path d="M18360 5089 c-289 -62 -499 -184 -672 -389 -440 -523 -329 -1338 233
-1715 434 -291 964 -274 1384 46 107 81 106 91 -50 303 -44 58 -70 59 -155 3
-369 -246 -754 -225 -1033 56 -85 85 -181 256 -189 337 l-3 25 841 5 841 5 37
29 c53 40 66 78 66 188 -1 430 -239 823 -610 1008 -89 45 -101 49 -220 82 -85
24 -389 35 -470 17z m410 -431 c227 -80 375 -248 440 -500 22 -85 83 -78 -670
-78 -758 0 -693 -8 -670 84 52 211 217 397 421 476 146 56 349 64 479 18z"/>
<path d="M23368 5080 c-446 -93 -776 -407 -898 -857 -45 -164 -38 -431 16
-614 20 -69 33 -102 82 -209 24 -52 125 -191 189 -260 335 -362 916 -466 1364
-245 138 68 299 194 299 235 0 10 -16 42 -37 71 -20 30 -56 83 -80 119 -70
103 -92 111 -164 58 -80 -59 -103 -73 -169 -105 -399 -190 -850 -38 -1027 347
-74 162 -93 383 -45 530 110 339 364 533 702 534 204 1 327 -39 510 -165 83
-57 91 -61 117 -50 36 15 193 253 193 293 0 61 -274 233 -455 287 -185 55
-423 67 -597 31z"/>
<path d="M25535 5088 c-543 -105 -916 -548 -932 -1108 -29 -988 1078 -1557
1865 -960 109 83 117 110 55 193 -22 29 -58 78 -81 110 -55 73 -73 74 -174 8
-311 -205 -616 -220 -892 -43 -144 91 -306 312 -318 432 l-3 35 841 5 841 5
37 29 c54 41 66 77 66 198 0 178 -48 368 -134 528 -161 302 -418 495 -751 565
-79 17 -338 18 -420 3z m390 -422 c226 -63 401 -252 465 -502 24 -92 88 -84
-670 -84 -758 0 -693 -8 -670 84 65 264 311 484 580 519 61 9 243 -2 295 -17z"/>
<path d="M6731 5042 c-183 -3 -191 -5 -218 -72 -8 -19 -27 -66 -43 -105 -16
-38 -40 -101 -55 -140 -15 -38 -41 -106 -60 -150 -48 -117 -175 -441 -175
-449 0 -3 -9 -26 -20 -51 -11 -25 -28 -64 -39 -87 -10 -24 -26 -65 -35 -93
-10 -27 -32 -86 -51 -130 -18 -44 -64 -158 -101 -253 -37 -95 -71 -169 -75
-165 -5 5 -56 132 -114 283 -59 151 -146 376 -195 500 -48 124 -112 286 -140
360 -55 143 -105 272 -120 305 -26 61 -70 182 -70 191 0 6 -10 20 -23 32 -22
21 -32 22 -214 22 -105 0 -198 -3 -207 -6 -30 -12 -16 -66 68 -258 72 -165
192 -439 326 -746 226 -516 327 -746 340 -775 5 -11 29 -67 54 -125 129 -307
112 -290 301 -290 173 0 173 0 235 150 24 58 56 134 72 170 43 96 41 90 126
290 166 388 195 455 203 464 8 9 24 -24 120 -244 33 -74 64 -144 69 -155 5
-11 73 -161 149 -334 77 -172 148 -319 158 -327 13 -10 56 -13 154 -14 166 0
154 -9 239 185 71 159 281 635 315 710 12 28 46 104 75 170 29 66 61 139 71
163 11 23 27 61 38 85 10 23 42 96 71 162 66 150 86 196 117 265 14 30 50 111
80 180 30 69 61 137 68 152 19 40 27 84 20 108 -9 30 -402 31 -429 2 -9 -11
-57 -120 -106 -243 -50 -123 -94 -233 -99 -244 -26 -60 -47 -110 -131 -320
-51 -126 -121 -300 -155 -385 -35 -85 -86 -213 -115 -285 -29 -71 -57 -142
-64 -158 -6 -15 -15 -26 -19 -24 -9 3 -113 245 -267 622 -42 105 -97 236 -120
293 l-43 103 127 296 c135 315 145 351 96 362 -14 3 -99 5 -189 3z"/>
<path d="M16592 5028 c-17 -17 -17 -2159 0 -2176 22 -22 371 -16 391 6 27 30
26 2141 -1 2165 -24 21 -369 26 -390 5z"/>
</g>
</svg>
