<svg xmlns="http://www.w3.org/2000/svg" viewBox="0 0 1460.136117 395.150052" fill="#ffffff">
<g transform="translate(0.000000,395.150052) scale(0.100000,-0.100000)" fill="#ffffff" stroke="none">
<path d="M1237 3936 c-3 -7 -23 -16 -44 -19 -158 -26 -256 -58 -398 -134 -16
-9 -46 -24 -65 -34 -19 -9 -44 -27 -54 -38 -11 -12 -36 -31 -55 -43 -107 -64
-314 -278 -386 -399 -11 -18 -24 -40 -30 -49 -37 -57 -54 -88 -60 -110 -4 -14
-13 -32 -20 -40 -7 -8 -19 -35 -25 -60 -7 -25 -18 -57 -26 -71 -7 -15 -18 -55
-23 -90 -6 -35 -20 -76 -31 -91 -20 -27 -20 -39 -20 -1393 l0 -1365 146 0
c129 0 149 2 173 20 16 10 48 24 73 29 54 12 144 56 176 85 107 97 146 150
196 261 l31 70 5 1480 c4 1095 8 1485 17 1500 24 43 94 84 143 85 13 0 128
-61 255 -135 22 -13 59 -33 82 -45 23 -12 47 -28 54 -36 6 -8 17 -14 24 -14 7
0 38 -24 68 -52 73 -71 87 -128 86 -353 0 -88 0 -172 0 -187 1 -36 34 -68 69
-68 29 0 31 1 172 82 52 30 106 61 120 68 14 8 43 26 64 40 55 35 188 37 234
3 16 -12 45 -29 63 -38 19 -8 57 -29 84 -45 28 -17 61 -36 75 -42 14 -7 39
-23 56 -35 17 -13 34 -23 39 -23 4 0 32 -16 62 -36 74 -49 95 -85 90 -151 -4
-62 -19 -80 -96 -125 -31 -18 -69 -40 -86 -49 -16 -10 -44 -25 -62 -33 -17 -9
-34 -20 -37 -25 -3 -5 -25 -18 -48 -30 -24 -12 -65 -34 -93 -51 -27 -16 -61
-35 -75 -42 -14 -6 -33 -19 -44 -27 -10 -9 -37 -26 -60 -38 -22 -12 -59 -31
-81 -42 -22 -12 -60 -35 -85 -51 -25 -16 -63 -39 -85 -50 -22 -12 -58 -32 -80
-45 -22 -13 -60 -36 -85 -50 -25 -14 -67 -38 -95 -55 -27 -16 -61 -35 -75 -42
-14 -6 -32 -17 -40 -24 -8 -7 -37 -24 -65 -39 -209 -114 -259 -149 -314 -214
-56 -67 -99 -258 -70 -312 12 -23 103 -57 187 -70 37 -5 99 -15 137 -22 90
-16 239 -15 340 1 44 7 106 17 137 21 131 20 446 156 529 229 8 7 50 39 93 73
111 83 232 219 301 334 65 110 95 164 95 174 0 5 11 31 25 57 14 26 25 52 25
59 0 7 9 33 20 58 32 72 63 259 68 402 3 121 -2 183 -30 345 -12 73 -61 226
-89 282 -11 21 -19 43 -19 49 0 7 -11 27 -25 45 -14 18 -25 38 -25 44 0 7 -10
25 -22 40 -13 16 -34 47 -48 71 -86 145 -314 356 -480 444 -152 80 -270 125
-395 150 -44 9 -85 23 -91 31 -16 20 -469 21 -477 0z"/>
<path d="M7067 3571 c-31 -10 -30 -69 3 -127 10 -17 23 -56 29 -85 7 -30 18
-63 25 -74 7 -11 18 -44 25 -74 6 -29 18 -65 26 -80 8 -14 40 -102 70 -196 31
-93 67 -197 79 -230 28 -74 63 -176 81 -235 7 -25 28 -83 45 -130 17 -47 38
-110 47 -140 8 -30 23 -73 34 -96 10 -22 19 -49 19 -60 0 -10 9 -33 19 -50 10
-17 24 -55 30 -85 7 -29 18 -63 25 -74 7 -11 18 -44 25 -74 6 -29 18 -65 25
-80 8 -14 21 -46 29 -71 67 -208 103 -313 122 -360 25 -63 60 -164 80 -230 7
-25 27 -83 45 -130 17 -47 38 -110 46 -140 8 -30 21 -67 29 -81 8 -15 20 -49
26 -77 6 -30 21 -61 36 -76 l26 -26 312 0 c364 0 348 -4 376 101 10 35 31 102
49 149 17 47 38 105 45 130 18 59 53 161 81 235 12 33 48 137 79 230 30 94 62
182 70 196 8 15 20 51 26 80 7 30 18 63 25 74 7 11 18 45 25 74 6 30 20 68 30
85 10 17 19 40 19 50 0 11 9 38 19 60 11 23 26 66 34 96 9 30 30 93 47 140 17
47 38 105 45 130 18 59 52 160 81 235 12 33 46 132 74 220 29 88 62 183 75
210 13 28 26 68 30 89 3 21 13 48 20 60 8 12 19 44 25 73 6 28 20 68 31 89 10
21 19 44 19 51 0 8 11 39 24 71 65 156 68 154 -220 154 -405 0 -412 -6 -527
-382 -15 -47 -33 -107 -42 -135 -9 -27 -23 -72 -31 -100 -16 -56 -100 -323
-116 -370 -6 -16 -20 -66 -32 -110 -12 -44 -28 -90 -34 -102 -7 -13 -17 -47
-23 -76 -5 -30 -18 -71 -29 -92 -11 -22 -20 -50 -20 -63 0 -13 -11 -51 -24
-85 -13 -34 -27 -78 -30 -97 -4 -19 -15 -57 -26 -85 -10 -27 -31 -90 -45 -140
-15 -49 -36 -112 -46 -140 -10 -27 -23 -72 -29 -98 -6 -27 -16 -63 -24 -80 -7
-18 -16 -48 -20 -68 -17 -91 -42 -72 -81 61 -15 52 -34 113 -42 135 -8 22 -23
69 -33 105 -10 36 -25 85 -33 110 -9 25 -28 86 -43 135 -15 50 -37 122 -49
160 -12 39 -35 111 -50 160 -15 50 -36 113 -46 140 -10 28 -21 64 -24 80 -4
17 -17 62 -30 100 -12 39 -35 111 -50 160 -15 50 -38 119 -51 155 -13 36 -24
77 -24 91 0 13 -9 42 -19 63 -11 21 -25 61 -31 89 -6 29 -19 75 -29 102 -10
28 -33 96 -51 152 -41 133 -94 193 -187 212 -55 12 -485 22 -516 12z"/>
<path d="M3955 2870 c-44 -11 -94 -20 -110 -20 -17 0 -48 -9 -70 -20 -21 -11
-54 -25 -74 -31 -20 -7 -47 -20 -60 -30 -13 -11 -28 -19 -33 -19 -15 0 -79
-50 -118 -92 -89 -94 -126 -173 -145 -308 -22 -149 -23 -1836 -2 -1858 21 -20
593 -20 614 0 12 12 14 130 14 737 -1 874 2 903 89 978 45 39 55 42 191 53
137 12 99 13 309 -4 96 -7 182 -9 191 -5 28 14 37 59 49 224 6 88 14 169 17
180 4 11 7 34 9 50 1 17 6 42 9 56 13 49 -35 72 -189 90 -44 5 -106 15 -136
21 -106 20 -464 19 -555 -2z"/>
<path d="M5785 2868 c-94 -19 -242 -67 -275 -88 -8 -6 -26 -15 -40 -21 -99
-44 -256 -183 -329 -293 -40 -60 -69 -108 -82 -136 -42 -93 -53 -121 -64 -170
-7 -30 -21 -82 -32 -115 -24 -81 -25 -638 -1 -720 9 -27 21 -72 28 -100 43
-172 153 -383 255 -491 49 -51 230 -184 251 -184 5 0 25 -8 44 -19 175 -94
515 -139 810 -107 185 20 316 38 380 55 41 10 97 22 123 26 32 4 58 16 78 33
l29 27 -10 120 c-6 66 -15 136 -20 156 -22 82 -129 150 -202 128 -121 -36
-547 -59 -642 -35 -34 9 -78 16 -97 16 -19 0 -47 8 -64 18 -16 10 -45 24 -63
30 -51 18 -212 159 -212 186 0 5 -7 17 -16 27 -23 26 -54 139 -66 242 -17 135
-87 122 658 124 399 2 650 6 674 13 49 13 97 67 105 117 3 21 10 63 15 94 6
31 7 64 4 74 -4 9 -1 41 6 71 10 41 11 66 2 107 -6 28 -16 95 -22 147 -7 52
-23 122 -36 156 -13 33 -24 64 -24 69 0 4 -15 31 -32 59 -136 214 -301 324
-568 379 -152 31 -425 33 -565 5z m421 -453 c99 -34 146 -68 195 -139 63 -92
113 -295 78 -317 -27 -17 -865 -11 -879 7 -20 23 1 139 38 217 94 199 355 306
568 232z"/>
<path d="M13425 2883 c-16 -2 -52 -11 -79 -19 -27 -8 -63 -14 -80 -14 -17 0
-53 -11 -81 -25 -27 -13 -55 -25 -62 -25 -13 0 -122 -56 -168 -85 -108 -70
-189 -152 -272 -273 -40 -58 -123 -237 -133 -288 -5 -27 -16 -71 -25 -99 -40
-128 -41 -631 -1 -726 8 -19 17 -56 21 -84 9 -57 51 -176 92 -261 26 -53 40
-76 100 -164 29 -43 126 -140 182 -182 55 -41 232 -138 253 -138 6 0 39 -11
72 -24 122 -48 474 -76 676 -53 199 22 307 38 365 56 37 12 77 21 89 21 82 0
150 50 141 102 -3 18 -9 80 -14 138 -12 136 -38 189 -107 215 -50 19 -39 19
-299 -12 -202 -24 -394 -28 -459 -9 -30 9 -67 16 -83 16 -15 0 -50 11 -78 25
-27 13 -54 25 -60 25 -20 1 -100 62 -148 113 -70 75 -106 152 -128 277 -24
135 -24 136 5 165 l25 25 619 -1 c443 0 633 3 666 12 58 15 91 54 107 130 6
29 17 64 25 76 21 34 20 351 -1 367 -9 6 -22 48 -31 100 -8 49 -24 106 -35
127 -10 21 -19 44 -19 50 0 7 -11 27 -25 45 -14 18 -25 37 -25 43 0 19 -185
198 -225 218 -22 11 -53 27 -70 36 -56 31 -160 64 -235 76 -41 7 -89 16 -106
22 -29 9 -327 10 -389 2z m341 -469 c164 -50 269 -197 276 -389 l3 -70 -441
-3 c-505 -3 -469 -10 -453 88 25 157 158 331 277 362 169 44 227 46 338 12z"/>
<path d="M9972 2842 c-16 -11 -11 -1554 5 -1672 26 -184 50 -259 119 -367 44
-68 151 -175 206 -206 114 -63 166 -88 198 -96 19 -5 71 -19 115 -32 91 -25
523 -31 675 -9 41 6 89 12 105 15 175 24 248 36 286 49 24 8 74 20 112 26 37
6 89 19 115 29 26 10 69 22 96 25 31 5 57 16 72 31 l24 24 -2 1093 -3 1093
-295 3 c-162 1 -305 0 -317 -3 l-23 -5 0 -919 c0 -867 -1 -920 -18 -941 -34
-42 -376 -70 -512 -41 -160 33 -262 120 -289 249 -7 31 -17 73 -22 93 -5 21
-9 358 -9 791 0 573 -3 757 -12 766 -14 14 -604 17 -626 4z"/>
</g>
</svg>
