<?xml version="1.0" encoding="UTF-8"?>
<svg id="Layer_1" data-name="Layer 1" xmlns="http://www.w3.org/2000/svg" viewBox="0 0 545.64 98.91">
  <defs>
    <style>
      .cls-1 {
        fill: #fff;
      }

      .cls-2 {
        fill: #fff;
      }
    </style>
  </defs>
  <path class="cls-1" d="M138.08,27.51c-9.06,0-12.68,4.95-12.68,11.72,0,5.68,2.54,11.77,13.41,11.77h9.48c5.01,0,6.4,2.42,6.4,5.07,0,2.96-1.75,5.07-5.62,5.07h-22.95v7.13h22.71c9.3,0,12.98-5.07,12.98-11.96,0-5.86-2.6-12.02-13.71-12.02h-9.54c-4.77,0-6.04-2.35-6.04-4.83,0-2.84,1.63-4.83,5.31-4.83h20.89v-7.13h-20.65,0ZM194.67,36.39l-10.81,25.06h-.85c-1.21,0-1.51-.18-1.93-1.33l-9.6-23.73h-6.76l10.69,26.81c1.09,2.78,2.35,3.92,5.98,3.92l-5.98,13.95h6.88l19.2-44.69h-6.83ZM211.4,36.39c-3.2,0-4.47,1.21-4.47,4.95v26.93h6.4v-24.82c0-.6.24-.91.78-.91h16.18v25.73h6.46v-25.73h7.49c6.7,0,9.6,2.78,9.6,7.79v17.94h6.46v-17.94c0-8.82-5.31-13.95-16.12-13.95h-32.79,0ZM273.72,36.39c-3.2,0-4.47,1.21-4.47,4.95v26.93h6.4v-24.82c0-.6.24-.91.78-.91h16.18v25.73h6.46v-25.73h7.49c6.7,0,9.6,2.78,9.6,7.79v17.94h6.46v-17.94c0-8.82-5.31-13.95-16.12-13.95h-32.79,0ZM332.84,36.39v6.16h19.08c3.5,0,4.89,1.93,4.89,4.41v2.42h-15.16c-7.85,0-10.75,3.38-10.75,9.18s3.14,9.72,10.69,9.72h14.92c5.37,0,6.58-1.81,6.58-6.4v-14.98c0-6.04-3.14-10.51-11.11-10.51h-19.14,0ZM355.06,62.05h-13.41c-3.2,0-4.47-1.51-4.47-3.87s1.21-3.74,4.59-3.74h15.04v5.98c0,1.15-.48,1.63-1.75,1.63h0ZM368.95,36.39v6.16h4.35v14.73c0,8.33,2.84,10.99,9.42,10.99h5.74v-5.86h-4.41c-3.02,0-4.29-1.21-4.29-4.77v-15.1h8.82v-6.16h-8.82v-7.55h-6.46v7.55h-4.35,0ZM403.37,36.39c-6.28,0-8.64,2.9-8.64,9.3v22.58h6.4v-21.62c0-2.78,1.27-4.11,4.11-4.11h11.23v-6.16h-13.1,0ZM422.75,36.39v31.89h6.4v-31.89s-6.4,0-6.4,0ZM422.75,24.37v7.43h6.46v-7.43h-6.46ZM450.65,36.39c-8.51,0-13.83,5.19-13.83,15.94s5.31,15.94,13.83,15.94h16.43v-6.22h-15.82c-5.56,0-7.97-2.84-7.97-9.72s2.42-9.78,7.97-9.78h15.82v-6.16h-16.43ZM483.56,36.39c-7.43,0-10.39,3.56-10.39,9.3,0,4.89,2.17,9.3,10.99,9.3h7.55c3.2,0,4.53,1.03,4.53,3.56s-1.21,3.5-4.17,3.5h-18.54v6.22h18.54c7.49,0,10.45-3.99,10.45-9.66,0-4.95-2.24-9-11.05-9h-7.49c-3.56,0-4.53-1.21-4.53-3.44,0-2.42,1.21-3.62,4.17-3.62h17.63v-6.16h-17.69,0Z"/>
  <path class="cls-2" d="M69.86,58.76h0s36.98-21.37,36.98-21.37l-7.96-4.6h0s-14.05-8.11-14.05-8.11c0,0,0,0-.01,0l.08.05-20.66,11.94-5.68,3.28c-1.16.67-1.83,1.82-1.83,3.16s.67,2.49,1.83,3.16l7.74,4.47,3.25,1.88c1.16.67,1.83,1.82,1.83,3.16,0,1.22-.55,2.29-1.53,2.97Z"/>
  <polygon class="cls-2" points="76.48 19.86 54.25 7.03 22.45 25.42 44.38 38.08 44.37 38.08 44.39 38.09 76.19 19.7 76.48 19.87 76.48 19.86"/>
  <polygon class="cls-2" points="66.31 60.83 66.31 60.83 62.37 63.1 34.49 79.2 34.49 79.2 56.44 91.88 88.25 73.49 66.32 60.83 66.31 60.83"/>
  <path class="cls-2" d="M53.93,55.79c0-1.34-.67-2.49-1.83-3.16l-7.74-4.47-3.25-1.88c-1.16-.67-1.83-1.82-1.83-3.16,0-1.24.57-2.32,1.57-3h0S3.84,61.51,3.84,61.51l21.94,12.67h0s26.32-15.22,26.32-15.22c1.16-.67,1.83-1.82,1.82-3.16Z"/>
  <path class="cls-1" d="M505.14,28.79c-.13,0-.24-.04-.32-.13s-.13-.19-.13-.32v-9.32h-3.2c-.13,0-.24-.04-.32-.14-.08-.09-.13-.19-.13-.31v-1.93c0-.13.04-.24.13-.32.08-.08.19-.13.32-.13h9.68c.13,0,.24.04.32.13.08.08.13.19.13.32v1.93c0,.12-.04.23-.13.31-.08.09-.19.14-.32.14h-3.2v9.32c0,.13-.04.24-.13.32s-.19.13-.32.13h-2.38Z"/>
  <path class="cls-1" d="M513.71,28.79c-.12,0-.22-.04-.32-.13-.09-.08-.13-.19-.13-.32v-11.7c0-.13.04-.24.13-.32.09-.08.2-.13.32-.13h1.94c.19,0,.34.05.44.15.1.1.17.18.19.24l3.17,5.69,3.17-5.69c.04-.06.1-.14.19-.24.09-.1.24-.15.44-.15h1.93c.13,0,.24.04.33.13.09.08.13.19.13.32v11.7c0,.13-.04.24-.13.32s-.2.13-.33.13h-2.14c-.13,0-.24-.04-.33-.13s-.13-.19-.13-.32v-6.75l-2.03,3.76c-.05.11-.12.2-.22.29-.1.08-.23.13-.4.13h-.94c-.17,0-.3-.04-.4-.13s-.17-.18-.23-.29l-2.03-3.76v6.75c0,.13-.04.24-.13.32-.08.08-.19.13-.32.13h-2.16Z"/>
</svg>