<svg xmlns="http://www.w3.org/2000/svg" viewBox="0 0 2864.124700 832.012545" fill="#ffffff">
<g transform="translate(-76.261178,912.157774) scale(0.100000,-0.100000)" fill="#ffffff" stroke="none">
<path d="M763 9104 c-3 -9 11 -64 31 -123 20 -58 41 -119 46 -136 5 -16 30
-88 55 -160 25 -71 61 -177 81 -235 19 -58 39 -114 44 -125 5 -11 23 -63 40
-115 17 -52 35 -104 40 -115 5 -11 25 -67 44 -125 19 -58 54 -157 76 -220 23
-63 48 -135 55 -160 8 -25 25 -76 40 -115 14 -38 50 -142 80 -230 30 -88 68
-198 85 -245 38 -107 94 -269 116 -335 9 -27 20 -59 25 -70 10 -25 47 -130 59
-170 14 -50 42 -128 58 -165 8 -19 18 -48 23 -65 4 -16 22 -68 39 -115 17 -47
35 -98 40 -115 5 -16 30 -88 55 -160 26 -71 53 -152 61 -180 8 -27 21 -64 29
-82 8 -17 15 -36 15 -43 0 -7 7 -26 15 -43 8 -18 30 -79 49 -137 42 -123 99
-290 156 -450 23 -63 59 -167 80 -230 75 -222 111 -325 117 -340 4 -8 16 -42
27 -75 l21 -60 50 -7 c66 -8 378 -8 434 0 l44 7 25 75 c14 41 32 91 40 110 8
19 18 49 23 65 4 17 22 68 39 115 17 47 35 99 39 115 5 17 16 47 25 67 9 21
16 48 16 62 0 14 4 28 10 31 5 3 16 27 24 53 9 26 29 85 46 132 17 47 35 102
41 123 5 21 14 45 19 55 5 9 33 86 60 171 28 85 57 166 65 182 8 15 15 35 15
44 0 10 7 31 15 48 8 18 30 79 49 137 19 58 56 164 81 235 25 72 50 144 54
160 4 17 13 41 20 54 7 12 18 44 26 69 7 26 25 79 39 117 15 39 33 90 40 115
20 66 125 372 136 395 10 22 35 93 76 220 15 44 33 95 41 114 7 18 36 99 63
180 81 241 130 385 140 406 5 11 23 63 40 115 17 52 35 104 40 115 5 11 25 67
45 125 70 205 105 306 135 390 17 47 35 102 41 123 5 21 14 45 19 55 11 19 86
238 99 290 5 18 15 39 21 47 10 12 10 18 0 30 -14 17 -442 23 -468 7 -12 -8
-53 -110 -71 -177 -13 -47 -131 -398 -141 -420 -13 -27 -289 -851 -301 -898
-5 -21 -14 -45 -19 -55 -6 -9 -34 -91 -64 -182 -30 -91 -60 -178 -65 -195 -43
-122 -84 -246 -92 -279 -5 -21 -16 -51 -24 -67 -8 -15 -15 -35 -15 -44 0 -10
-7 -31 -15 -48 -13 -29 -157 -451 -189 -557 -8 -25 -62 -184 -121 -355 -58
-170 -110 -323 -114 -340 -5 -16 -16 -47 -25 -67 -9 -21 -16 -45 -16 -55 -1
-10 -9 -36 -20 -58 -11 -22 -19 -48 -20 -58 0 -10 -8 -39 -18 -65 -22 -54 -25
-63 -93 -264 -27 -81 -49 -154 -49 -163 0 -16 -26 -32 -37 -21 -7 7 -56 143
-84 231 -10 33 -28 87 -40 120 -11 33 -27 80 -34 105 -8 25 -44 131 -80 235
-36 105 -91 264 -121 355 -30 91 -61 179 -69 197 -8 17 -15 38 -15 47 0 9 -9
33 -20 53 -11 21 -20 45 -20 53 0 8 -16 60 -36 115 -19 55 -39 114 -43 130 -8
28 -45 139 -136 405 -20 58 -43 119 -51 137 -7 17 -14 39 -14 50 -1 10 -9 36
-20 58 -11 22 -19 47 -20 55 0 8 -8 37 -19 65 -28 74 -42 115 -57 165 -7 25
-27 83 -44 130 -17 47 -35 101 -41 120 -5 19 -20 67 -35 105 -14 39 -43 122
-64 185 -21 63 -43 129 -49 145 -23 65 -75 218 -131 385 -85 253 -101 301
-134 395 -10 28 -21 64 -26 80 -26 92 -83 239 -95 247 -23 17 -455 9 -462 -8z"/>
<path d="M14971 9106 c-14 -16 -14 -564 -1 -586 10 -16 426 -18 442 -2 14 14
10 572 -4 589 -16 20 -421 19 -437 -1z"/>
<path d="M13161 8706 c-9 -10 -12 -140 -11 -490 1 -261 -1 -480 -5 -485 -4 -7
-88 -11 -245 -11 -165 0 -241 -3 -246 -11 -11 -19 -7 -310 5 -322 7 -7 91 -11
240 -11 143 -1 234 -5 240 -11 7 -7 11 -466 13 -1400 l3 -1390 27 -100 c69
-252 183 -360 432 -405 163 -30 392 -14 519 35 20 8 51 15 67 15 59 0 65 18
63 184 -2 166 -6 177 -56 158 -51 -20 -233 -35 -349 -29 -167 9 -232 54 -271
190 -29 98 -40 2712 -12 2740 13 14 59 16 332 16 298 0 318 1 324 18 9 22 11
285 3 307 -5 14 -44 16 -329 16 -264 0 -325 3 -334 14 -9 10 -11 143 -11 490
1 261 -1 480 -5 486 -10 17 -380 13 -394 -4z"/>
<path d="M24360 7825 c-9 -11 67 -130 485 -758 6 -8 50 -75 99 -148 49 -74 95
-143 102 -154 56 -82 271 -403 279 -416 16 -26 144 -218 184 -277 20 -28 50
-74 66 -100 17 -27 47 -72 68 -100 36 -51 49 -104 27 -117 -7 -5 -280 -408
-315 -467 -5 -9 -34 -51 -62 -93 -29 -42 -53 -78 -53 -79 0 -2 -23 -37 -50
-77 -28 -41 -98 -146 -157 -234 -58 -88 -149 -224 -202 -303 -53 -78 -103
-154 -111 -167 -8 -13 -39 -59 -67 -100 -29 -42 -53 -79 -54 -83 0 -4 -16 -27
-34 -52 -19 -25 -46 -65 -61 -90 -15 -25 -45 -68 -66 -97 -21 -29 -38 -56 -38
-61 0 -5 -9 -17 -20 -27 -11 -10 -20 -29 -20 -42 l0 -23 594 0 594 0 59 86
c32 47 63 93 68 102 6 9 22 34 38 56 15 23 57 86 94 141 36 55 100 151 142
213 42 61 92 136 111 166 36 55 50 76 249 375 64 95 137 205 163 245 26 39 56
85 68 101 17 25 172 256 322 484 21 31 38 61 38 67 0 9 -43 75 -134 209 -7 11
-75 115 -151 230 -75 116 -148 226 -162 245 -19 28 -126 186 -250 370 -50 75
-350 524 -358 538 -6 10 -25 39 -43 66 -17 27 -29 53 -26 57 3 5 104 9 224 9
l219 0 54 -82 c50 -77 166 -251 204 -308 9 -14 43 -65 76 -114 32 -49 67 -101
77 -115 32 -46 120 -179 174 -262 15 -24 36 -55 45 -68 32 -48 47 -69 95 -142
27 -41 110 -166 185 -277 75 -112 141 -211 146 -220 6 -10 27 -42 48 -73 20
-31 37 -59 37 -64 0 -4 -233 -356 -517 -783 -285 -427 -522 -784 -528 -794 -5
-9 -50 -77 -100 -150 -49 -73 -92 -137 -95 -143 -10 -20 -45 -70 -67 -98 -13
-16 -23 -37 -23 -48 0 -19 13 -19 597 -17 l598 3 192 290 c106 160 196 295
201 300 4 6 219 327 477 715 493 740 491 735 449 781 -9 10 -22 28 -28 38 -6
10 -20 31 -30 47 -11 16 -67 100 -125 187 -58 87 -111 166 -117 175 -6 9 -32
49 -58 87 -25 39 -61 93 -79 120 -19 28 -91 136 -160 240 -70 105 -140 209
-157 233 -16 23 -30 44 -30 46 0 2 -70 108 -155 236 -85 128 -155 238 -155
246 0 15 413 21 437 6 6 -4 54 -71 106 -148 52 -78 104 -154 115 -170 19 -28
582 -872 612 -919 8 -13 35 -54 60 -91 282 -423 265 -387 221 -443 -15 -20
-36 -49 -45 -66 -9 -16 -32 -52 -51 -80 -54 -78 -85 -124 -239 -355 -78 -118
-179 -269 -223 -335 -44 -66 -134 -201 -200 -300 -66 -99 -165 -247 -220 -330
-95 -143 -117 -176 -226 -340 -25 -38 -60 -90 -78 -113 -19 -27 -28 -47 -22
-53 5 -5 87 -8 188 -7 l178 3 16 26 c9 15 40 61 69 104 28 42 52 78 52 80 0 3
27 43 60 90 33 47 60 89 60 94 0 4 9 16 20 26 11 10 20 22 20 27 0 4 17 32 37
61 20 28 71 104 113 167 42 63 93 140 113 170 20 30 101 152 180 270 79 118
152 228 163 244 10 16 24 36 29 45 6 9 24 36 40 60 17 24 37 54 45 67 8 12 86
128 173 257 114 170 155 240 150 252 -8 23 -304 471 -381 578 -13 18 -124 185
-247 372 -123 187 -238 360 -255 385 -17 25 -44 65 -61 90 -16 25 -87 130
-157 234 -70 103 -136 203 -147 222 -44 73 -95 142 -111 148 -28 11 -1144 7
-1165 -4 -18 -10 -18 -12 -3 -43 9 -18 20 -34 23 -37 3 -3 42 -59 85 -125 115
-173 128 -194 173 -260 22 -33 85 -127 140 -210 97 -145 126 -190 303 -455 46
-69 110 -165 143 -215 74 -112 269 -403 371 -554 43 -63 78 -122 79 -131 0 -9
-165 -265 -369 -569 -203 -304 -373 -560 -379 -569 -5 -10 -94 -144 -197 -298
-169 -253 -191 -282 -220 -288 -63 -12 -409 -6 -414 8 -4 10 145 242 285 444
162 234 831 1254 831 1267 0 16 -37 77 -111 186 -9 14 -36 55 -60 90 -23 35
-59 89 -79 119 -21 30 -76 114 -124 185 -47 72 -99 150 -116 175 -17 25 -56
83 -87 130 -199 300 -278 419 -296 445 -11 16 -121 180 -245 365 -123 184
-229 338 -235 343 -14 8 -1151 9 -1173 0 -8 -3 -14 -10 -14 -15 0 -9 253 -397
357 -548 26 -38 320 -481 362 -545 14 -22 28 -42 31 -45 3 -3 49 -70 101 -150
221 -334 351 -531 413 -620 36 -52 66 -102 66 -111 0 -35 -1129 -1713 -1158
-1721 -30 -9 -365 -10 -399 -1 -36 8 -64 -39 297 503 53 80 125 188 160 240
35 52 80 120 100 150 57 84 110 164 186 280 38 58 72 110 77 115 4 6 28 42 54
80 25 39 86 130 135 203 48 72 88 139 88 147 0 9 -93 156 -207 328 -115 171
-212 320 -218 329 -5 9 -95 144 -200 299 -104 156 -192 287 -194 293 -2 5 -17
28 -33 50 -33 47 -78 113 -93 138 -5 9 -34 51 -62 93 -29 42 -53 79 -53 83 0
3 -8 14 -17 24 -9 10 -30 40 -47 68 -54 85 -206 308 -221 323 -19 19 -339 21
-355 2z"/>
<path d="M6655 7813 c-100 -8 -214 -26 -260 -39 -318 -94 -489 -191 -695 -394
-174 -171 -271 -315 -374 -555 -53 -123 -64 -153 -86 -235 -10 -36 -20 -72
-24 -80 -23 -59 -58 -333 -63 -500 -10 -341 21 -587 109 -885 109 -368 399
-737 688 -877 14 -7 36 -19 50 -28 32 -22 218 -89 289 -105 31 -8 74 -18 96
-23 186 -47 510 -49 765 -7 502 84 912 432 1104 940 15 39 36 93 46 120 22 57
25 81 10 90 -20 12 -419 8 -434 -4 -7 -6 -19 -33 -25 -59 -7 -26 -18 -60 -26
-77 -39 -90 -74 -156 -107 -205 -21 -30 -38 -58 -38 -62 0 -4 -37 -44 -82 -89
-146 -143 -306 -231 -511 -280 -160 -39 -537 -35 -619 7 -15 8 -35 14 -45 14
-30 0 -172 62 -258 113 -118 69 -321 282 -369 388 -9 19 -20 41 -25 49 -21 33
-61 130 -104 250 -50 140 -95 523 -65 548 12 9 337 13 1384 14 l1369 3 3 115
c10 404 -99 834 -304 1199 -52 93 -186 244 -314 356 -243 212 -683 332 -1085
298z m420 -399 c226 -54 385 -146 534 -310 88 -96 207 -301 226 -390 4 -16 15
-54 25 -84 41 -123 77 -419 53 -433 -22 -14 -2306 -8 -2315 5 -36 58 139 594
228 699 8 8 14 19 14 23 0 7 26 44 75 106 266 339 720 490 1160 384z"/>
<path d="M10500 7814 c-112 -10 -219 -26 -270 -41 -184 -53 -306 -105 -413
-175 -32 -21 -61 -38 -65 -38 -48 -2 -370 -337 -433 -450 -11 -19 -28 -50 -39
-67 -25 -42 -70 -132 -105 -208 -15 -33 -31 -69 -36 -80 -24 -53 -95 -342
-115 -470 -41 -256 -17 -799 42 -973 7 -23 14 -53 14 -65 0 -25 34 -132 61
-193 11 -23 19 -45 19 -50 1 -5 9 -27 20 -49 11 -22 19 -44 20 -48 0 -12 88
-164 128 -222 107 -155 241 -288 377 -376 83 -53 102 -64 160 -92 33 -15 67
-31 75 -36 14 -7 116 -39 237 -75 71 -22 346 -56 446 -56 104 0 387 34 464 55
151 43 328 117 414 173 199 130 340 279 465 493 44 75 147 327 159 389 4 19
14 56 22 81 8 25 13 68 11 95 l-3 49 -196 3 c-221 3 -225 2 -235 -74 -16 -108
-87 -290 -163 -414 -11 -19 -26 -46 -33 -60 -21 -41 -171 -183 -245 -231 -217
-141 -336 -173 -643 -173 -130 0 -231 5 -255 12 -22 6 -67 18 -100 26 -57 15
-83 25 -170 68 -139 70 -303 216 -389 348 -27 41 -56 86 -65 100 -48 72 -140
299 -141 345 -1 11 -7 38 -15 60 -59 164 -81 629 -42 870 29 180 82 363 142
488 13 29 29 63 35 77 6 14 24 45 40 70 16 25 34 54 39 65 19 40 139 171 219
241 112 96 256 168 422 210 232 58 636 16 799 -83 153 -94 361 -282 361 -326
0 -3 10 -21 23 -39 44 -66 131 -259 142 -316 10 -48 26 -52 234 -52 177 0 190
1 196 19 17 54 -126 488 -181 552 -8 8 -14 20 -14 26 0 6 -20 37 -45 69 -25
31 -45 60 -45 63 0 11 -123 134 -180 182 -50 41 -80 62 -135 96 -50 31 -204
102 -242 112 -23 6 -54 18 -70 26 -15 8 -40 15 -54 15 -15 0 -44 6 -66 14 -73
26 -451 52 -583 40z"/>
<path d="M17750 7809 c-349 -26 -668 -166 -905 -396 -94 -91 -275 -341 -275
-379 0 -2 -19 -44 -41 -92 -40 -83 -54 -122 -80 -222 -6 -25 -18 -67 -26 -95
-8 -27 -22 -90 -29 -140 -8 -49 -20 -119 -26 -155 -7 -39 -12 -189 -12 -380 0
-326 18 -495 69 -659 7 -25 26 -86 41 -136 15 -49 31 -94 35 -100 3 -5 10 -21
14 -35 11 -36 86 -192 101 -210 8 -9 25 -38 39 -65 150 -281 474 -532 810
-627 277 -78 672 -85 880 -14 22 7 74 24 115 36 64 19 227 92 295 133 142 85
375 295 404 364 13 31 35 48 51 38 23 -14 -5 -492 -39 -652 -88 -418 -255
-665 -564 -832 -31 -17 -63 -31 -70 -31 -6 0 -24 -6 -39 -14 -84 -44 -346 -86
-535 -86 -482 1 -789 118 -956 367 -43 65 -63 108 -102 216 -27 77 -22 76
-234 77 -103 0 -196 -2 -205 -6 -21 -8 -21 -66 -1 -124 8 -23 15 -51 15 -61 0
-24 73 -178 115 -244 74 -114 275 -301 394 -366 20 -11 43 -23 51 -28 8 -6 35
-18 60 -29 25 -11 62 -27 83 -36 296 -127 730 -170 1152 -112 222 30 357 71
545 167 167 84 348 239 439 373 53 79 61 92 79 126 10 19 23 44 29 55 88 164
153 413 183 699 20 185 20 248 18 1886 l-3 1695 -199 3 c-153 2 -201 -1 -208
-10 -4 -7 -7 -135 -6 -283 1 -149 -2 -276 -5 -283 -10 -15 -35 -4 -42 19 -12
36 -160 213 -237 282 -316 284 -694 402 -1178 366z m545 -393 c109 -33 229
-83 301 -124 137 -80 330 -287 405 -437 9 -16 20 -39 27 -50 81 -145 156 -417
174 -630 13 -157 4 -542 -15 -615 -8 -30 -18 -73 -22 -95 -4 -22 -25 -93 -46
-158 -139 -413 -443 -737 -784 -834 -27 -7 -68 -19 -90 -25 -77 -22 -459 -15
-535 10 -36 12 -71 22 -79 22 -17 0 -120 41 -171 67 -168 87 -328 240 -432
413 -40 65 -108 203 -108 217 0 8 -7 28 -16 45 -108 208 -150 869 -78 1208 27
128 89 310 120 355 8 11 14 25 14 33 0 7 8 25 19 40 10 15 40 61 67 102 142
218 382 384 644 447 36 8 81 19 100 23 69 17 439 6 505 -14z"/>
<path d="M21875 7805 c-699 -73 -1183 -522 -1368 -1270 -90 -359 -87 -891 7
-1230 44 -163 53 -190 69 -222 10 -18 17 -37 17 -43 0 -32 102 -219 181 -330
152 -217 378 -405 599 -501 14 -6 43 -20 66 -30 23 -11 47 -19 55 -19 8 -1 32
-9 54 -20 22 -11 51 -20 65 -20 14 -1 43 -8 65 -16 47 -17 342 -54 435 -54 94
0 330 34 435 63 374 104 659 312 881 643 98 145 231 469 249 605 4 30 13 74
20 99 22 75 45 316 45 470 0 572 -166 1075 -464 1405 -71 79 -296 265 -321
265 -3 0 -37 18 -76 40 -39 22 -76 40 -82 40 -7 0 -25 7 -42 16 -178 94 -570
142 -890 109z m415 -370 c173 -14 392 -102 536 -216 76 -60 178 -168 200 -212
9 -17 22 -39 29 -47 88 -104 200 -432 225 -660 6 -58 15 -132 21 -166 15 -98
10 -297 -10 -469 -26 -213 -48 -304 -125 -510 -18 -50 -94 -195 -112 -216 -8
-8 -14 -19 -14 -23 0 -22 -147 -186 -220 -244 -132 -107 -197 -141 -370 -198
-136 -44 -469 -58 -615 -25 -77 17 -160 41 -190 55 -191 89 -280 150 -384 262
-126 135 -265 391 -301 554 -4 19 -15 62 -23 95 -99 377 -58 1031 82 1303 5 9
30 60 56 112 96 190 258 375 395 451 19 11 58 33 85 49 28 16 57 29 65 30 8 0
33 9 55 20 22 11 49 19 61 20 11 0 45 7 75 17 90 27 277 34 479 18z"/>
<path d="M14997 7714 c-4 -4 -7 -803 -7 -1776 0 -1663 1 -1769 17 -1775 24 -9
354 -10 376 -1 16 7 17 99 15 1780 l-3 1773 -196 3 c-107 1 -198 -1 -202 -4z"/>
<path d="M1724 1887 c-19 -11 -19 -143 1 -177 22 -38 22 -675 0 -716 -17 -33
-21 -169 -5 -179 5 -3 114 -6 241 -6 l232 -1 71 71 71 71 3 158 3 158 -35 39
c-43 46 -43 49 -10 82 14 14 30 36 35 50 13 34 12 290 -2 314 -20 39 -129 139
-151 140 -96 6 -442 2 -454 -4z m398 -204 c41 -47 25 -183 -25 -216 -33 -21
-139 -24 -156 -3 -14 16 -13 206 1 224 17 20 161 16 180 -5z m-24 -449 c51
-35 68 -169 27 -214 -24 -27 -154 -30 -180 -4 -18 18 -20 198 -2 222 14 18
127 16 155 -4z"/>
<path d="M3119 1886 c-14 -15 -10 -148 6 -176 12 -20 14 -87 14 -355 0 -268
-2 -335 -14 -355 -23 -41 -20 -177 4 -190 23 -12 219 -11 226 0 15 24 9 166
-8 190 -26 37 -25 185 2 200 37 19 109 12 125 -12 29 -47 51 -164 38 -201 -17
-47 -16 -152 2 -170 19 -18 235 -14 248 5 19 31 9 143 -17 178 -14 19 -25 41
-25 51 0 9 -8 43 -19 75 -38 120 -37 134 8 190 l41 49 0 191 0 191 -70 71
c-39 40 -76 72 -83 72 -246 5 -470 3 -478 -4z m390 -186 c4 0 16 -8 27 -18 37
-35 21 -270 -19 -273 -185 -15 -187 -14 -187 145 0 88 4 127 13 134 12 10 118
21 145 15 8 -2 17 -3 21 -3z"/>
<path d="M4548 1891 c-35 -11 -40 -127 -8 -176 31 -47 31 -683 0 -722 -21 -27
-29 -143 -12 -170 12 -19 217 -23 242 -6 25 17 22 138 -4 174 -26 38 -24 681
3 725 22 36 24 145 3 166 -12 12 -193 19 -224 9z"/>
<path d="M5563 1882 c-21 -21 -17 -126 7 -172 19 -37 20 -59 20 -360 0 -301
-1 -322 -20 -357 -21 -40 -28 -145 -11 -172 10 -15 217 -21 240 -7 18 11 14
157 -5 184 -15 22 -23 307 -8 321 10 11 43 -37 57 -84 8 -27 25 -75 37 -105
12 -30 28 -73 36 -95 8 -22 19 -49 24 -60 5 -11 19 -45 30 -76 33 -91 35 -92
133 -91 48 0 91 4 97 7 6 4 10 156 10 431 0 376 2 429 17 457 18 35 27 151 13
176 -9 17 -211 24 -238 8 -17 -12 -16 -141 3 -176 15 -30 24 -315 10 -329 -10
-10 -55 46 -55 69 0 11 -9 41 -19 67 -11 26 -47 117 -81 202 -34 85 -66 160
-71 165 -15 16 -210 13 -226 -3z"/>
<path d="M7154 1881 c-16 -10 -55 -46 -86 -80 l-58 -62 0 -374 c0 -422 -4
-398 85 -493 59 -65 62 -65 244 -64 l164 0 68 69 68 68 3 240 c1 132 -1 246
-5 253 -6 8 -45 12 -137 12 -152 0 -151 1 -146 -102 4 -74 9 -88 34 -88 49 0
62 -26 62 -123 0 -130 -6 -137 -119 -137 -130 0 -121 -26 -121 353 0 373 -10
347 127 347 97 0 113 -13 113 -91 0 -56 5 -59 105 -59 89 0 88 -1 88 112 l0
90 -71 71 -72 72 -159 2 c-135 1 -163 -1 -187 -16z"/>
<path d="M8440 1891 c-23 -6 -25 -11 -28 -80 -2 -55 1 -78 12 -90 23 -26 25
-701 2 -736 -18 -27 -22 -140 -7 -164 13 -20 227 -24 246 -5 20 20 14 143 -8
174 -27 39 -26 691 2 726 19 24 27 138 12 162 -8 13 -193 22 -231 13z"/>
<path d="M9458 1889 c-27 -15 -25 -143 2 -184 30 -46 30 -665 0 -711 -24 -35
-29 -165 -7 -181 14 -12 216 -12 233 -1 21 14 23 129 3 173 -15 32 -19 66 -19
175 0 192 17 208 65 65 15 -44 33 -93 40 -110 8 -16 37 -88 65 -160 28 -71 54
-133 58 -137 4 -4 44 -9 89 -11 135 -8 123 -51 123 456 1 356 3 436 15 457 22
39 20 146 -4 162 -20 14 -211 16 -232 3 -15 -10 -11 -156 5 -174 11 -12 15
-54 17 -168 5 -225 -11 -224 -95 7 -19 52 -44 119 -55 148 -12 28 -30 75 -40
103 -18 47 -36 76 -53 89 -14 11 -193 10 -210 -1z"/>
<path d="M10983 1825 l-73 -71 0 -402 0 -401 33 -37 c17 -21 53 -54 78 -74
l46 -37 154 3 c85 1 158 2 162 3 17 2 130 117 139 141 16 41 13 481 -4 491
-21 14 -252 11 -266 -3 -16 -16 -16 -140 1 -160 6 -9 29 -21 50 -28 l37 -12 0
-99 c0 -133 -7 -141 -128 -137 -118 4 -112 -17 -112 359 0 364 -9 339 122 339
101 0 118 -11 118 -81 0 -61 11 -69 96 -69 97 0 104 8 98 103 -3 39 -7 82 -10
94 -5 25 -120 142 -143 145 -9 0 -86 2 -171 3 l-155 2 -72 -72z"/>
<path d="M13276 1885 c-26 -13 -27 -125 -1 -174 22 -44 23 -687 0 -717 -17
-23 -21 -169 -4 -179 14 -9 224 -9 238 -1 20 13 13 147 -9 181 -22 33 -27 162
-9 198 23 42 149 15 149 -32 0 -9 9 -45 21 -78 19 -57 19 -63 5 -98 -21 -49
-21 -148 -1 -165 16 -13 224 -18 244 -6 21 13 14 157 -8 180 -12 12 -33 72
-52 144 l-31 122 28 36 c53 67 54 68 54 261 l0 182 -41 48 c-51 59 -96 103
-106 103 -139 6 -462 2 -477 -5z m412 -205 c46 -43 25 -259 -25 -274 -44 -12
-155 -1 -168 17 -15 21 -18 231 -3 260 14 27 166 25 196 -3z"/>
<path d="M14834 1892 c-11 -2 -51 -33 -87 -70 l-67 -68 0 -398 0 -398 39 -46
c21 -26 52 -59 68 -74 l28 -27 178 -3 178 -2 72 72 72 72 3 396 3 396 -74 76
-74 75 -159 1 c-88 1 -168 0 -180 -2z m268 -209 c17 -15 18 -39 18 -334 l0
-319 -24 -15 c-42 -28 -197 -17 -213 15 -21 41 -18 618 3 648 20 29 185 33
216 5z"/>
<path d="M16206 1877 c-16 -27 -13 -135 4 -167 9 -18 10 -36 2 -74 -6 -28 -16
-78 -21 -111 -6 -33 -20 -105 -31 -160 -55 -279 -70 -340 -89 -366 -22 -30
-30 -149 -12 -178 9 -14 150 -24 171 -11 13 8 50 140 50 181 0 41 18 48 124
51 105 3 116 -2 116 -53 0 -40 37 -171 51 -180 15 -9 152 -4 168 6 20 12 14
152 -9 183 -11 16 -28 71 -40 137 -11 61 -25 124 -30 140 -5 17 -14 62 -20
100 -6 39 -15 86 -20 106 -28 105 -39 200 -26 237 15 45 14 145 -2 164 -9 12
-50 15 -192 16 -175 0 -181 0 -194 -21z m212 -389 c5 -7 13 -35 16 -63 4 -27
12 -76 18 -108 13 -68 7 -77 -52 -77 -57 0 -64 10 -52 66 6 27 14 73 17 103 9
80 28 108 53 79z"/>
<path d="M17494 1883 c-20 -20 -15 -133 7 -169 28 -46 29 -686 2 -717 -18 -19
-27 -166 -12 -182 4 -3 121 -6 260 -7 l253 0 73 75 73 74 0 395 0 395 -70 72
c-39 39 -76 71 -83 71 -230 7 -493 3 -503 -7z m427 -190 c16 -10 29 -20 29
-23 0 -3 1 -146 1 -318 1 -378 11 -352 -127 -352 -82 0 -95 2 -104 19 -16 30
-14 642 3 664 8 11 31 17 77 20 36 2 71 4 78 5 8 1 27 -6 43 -15z"/>
<path d="M19063 1889 c-10 -4 -46 -36 -80 -72 l-63 -65 0 -180 0 -180 61 -59
c84 -81 88 -82 216 -83 134 0 133 1 133 -124 0 -114 -11 -126 -114 -126 -89 0
-99 9 -102 87 -3 68 -9 73 -96 73 -101 0 -98 3 -98 -110 l0 -98 48 -51 c92
-98 89 -96 260 -95 l150 2 71 67 71 68 0 181 0 181 -67 70 -68 70 -126 3
c-150 4 -149 3 -149 132 0 108 12 120 115 120 86 0 112 -20 102 -82 -9 -60 3
-68 98 -68 46 0 86 4 89 8 3 5 6 50 7 101 l3 92 -70 69 -69 68 -152 4 c-83 2
-160 1 -170 -3z"/>
<path d="M21394 1889 c-25 -9 -144 -133 -145 -151 0 -7 0 -185 0 -396 1 -368
2 -385 21 -412 28 -39 119 -120 136 -121 8 0 87 0 175 -1 l162 0 71 71 71 71
2 391 c3 446 8 417 -87 499 l-61 53 -163 2 c-90 1 -172 -2 -182 -6z m278 -206
c26 -23 28 -624 2 -661 -22 -32 -183 -33 -214 -2 -33 33 -31 641 2 664 33 23
184 22 210 -1z"/>
<path d="M22673 1885 c-28 -19 -31 -124 -6 -163 22 -35 21 -690 -1 -744 -20
-47 -21 -142 -2 -160 20 -20 234 -17 247 3 18 29 11 144 -11 172 -23 29 -27
326 -4 334 11 4 41 -67 126 -297 11 -30 28 -73 38 -95 10 -22 24 -55 31 -73 6
-18 20 -38 29 -45 18 -13 170 -15 189 -2 8 4 11 146 11 442 0 397 2 438 17
455 25 28 27 154 3 171 -18 12 -207 14 -237 2 -19 -6 -17 -139 1 -168 19 -29
26 -321 9 -338 -14 -14 -14 -16 -84 171 -28 74 -60 158 -71 185 -11 28 -27 68
-35 90 -23 63 -32 68 -135 72 -73 3 -98 1 -115 -12z"/>
<path d="M24130 1886 c-16 -16 -12 -148 4 -172 24 -33 26 -697 2 -722 -19 -21
-24 -166 -6 -177 22 -14 503 -7 512 7 13 21 10 192 -4 206 -20 20 -133 15
-170 -8 -37 -22 -88 -26 -106 -8 -19 19 -17 678 3 704 25 33 20 150 -7 168
-27 17 -212 18 -228 2z"/>
<path d="M25441 1886 c-26 -11 -31 -138 -6 -170 22 -29 21 -688 0 -726 -22
-38 -20 -167 3 -178 19 -10 216 -7 232 3 18 11 12 156 -7 177 -24 26 -22 686
2 721 19 27 21 162 3 174 -18 11 -202 11 -227 -1z"/>
<path d="M26471 1888 c-10 -3 -21 -12 -23 -20 -11 -27 1 -138 16 -160 23 -33
24 -684 1 -714 -22 -30 -21 -170 3 -182 20 -10 213 -9 230 2 17 10 16 146 -2
171 -13 19 -28 274 -18 318 3 13 32 26 32 14 0 -8 71 -199 110 -297 23 -58 49
-123 57 -145 8 -22 20 -46 27 -53 13 -13 167 -25 194 -15 9 4 12 100 12 434 0
373 2 435 16 467 22 50 26 158 8 173 -17 14 -211 19 -236 7 -15 -7 -18 -22
-18 -80 0 -54 4 -76 18 -91 15 -16 17 -41 17 -180 0 -187 -9 -205 -50 -95 -15
40 -33 87 -41 103 -7 17 -20 48 -28 70 -7 22 -24 65 -36 95 -12 30 -28 75 -37
100 -26 75 -38 83 -143 84 -50 1 -99 -2 -109 -6z"/>
<path d="M27929 1882 c-27 -19 -27 -124 0 -169 29 -46 32 -667 4 -710 -18 -27
-27 -173 -11 -188 9 -9 532 -10 546 -1 17 10 16 198 0 214 -20 20 -138 15
-173 -8 -34 -23 -123 -28 -143 -8 -8 8 -12 48 -12 113 0 127 -2 125 126 125
121 0 122 1 125 99 3 98 -4 103 -134 100 -120 -3 -117 -6 -117 127 0 84 3 104
18 116 21 20 87 16 130 -6 37 -19 162 -22 180 -4 16 16 16 194 1 204 -22 13
-520 10 -540 -4z"/>
</g>
</svg>
