<svg xmlns="http://www.w3.org/2000/svg" viewBox="0 0 1188.228206 597.713029" fill="#ffffff">
<g transform="translate(0.228206,608.354786) scale(0.100000,-0.100000)" fill="#ffffff" stroke="none">
<path d="M1389 6053 c-2 -16 -2 -257 1 -536 5 -471 6 -509 23 -518 11 -7 17
-22 17 -47 0 -20 9 -50 20 -67 11 -16 20 -40 20 -52 0 -13 9 -32 20 -43 11
-11 20 -27 20 -37 0 -9 7 -23 15 -32 31 -33 65 -79 65 -88 0 -12 179 -194 243
-248 27 -22 57 -48 68 -57 10 -10 23 -18 28 -18 6 0 16 -8 23 -18 7 -10 60
-56 118 -102 58 -46 130 -107 160 -136 30 -29 75 -69 100 -89 106 -87 225
-193 304 -270 19 -19 63 -55 111 -90 78 -59 85 -66 75 -86 -7 -12 -12 -236
-13 -639 -2 -605 -5 -670 -32 -593 -5 16 -18 37 -27 47 -10 10 -18 26 -18 36
0 11 -9 24 -20 30 -11 6 -20 17 -20 25 0 8 -9 19 -20 25 -11 6 -20 15 -20 20
0 12 -46 80 -68 101 -9 9 -31 31 -48 50 -61 68 -285 269 -299 269 -4 0 -18 10
-30 23 -40 41 -97 91 -159 139 -54 42 -147 123 -196 169 -9 8 -25 22 -37 30
-22 16 -121 99 -165 141 -16 14 -74 68 -128 118 -54 50 -119 107 -144 127 -25
20 -46 40 -46 44 0 5 -5 9 -11 9 -6 0 -37 26 -68 58 -58 57 -208 194 -317 287
-57 49 -168 150 -208 190 -12 12 -57 50 -101 85 -44 35 -116 99 -160 141 -44
43 -116 105 -160 140 -72 56 -114 92 -178 154 -47 45 -91 75 -108 75 -26 0
-29 -1101 -4 -1134 8 -11 15 -31 15 -45 0 -14 9 -39 20 -56 11 -16 20 -37 20
-45 0 -9 9 -23 20 -33 11 -9 20 -24 20 -33 0 -14 120 -169 191 -245 19 -20 70
-65 114 -100 73 -59 168 -143 220 -194 11 -12 56 -50 100 -85 44 -35 115 -98
159 -140 104 -99 99 -95 196 -175 94 -77 143 -120 204 -181 23 -22 77 -69 121
-104 44 -35 114 -96 155 -136 41 -40 93 -87 115 -104 96 -73 200 -164 239
-209 12 -12 64 -57 116 -99 52 -42 129 -108 170 -148 75 -72 183 -166 224
-194 24 -17 168 -152 200 -189 49 -54 165 -141 190 -141 l26 0 0 567 c-1 481
1 568 13 573 16 6 97 75 162 137 24 24 48 43 54 43 6 0 11 4 11 9 0 5 13 17
29 28 30 19 150 126 226 201 24 23 47 42 51 42 7 0 127 103 169 145 46 45 148
131 187 158 24 15 47 35 51 43 4 8 12 14 18 14 5 0 26 18 48 40 21 22 42 40
46 40 45 0 549 502 569 568 4 12 16 27 27 32 10 6 19 19 19 29 0 10 9 30 20
44 11 14 20 29 20 34 0 5 9 16 20 26 11 9 20 26 20 38 0 11 9 32 20 46 11 14
20 39 20 56 0 16 10 46 23 66 l22 36 0 720 0 720 -24 3 c-17 3 -33 -7 -59 -37
-19 -23 -39 -41 -43 -41 -5 0 -19 -9 -31 -20 -13 -11 -66 -58 -118 -103 -52
-45 -111 -99 -131 -119 -20 -21 -41 -38 -47 -38 -6 0 -12 -4 -14 -9 -1 -5 -32
-33 -68 -63 -76 -62 -127 -107 -184 -164 -23 -22 -77 -69 -121 -104 -44 -35
-87 -71 -95 -80 -8 -9 -73 -63 -144 -120 -71 -57 -146 -121 -167 -142 -20 -21
-39 -38 -42 -38 -3 0 -25 -17 -48 -37 -100 -88 -154 -142 -203 -203 -28 -36
-66 -80 -84 -99 -18 -19 -46 -58 -62 -87 -17 -28 -37 -57 -45 -64 -8 -7 -15
-23 -15 -36 0 -13 -9 -28 -20 -34 -12 -7 -20 -21 -20 -38 0 -15 -9 -40 -20
-57 -11 -16 -20 -40 -20 -52 0 -13 -4 -23 -10 -23 -7 0 -10 170 -10 489 0 430
-2 491 -16 505 -8 9 -19 39 -23 67 -5 31 -15 55 -25 61 -9 5 -16 21 -16 35 0
15 -7 33 -15 42 -28 30 -65 79 -65 86 0 35 -342 370 -484 474 -25 18 -58 45
-73 60 -16 15 -64 56 -108 91 -44 35 -107 90 -140 121 -33 31 -91 83 -129 116
-39 32 -80 68 -93 81 -13 12 -26 22 -30 22 -3 0 -22 17 -42 38 -109 112 -194
148 -202 85z"/>
<path d="M9715 3083 c-11 -3 -24 -9 -30 -13 -5 -5 -28 -12 -49 -16 -72 -13
-166 -100 -166 -152 0 -13 -7 -40 -16 -59 -16 -32 -16 -37 0 -69 9 -19 16 -46
16 -60 0 -27 83 -124 106 -124 6 0 23 -9 37 -20 41 -32 228 -29 292 4 47 25
105 75 105 89 0 5 9 20 20 34 31 40 29 194 -2 233 -13 15 -32 39 -42 54 -10
14 -25 26 -32 26 -8 0 -19 9 -26 20 -8 12 -24 20 -40 20 -15 0 -50 9 -78 20
-52 20 -60 21 -95 13z"/>
<path d="M6605 2913 c-13 -12 -15 -58 -15 -279 0 -250 -1 -264 -18 -264 -11 0
-27 9 -37 20 -10 11 -30 20 -45 20 -15 0 -39 9 -53 20 -38 30 -335 30 -385 0
-18 -11 -43 -20 -56 -20 -12 0 -31 -9 -41 -20 -10 -11 -28 -20 -41 -20 -13 0
-28 -9 -34 -20 -6 -11 -14 -20 -19 -20 -10 0 -151 -136 -151 -145 0 -4 -9 -18
-20 -32 -11 -14 -20 -33 -20 -43 0 -9 -8 -25 -19 -34 -10 -9 -22 -35 -25 -58
-4 -22 -13 -50 -21 -61 -25 -36 -21 -376 5 -427 11 -22 20 -49 20 -61 0 -11 9
-32 20 -46 11 -14 20 -31 20 -38 0 -6 9 -20 20 -30 11 -10 20 -24 20 -32 0
-18 156 -173 175 -173 8 0 23 -9 32 -20 10 -11 27 -20 39 -20 12 0 33 -9 47
-20 14 -11 40 -20 59 -20 19 0 59 -7 88 -16 113 -33 373 15 423 79 30 37 56
30 59 -15 l3 -43 229 -3 c160 -2 233 1 242 9 18 15 21 1823 3 1834 -25 16
-488 14 -504 -2z m-110 -912 c22 -16 45 -38 51 -50 6 -11 19 -30 30 -42 32
-35 28 -269 -6 -324 -32 -53 -72 -95 -89 -95 -8 0 -23 -8 -33 -17 -31 -28
-143 -31 -178 -4 -16 11 -36 21 -43 21 -19 0 -97 88 -97 109 0 9 -9 34 -20 56
-28 54 -28 157 0 203 11 18 20 43 20 55 0 19 22 44 90 100 44 36 218 29 275
-12z"/>
<path d="M8811 2917 c-8 -8 -11 -294 -11 -908 0 -853 1 -898 18 -919 18 -23
21 -23 243 -21 123 1 227 6 232 10 4 4 6 421 5 927 l-3 919 -237 1 c-154 1
-241 -3 -247 -9z"/>
<path d="M5456 2453 c-49 -3 -76 -10 -94 -23 -14 -11 -37 -20 -52 -20 -15 0
-33 -7 -40 -15 -7 -8 -18 -15 -25 -15 -7 0 -30 -14 -51 -31 l-39 -31 -3 45
c-5 76 -9 77 -251 79 -126 1 -216 -3 -221 -8 -7 -7 -9 -258 -8 -685 l3 -674
225 -3 c124 -1 235 0 247 3 l22 5 -1 363 -1 362 27 50 c47 88 99 128 181 138
85 10 110 11 154 1 49 -10 51 -2 51 233 0 200 -1 213 -19 223 -11 5 -23 9 -28
8 -4 -1 -39 -4 -77 -5z"/>
<path d="M3610 2430 c-19 -11 -51 -19 -71 -20 -23 0 -42 -7 -54 -20 -10 -11
-28 -20 -40 -20 -12 0 -30 -9 -40 -20 -10 -11 -23 -20 -29 -20 -6 0 -17 -9
-24 -20 -7 -11 -16 -20 -21 -20 -27 0 -181 -176 -181 -207 0 -11 -8 -30 -19
-41 -10 -12 -21 -41 -24 -65 -3 -24 -13 -56 -21 -72 -25 -47 -22 -239 4 -305
11 -28 20 -63 20 -79 0 -15 9 -36 20 -46 11 -10 20 -26 20 -36 0 -40 180 -249
214 -249 7 0 21 -9 31 -20 10 -11 24 -20 30 -20 7 0 24 -9 38 -20 14 -11 36
-20 49 -20 12 0 37 -9 53 -20 18 -12 47 -20 71 -20 22 0 63 -7 90 -15 64 -20
213 -20 289 0 33 8 75 15 95 15 19 0 49 9 65 20 17 11 40 20 51 20 12 0 33 9
47 20 14 11 28 20 31 20 7 0 83 52 121 83 42 35 32 54 -98 186 -105 109 -108
111 -152 111 -31 0 -47 -5 -51 -15 -3 -8 -16 -17 -27 -21 -12 -4 -33 -15 -46
-25 -41 -33 -265 -28 -332 7 -74 39 -109 73 -109 107 l0 28 457 -1 458 -2 17
22 c23 29 25 177 3 240 -8 23 -15 56 -15 73 0 54 -71 195 -133 263 -54 60
-181 164 -200 164 -8 0 -26 9 -40 20 -14 11 -38 20 -54 20 -15 0 -45 9 -66 20
-54 29 -373 29 -427 0z m360 -390 c18 -16 37 -30 41 -30 4 0 11 -10 14 -22 4
-13 16 -33 27 -45 45 -49 29 -53 -231 -53 -137 0 -242 4 -246 9 -8 14 39 80
92 129 l46 42 112 0 c110 0 112 0 145 -30z"/>
<path d="M7760 2430 c-25 -10 -56 -19 -68 -19 -13 -1 -35 -10 -49 -21 -14 -11
-36 -20 -50 -20 -13 0 -26 -7 -29 -15 -3 -8 -21 -19 -40 -25 -43 -15 -189
-156 -208 -202 -8 -19 -22 -40 -30 -48 -9 -7 -16 -22 -16 -34 0 -11 -9 -34
-20 -51 -30 -46 -30 -401 0 -460 11 -22 20 -49 20 -61 0 -11 9 -29 20 -39 11
-10 20 -24 20 -31 0 -23 130 -174 150 -174 5 0 14 -9 20 -20 6 -11 19 -20 29
-20 10 0 24 -7 31 -16 8 -8 27 -22 44 -29 17 -8 38 -19 46 -24 34 -20 128 -51
156 -51 17 0 53 -7 80 -15 64 -19 224 -19 288 0 27 8 69 15 94 15 29 0 53 7
69 20 14 11 36 20 49 20 13 0 33 9 44 20 11 11 28 20 38 20 9 0 33 17 52 36
19 20 46 40 59 45 48 19 24 65 -96 188 -119 121 -155 138 -198 91 -10 -11 -26
-20 -35 -20 -9 0 -25 -9 -35 -20 -27 -30 -279 -30 -318 0 -14 11 -31 20 -39
20 -25 0 -98 91 -98 122 0 6 8 7 17 3 10 -3 210 -6 444 -6 436 1 488 5 490 39
6 131 -4 278 -22 311 -10 20 -19 48 -19 63 0 15 -5 30 -11 34 -6 3 -19 25 -30
48 -11 22 -26 51 -33 64 -23 40 -156 162 -176 162 -11 0 -25 9 -32 20 -7 11
-20 20 -28 20 -8 0 -28 9 -45 20 -16 11 -40 20 -53 20 -12 0 -40 9 -62 20 -57
29 -351 29 -420 0z m378 -407 c30 -26 52 -53 52 -64 0 -11 5 -29 10 -39 15
-29 -7 -31 -250 -28 -208 3 -215 4 -218 23 -2 12 6 31 17 44 11 13 23 32 26
42 4 11 10 19 15 19 5 0 22 11 37 24 33 28 87 35 193 28 59 -4 70 -9 118 -49z"/>
<path d="M9524 2435 c-17 -13 -22 -1341 -6 -1357 11 -11 466 -13 483 -2 17 10
12 1354 -5 1360 -27 10 -459 9 -472 -1z"/>
<path d="M10535 2430 c-16 -11 -43 -20 -60 -20 -68 0 -285 -149 -285 -196 0
-6 -9 -19 -20 -29 -13 -11 -20 -31 -20 -52 0 -20 -9 -46 -20 -60 -15 -19 -20
-41 -20 -85 0 -39 7 -72 20 -98 11 -22 20 -48 20 -59 0 -19 12 -35 75 -100 49
-50 61 -61 72 -61 5 0 18 -9 28 -20 10 -11 30 -20 44 -20 14 0 40 -7 56 -16
19 -11 70 -20 136 -24 59 -5 116 -13 127 -19 11 -6 53 -15 94 -21 40 -6 78
-16 83 -23 6 -7 18 -16 28 -20 33 -12 17 -41 -33 -62 -8 -3 -26 -12 -40 -20
-36 -21 -189 -20 -238 1 -20 9 -65 20 -100 24 -35 4 -71 15 -81 24 -9 9 -27
16 -38 16 -11 0 -32 9 -46 20 -47 37 -79 27 -106 -32 -46 -102 -59 -133 -66
-158 -4 -14 -15 -33 -23 -43 -38 -43 -13 -127 38 -127 15 0 39 -9 53 -20 14
-11 39 -20 56 -20 18 0 49 -9 71 -20 23 -12 59 -20 87 -20 26 0 73 -7 103 -15
71 -19 203 -19 277 0 31 8 81 15 110 15 34 0 67 7 90 20 21 11 49 20 64 20 14
0 34 9 44 20 10 11 27 20 38 20 19 0 117 73 126 94 2 5 14 19 27 31 13 12 24
30 24 40 0 9 9 28 20 42 31 40 30 250 -2 310 -39 72 -162 183 -202 183 -7 0
-25 9 -39 20 -15 12 -40 20 -64 20 -21 0 -51 7 -68 16 -17 9 -71 19 -125 24
-52 4 -115 14 -140 23 -25 8 -56 17 -70 19 -21 2 -25 9 -28 42 -5 56 -1 58
193 58 165 0 180 -2 206 -21 16 -12 41 -21 57 -21 16 0 40 -9 54 -20 41 -32
81 -15 89 38 3 23 13 50 22 60 9 10 17 30 17 44 0 14 9 33 20 43 11 10 20 27
20 38 0 11 7 29 16 38 39 43 13 99 -46 99 -24 0 -43 7 -55 20 -12 14 -31 20
-59 20 -23 0 -61 9 -85 20 -66 30 -480 30 -526 0z"/>
<path d="M11434 2436 c-12 -31 1 -51 35 -54 l34 -3 -7 -62 c-7 -71 1 -89 38
-89 37 0 38 2 40 84 1 71 2 73 26 73 23 0 25 -3 22 -45 -6 -86 4 -110 44 -110
27 0 37 5 41 20 5 18 7 18 34 5 39 -21 46 -19 58 15 14 41 29 38 33 -7 2 -31
7 -39 26 -41 22 -3 22 -2 22 112 0 107 -1 116 -19 116 -21 0 -81 -63 -81 -85
0 -25 -30 -16 -42 13 -29 68 -40 72 -175 72 -98 0 -125 -3 -129 -14z"/>
<path d="M3358 813 c-35 -3 -51 -9 -58 -24 -14 -26 -9 -654 5 -668 11 -11 132
-18 141 -8 4 3 6 158 6 344 -1 309 -3 339 -18 350 -10 7 -20 12 -23 11 -3 -1
-27 -3 -53 -5z"/>
<path d="M6199 813 c-20 -2 -45 -13 -54 -24 -10 -10 -24 -19 -30 -19 -7 0 -29
-18 -49 -40 -35 -39 -36 -42 -36 -121 l0 -81 50 -48 c28 -27 61 -52 73 -56 12
-4 31 -13 42 -20 11 -8 39 -14 63 -14 54 0 162 -52 162 -78 0 -63 -177 -91
-259 -41 -53 32 -124 24 -131 -16 -10 -55 2 -98 30 -105 14 -4 40 -14 57 -23
56 -30 291 -24 340 7 90 58 113 93 113 176 l0 76 -50 52 c-33 34 -58 52 -73
52 -14 0 -36 9 -50 20 -15 12 -40 20 -62 20 -35 0 -111 33 -127 55 -12 16 -9
60 4 73 22 22 201 16 228 -8 30 -26 36 -25 65 5 42 41 35 95 -16 128 -42 27
-190 43 -290 30z"/>
<path d="M10837 812 c-113 -8 -244 -169 -192 -238 8 -10 19 -35 25 -55 10 -36
69 -89 99 -89 7 0 24 -9 38 -20 18 -14 41 -20 78 -20 36 0 60 -6 76 -19 13
-10 33 -20 44 -22 22 -5 32 -53 15 -79 -17 -27 -224 -28 -247 -1 -42 49 -143
9 -143 -57 0 -22 40 -62 62 -62 8 0 27 -9 41 -20 33 -26 306 -31 327 -5 6 8
20 17 30 20 23 7 80 59 80 73 0 5 7 15 15 22 26 22 29 73 6 118 -12 23 -21 47
-21 55 0 16 -73 77 -92 77 -7 0 -30 9 -51 20 -20 11 -51 20 -68 20 -18 0 -50
9 -73 19 -23 11 -49 22 -58 25 -21 6 -25 65 -6 84 22 22 201 16 231 -8 40 -32
62 -26 92 25 34 58 30 72 -25 105 -47 29 -156 41 -283 32z"/>
<path d="M3701 774 c-20 -34 -21 -48 -21 -330 0 -185 4 -303 10 -315 12 -21
143 -29 155 -9 3 5 6 95 6 200 0 104 4 190 8 190 5 0 21 -18 36 -40 15 -22 31
-40 35 -40 4 0 20 -19 36 -42 36 -55 98 -132 147 -182 20 -22 37 -44 37 -48 0
-43 129 -68 164 -32 21 20 24 652 4 672 -16 16 -120 15 -141 0 -17 -14 -26
-294 -11 -360 9 -40 -14 -36 -48 6 -16 19 -28 39 -28 43 0 7 -60 78 -105 124
-9 9 -34 41 -56 70 -93 125 -97 129 -155 129 -49 0 -53 -2 -73 -36z"/>
<path d="M4477 803 c-14 -13 -6 -61 13 -86 11 -14 20 -34 20 -45 0 -10 9 -27
20 -37 11 -10 20 -29 20 -41 0 -13 9 -38 20 -56 11 -18 20 -40 20 -49 0 -9 9
-28 20 -42 11 -14 20 -34 20 -45 0 -10 9 -29 20 -42 11 -13 20 -30 20 -39 0
-15 13 -45 69 -158 l26 -53 62 0 c63 0 103 26 103 66 0 8 9 19 20 26 11 7 20
22 20 34 0 11 9 31 20 44 11 13 20 32 20 44 0 12 9 36 20 54 11 18 20 43 20
56 0 12 9 33 20 46 11 13 20 32 20 42 0 11 9 31 20 45 11 14 20 39 20 54 0 17
9 37 20 46 11 10 20 29 20 44 0 15 7 32 15 39 40 33 15 55 -66 58 l-76 3 -26
-52 c-15 -28 -27 -61 -27 -73 0 -13 -9 -33 -19 -45 -10 -12 -22 -37 -25 -55
-4 -19 -13 -39 -21 -46 -8 -7 -15 -23 -15 -35 0 -12 -8 -33 -19 -46 -10 -13
-21 -40 -25 -60 -12 -68 -55 -75 -56 -11 0 13 -9 35 -20 49 -11 14 -20 35 -20
45 0 11 -9 31 -20 45 -11 14 -20 33 -20 42 0 15 -18 58 -61 143 -11 20 -19 44
-19 52 0 35 -144 68 -173 39z"/>
<path d="M5332 780 c-21 -58 -16 -623 5 -649 18 -22 22 -22 263 -21 134 0 249
5 254 10 16 16 20 105 4 118 -10 8 -73 12 -189 14 l-174 3 0 65 0 65 146 3
c167 3 171 5 171 78 0 64 2 63 -167 66 l-150 3 0 65 0 65 175 5 175 5 0 65 0
65 -251 3 -252 2 -10 -30z"/>
<path d="M6674 796 c-3 -7 -4 -38 -2 -67 l3 -54 80 -3 c134 -4 120 28 117
-270 -4 -308 -9 -294 102 -290 l71 3 5 275 5 275 95 3 c52 1 101 4 107 7 15 5
15 104 1 123 -16 19 -577 17 -584 -2z"/>
<path d="M7435 800 c-8 -12 -7 -669 1 -681 7 -11 121 -12 128 -1 3 5 6 86 8
180 1 95 5 172 8 172 4 0 16 -19 26 -42 10 -23 29 -54 41 -69 12 -14 27 -37
33 -50 33 -74 80 -119 123 -119 37 0 87 44 87 75 0 12 9 30 20 40 11 10 20 24
20 32 0 7 6 16 14 19 8 3 27 34 42 69 16 36 32 65 37 65 4 0 7 -80 7 -179 0
-207 -1 -204 86 -199 58 3 58 3 66 38 11 52 9 620 -3 642 -10 18 -139 28 -139
11 0 -5 -11 -21 -25 -37 -14 -16 -25 -38 -25 -48 0 -10 -6 -21 -14 -24 -8 -3
-27 -30 -42 -60 -15 -29 -35 -61 -46 -70 -10 -10 -18 -27 -18 -40 0 -13 -7
-27 -17 -32 -9 -5 -21 -25 -27 -43 -14 -43 -27 -43 -48 0 -10 19 -24 39 -33
43 -8 5 -15 15 -15 23 0 15 -55 101 -71 110 -5 4 -9 14 -9 24 0 10 -7 24 -16
31 -8 8 -21 27 -28 45 -21 51 -70 85 -121 85 -24 0 -47 -4 -50 -10z"/>
<path d="M8437 803 c-9 -9 -9 -665 1 -679 9 -16 21 -16 279 -15 249 1 253 2
253 70 0 66 -12 70 -216 73 l-179 3 0 65 0 65 154 3 c178 3 181 4 181 79 0 67
6 65 -183 67 l-152 1 0 65 0 65 179 3 c222 3 215 -1 190 120 l-4 22 -249 0
c-136 0 -251 -3 -254 -7z"/>
<path d="M9166 794 c-14 -13 -16 -58 -16 -338 0 -370 -5 -351 88 -349 92 2 95
10 90 225 -2 98 0 178 3 178 7 0 59 -76 59 -86 0 -4 10 -17 23 -29 55 -53 135
-144 162 -184 63 -93 74 -101 136 -101 43 0 58 4 63 16 3 9 6 161 6 339 0 368
5 348 -87 343 l-58 -3 -3 -197 c-1 -121 -6 -198 -12 -198 -6 0 -10 4 -10 8 0
5 -18 28 -40 53 -22 24 -40 47 -40 51 0 4 -6 13 -12 20 -7 7 -38 42 -68 78
-30 36 -70 79 -87 96 -18 17 -33 36 -33 42 0 43 -129 71 -164 36z"/>
<path d="M9954 796 c-3 -7 -4 -38 -2 -67 l3 -54 95 -5 95 -5 3 -270 c1 -164 6
-273 12 -279 13 -13 141 -8 158 6 10 9 13 66 10 275 -2 212 0 264 10 268 8 3
51 5 97 5 l84 0 15 32 c20 39 20 58 0 86 -15 22 -17 22 -295 22 -227 0 -281
-3 -285 -14z"/>
</g>
</svg>
